G04 #@! TF.GenerationSoftware,KiCad,Pcbnew,5.1.3-ffb9f22~84~ubuntu18.04.1*
G04 #@! TF.CreationDate,2019-09-02T17:53:29+02:00*
G04 #@! TF.ProjectId,drac_badge,64726163-5f62-4616-9467-652e6b696361,rev?*
G04 #@! TF.SameCoordinates,Original*
G04 #@! TF.FileFunction,Paste,Bot*
G04 #@! TF.FilePolarity,Positive*
%FSLAX46Y46*%
G04 Gerber Fmt 4.6, Leading zero omitted, Abs format (unit mm)*
G04 Created by KiCad (PCBNEW 5.1.3-ffb9f22~84~ubuntu18.04.1) date 2019-09-02 17:53:29*
%MOMM*%
%LPD*%
G04 APERTURE LIST*
%ADD10C,0.400000*%
%ADD11C,0.100000*%
%ADD12C,0.900000*%
%ADD13R,3.000000X1.000000*%
%ADD14R,3.200000X1.000000*%
%ADD15C,0.787000*%
%ADD16R,0.500000X2.000000*%
%ADD17R,1.700000X0.500000*%
%ADD18R,2.600000X3.600000*%
%ADD19R,2.000000X5.400000*%
%ADD20C,0.875000*%
%ADD21R,2.000000X1.100000*%
%ADD22C,1.100000*%
%ADD23R,1.700000X1.300000*%
%ADD24R,1.380000X0.450000*%
%ADD25R,2.100000X1.475000*%
%ADD26R,1.900000X2.375000*%
%ADD27R,2.800000X1.175000*%
%ADD28R,0.800000X0.900000*%
%ADD29R,0.900000X0.800000*%
%ADD30C,1.150000*%
%ADD31R,2.800000X1.000000*%
%ADD32R,1.200000X3.900000*%
%ADD33C,0.830000*%
%ADD34C,0.250000*%
%ADD35R,1.060000X0.650000*%
%ADD36R,0.570000X1.350000*%
%ADD37R,0.400000X0.650000*%
%ADD38C,1.250000*%
%ADD39C,0.975000*%
G04 APERTURE END LIST*
D10*
X8790214Y-48876054D03*
D11*
G36*
X9114961Y-48568581D02*
G01*
X8841344Y-49320335D01*
X8465467Y-49183527D01*
X8739084Y-48431773D01*
X9114961Y-48568581D01*
X9114961Y-48568581D01*
G37*
D10*
X9541968Y-49149670D03*
D11*
G36*
X9866715Y-48842197D02*
G01*
X9593098Y-49593951D01*
X9217221Y-49457143D01*
X9490838Y-48705389D01*
X9866715Y-48842197D01*
X9866715Y-48842197D01*
G37*
D12*
X7910461Y-48076970D03*
D11*
G36*
X8534216Y-47825118D02*
G01*
X8226398Y-48670842D01*
X7286706Y-48328822D01*
X7594524Y-47483098D01*
X8534216Y-47825118D01*
X8534216Y-47825118D01*
G37*
D12*
X10729539Y-49103030D03*
D11*
G36*
X11353294Y-48851178D02*
G01*
X11045476Y-49696902D01*
X10105784Y-49354882D01*
X10413602Y-48509158D01*
X11353294Y-48851178D01*
X11353294Y-48851178D01*
G37*
D13*
X49930000Y-52750000D03*
X43730000Y-52750000D03*
D14*
X49350000Y-50210000D03*
X44310000Y-50210000D03*
D13*
X49350000Y-47670000D03*
X44310000Y-47670000D03*
D15*
X46195000Y-51480000D03*
X47465000Y-51480000D03*
X46195000Y-50210000D03*
X47465000Y-50210000D03*
X46195000Y-48940000D03*
X47465000Y-48940000D03*
D16*
X45980000Y-48170000D03*
X47680000Y-48170000D03*
X44980000Y-52250000D03*
X48680000Y-52250000D03*
D17*
X48080000Y-51460000D03*
X45580000Y-51460000D03*
D18*
X41140000Y-68290000D03*
X70440000Y-68290000D03*
D19*
X25590000Y-74710000D03*
X25590000Y-63710000D03*
D11*
G36*
X72927691Y-58386053D02*
G01*
X72948926Y-58389203D01*
X72969750Y-58394419D01*
X72989962Y-58401651D01*
X73009368Y-58410830D01*
X73027781Y-58421866D01*
X73045024Y-58434654D01*
X73060930Y-58449070D01*
X73075346Y-58464976D01*
X73088134Y-58482219D01*
X73099170Y-58500632D01*
X73108349Y-58520038D01*
X73115581Y-58540250D01*
X73120797Y-58561074D01*
X73123947Y-58582309D01*
X73125000Y-58603750D01*
X73125000Y-59116250D01*
X73123947Y-59137691D01*
X73120797Y-59158926D01*
X73115581Y-59179750D01*
X73108349Y-59199962D01*
X73099170Y-59219368D01*
X73088134Y-59237781D01*
X73075346Y-59255024D01*
X73060930Y-59270930D01*
X73045024Y-59285346D01*
X73027781Y-59298134D01*
X73009368Y-59309170D01*
X72989962Y-59318349D01*
X72969750Y-59325581D01*
X72948926Y-59330797D01*
X72927691Y-59333947D01*
X72906250Y-59335000D01*
X72468750Y-59335000D01*
X72447309Y-59333947D01*
X72426074Y-59330797D01*
X72405250Y-59325581D01*
X72385038Y-59318349D01*
X72365632Y-59309170D01*
X72347219Y-59298134D01*
X72329976Y-59285346D01*
X72314070Y-59270930D01*
X72299654Y-59255024D01*
X72286866Y-59237781D01*
X72275830Y-59219368D01*
X72266651Y-59199962D01*
X72259419Y-59179750D01*
X72254203Y-59158926D01*
X72251053Y-59137691D01*
X72250000Y-59116250D01*
X72250000Y-58603750D01*
X72251053Y-58582309D01*
X72254203Y-58561074D01*
X72259419Y-58540250D01*
X72266651Y-58520038D01*
X72275830Y-58500632D01*
X72286866Y-58482219D01*
X72299654Y-58464976D01*
X72314070Y-58449070D01*
X72329976Y-58434654D01*
X72347219Y-58421866D01*
X72365632Y-58410830D01*
X72385038Y-58401651D01*
X72405250Y-58394419D01*
X72426074Y-58389203D01*
X72447309Y-58386053D01*
X72468750Y-58385000D01*
X72906250Y-58385000D01*
X72927691Y-58386053D01*
X72927691Y-58386053D01*
G37*
D20*
X72687500Y-58860000D03*
D11*
G36*
X71352691Y-58386053D02*
G01*
X71373926Y-58389203D01*
X71394750Y-58394419D01*
X71414962Y-58401651D01*
X71434368Y-58410830D01*
X71452781Y-58421866D01*
X71470024Y-58434654D01*
X71485930Y-58449070D01*
X71500346Y-58464976D01*
X71513134Y-58482219D01*
X71524170Y-58500632D01*
X71533349Y-58520038D01*
X71540581Y-58540250D01*
X71545797Y-58561074D01*
X71548947Y-58582309D01*
X71550000Y-58603750D01*
X71550000Y-59116250D01*
X71548947Y-59137691D01*
X71545797Y-59158926D01*
X71540581Y-59179750D01*
X71533349Y-59199962D01*
X71524170Y-59219368D01*
X71513134Y-59237781D01*
X71500346Y-59255024D01*
X71485930Y-59270930D01*
X71470024Y-59285346D01*
X71452781Y-59298134D01*
X71434368Y-59309170D01*
X71414962Y-59318349D01*
X71394750Y-59325581D01*
X71373926Y-59330797D01*
X71352691Y-59333947D01*
X71331250Y-59335000D01*
X70893750Y-59335000D01*
X70872309Y-59333947D01*
X70851074Y-59330797D01*
X70830250Y-59325581D01*
X70810038Y-59318349D01*
X70790632Y-59309170D01*
X70772219Y-59298134D01*
X70754976Y-59285346D01*
X70739070Y-59270930D01*
X70724654Y-59255024D01*
X70711866Y-59237781D01*
X70700830Y-59219368D01*
X70691651Y-59199962D01*
X70684419Y-59179750D01*
X70679203Y-59158926D01*
X70676053Y-59137691D01*
X70675000Y-59116250D01*
X70675000Y-58603750D01*
X70676053Y-58582309D01*
X70679203Y-58561074D01*
X70684419Y-58540250D01*
X70691651Y-58520038D01*
X70700830Y-58500632D01*
X70711866Y-58482219D01*
X70724654Y-58464976D01*
X70739070Y-58449070D01*
X70754976Y-58434654D01*
X70772219Y-58421866D01*
X70790632Y-58410830D01*
X70810038Y-58401651D01*
X70830250Y-58394419D01*
X70851074Y-58389203D01*
X70872309Y-58386053D01*
X70893750Y-58385000D01*
X71331250Y-58385000D01*
X71352691Y-58386053D01*
X71352691Y-58386053D01*
G37*
D20*
X71112500Y-58860000D03*
D11*
G36*
X61587691Y-56076053D02*
G01*
X61608926Y-56079203D01*
X61629750Y-56084419D01*
X61649962Y-56091651D01*
X61669368Y-56100830D01*
X61687781Y-56111866D01*
X61705024Y-56124654D01*
X61720930Y-56139070D01*
X61735346Y-56154976D01*
X61748134Y-56172219D01*
X61759170Y-56190632D01*
X61768349Y-56210038D01*
X61775581Y-56230250D01*
X61780797Y-56251074D01*
X61783947Y-56272309D01*
X61785000Y-56293750D01*
X61785000Y-56806250D01*
X61783947Y-56827691D01*
X61780797Y-56848926D01*
X61775581Y-56869750D01*
X61768349Y-56889962D01*
X61759170Y-56909368D01*
X61748134Y-56927781D01*
X61735346Y-56945024D01*
X61720930Y-56960930D01*
X61705024Y-56975346D01*
X61687781Y-56988134D01*
X61669368Y-56999170D01*
X61649962Y-57008349D01*
X61629750Y-57015581D01*
X61608926Y-57020797D01*
X61587691Y-57023947D01*
X61566250Y-57025000D01*
X61128750Y-57025000D01*
X61107309Y-57023947D01*
X61086074Y-57020797D01*
X61065250Y-57015581D01*
X61045038Y-57008349D01*
X61025632Y-56999170D01*
X61007219Y-56988134D01*
X60989976Y-56975346D01*
X60974070Y-56960930D01*
X60959654Y-56945024D01*
X60946866Y-56927781D01*
X60935830Y-56909368D01*
X60926651Y-56889962D01*
X60919419Y-56869750D01*
X60914203Y-56848926D01*
X60911053Y-56827691D01*
X60910000Y-56806250D01*
X60910000Y-56293750D01*
X60911053Y-56272309D01*
X60914203Y-56251074D01*
X60919419Y-56230250D01*
X60926651Y-56210038D01*
X60935830Y-56190632D01*
X60946866Y-56172219D01*
X60959654Y-56154976D01*
X60974070Y-56139070D01*
X60989976Y-56124654D01*
X61007219Y-56111866D01*
X61025632Y-56100830D01*
X61045038Y-56091651D01*
X61065250Y-56084419D01*
X61086074Y-56079203D01*
X61107309Y-56076053D01*
X61128750Y-56075000D01*
X61566250Y-56075000D01*
X61587691Y-56076053D01*
X61587691Y-56076053D01*
G37*
D20*
X61347500Y-56550000D03*
D11*
G36*
X60012691Y-56076053D02*
G01*
X60033926Y-56079203D01*
X60054750Y-56084419D01*
X60074962Y-56091651D01*
X60094368Y-56100830D01*
X60112781Y-56111866D01*
X60130024Y-56124654D01*
X60145930Y-56139070D01*
X60160346Y-56154976D01*
X60173134Y-56172219D01*
X60184170Y-56190632D01*
X60193349Y-56210038D01*
X60200581Y-56230250D01*
X60205797Y-56251074D01*
X60208947Y-56272309D01*
X60210000Y-56293750D01*
X60210000Y-56806250D01*
X60208947Y-56827691D01*
X60205797Y-56848926D01*
X60200581Y-56869750D01*
X60193349Y-56889962D01*
X60184170Y-56909368D01*
X60173134Y-56927781D01*
X60160346Y-56945024D01*
X60145930Y-56960930D01*
X60130024Y-56975346D01*
X60112781Y-56988134D01*
X60094368Y-56999170D01*
X60074962Y-57008349D01*
X60054750Y-57015581D01*
X60033926Y-57020797D01*
X60012691Y-57023947D01*
X59991250Y-57025000D01*
X59553750Y-57025000D01*
X59532309Y-57023947D01*
X59511074Y-57020797D01*
X59490250Y-57015581D01*
X59470038Y-57008349D01*
X59450632Y-56999170D01*
X59432219Y-56988134D01*
X59414976Y-56975346D01*
X59399070Y-56960930D01*
X59384654Y-56945024D01*
X59371866Y-56927781D01*
X59360830Y-56909368D01*
X59351651Y-56889962D01*
X59344419Y-56869750D01*
X59339203Y-56848926D01*
X59336053Y-56827691D01*
X59335000Y-56806250D01*
X59335000Y-56293750D01*
X59336053Y-56272309D01*
X59339203Y-56251074D01*
X59344419Y-56230250D01*
X59351651Y-56210038D01*
X59360830Y-56190632D01*
X59371866Y-56172219D01*
X59384654Y-56154976D01*
X59399070Y-56139070D01*
X59414976Y-56124654D01*
X59432219Y-56111866D01*
X59450632Y-56100830D01*
X59470038Y-56091651D01*
X59490250Y-56084419D01*
X59511074Y-56079203D01*
X59532309Y-56076053D01*
X59553750Y-56075000D01*
X59991250Y-56075000D01*
X60012691Y-56076053D01*
X60012691Y-56076053D01*
G37*
D20*
X59772500Y-56550000D03*
D11*
G36*
X35817691Y-76616053D02*
G01*
X35838926Y-76619203D01*
X35859750Y-76624419D01*
X35879962Y-76631651D01*
X35899368Y-76640830D01*
X35917781Y-76651866D01*
X35935024Y-76664654D01*
X35950930Y-76679070D01*
X35965346Y-76694976D01*
X35978134Y-76712219D01*
X35989170Y-76730632D01*
X35998349Y-76750038D01*
X36005581Y-76770250D01*
X36010797Y-76791074D01*
X36013947Y-76812309D01*
X36015000Y-76833750D01*
X36015000Y-77346250D01*
X36013947Y-77367691D01*
X36010797Y-77388926D01*
X36005581Y-77409750D01*
X35998349Y-77429962D01*
X35989170Y-77449368D01*
X35978134Y-77467781D01*
X35965346Y-77485024D01*
X35950930Y-77500930D01*
X35935024Y-77515346D01*
X35917781Y-77528134D01*
X35899368Y-77539170D01*
X35879962Y-77548349D01*
X35859750Y-77555581D01*
X35838926Y-77560797D01*
X35817691Y-77563947D01*
X35796250Y-77565000D01*
X35358750Y-77565000D01*
X35337309Y-77563947D01*
X35316074Y-77560797D01*
X35295250Y-77555581D01*
X35275038Y-77548349D01*
X35255632Y-77539170D01*
X35237219Y-77528134D01*
X35219976Y-77515346D01*
X35204070Y-77500930D01*
X35189654Y-77485024D01*
X35176866Y-77467781D01*
X35165830Y-77449368D01*
X35156651Y-77429962D01*
X35149419Y-77409750D01*
X35144203Y-77388926D01*
X35141053Y-77367691D01*
X35140000Y-77346250D01*
X35140000Y-76833750D01*
X35141053Y-76812309D01*
X35144203Y-76791074D01*
X35149419Y-76770250D01*
X35156651Y-76750038D01*
X35165830Y-76730632D01*
X35176866Y-76712219D01*
X35189654Y-76694976D01*
X35204070Y-76679070D01*
X35219976Y-76664654D01*
X35237219Y-76651866D01*
X35255632Y-76640830D01*
X35275038Y-76631651D01*
X35295250Y-76624419D01*
X35316074Y-76619203D01*
X35337309Y-76616053D01*
X35358750Y-76615000D01*
X35796250Y-76615000D01*
X35817691Y-76616053D01*
X35817691Y-76616053D01*
G37*
D20*
X35577500Y-77090000D03*
D11*
G36*
X34242691Y-76616053D02*
G01*
X34263926Y-76619203D01*
X34284750Y-76624419D01*
X34304962Y-76631651D01*
X34324368Y-76640830D01*
X34342781Y-76651866D01*
X34360024Y-76664654D01*
X34375930Y-76679070D01*
X34390346Y-76694976D01*
X34403134Y-76712219D01*
X34414170Y-76730632D01*
X34423349Y-76750038D01*
X34430581Y-76770250D01*
X34435797Y-76791074D01*
X34438947Y-76812309D01*
X34440000Y-76833750D01*
X34440000Y-77346250D01*
X34438947Y-77367691D01*
X34435797Y-77388926D01*
X34430581Y-77409750D01*
X34423349Y-77429962D01*
X34414170Y-77449368D01*
X34403134Y-77467781D01*
X34390346Y-77485024D01*
X34375930Y-77500930D01*
X34360024Y-77515346D01*
X34342781Y-77528134D01*
X34324368Y-77539170D01*
X34304962Y-77548349D01*
X34284750Y-77555581D01*
X34263926Y-77560797D01*
X34242691Y-77563947D01*
X34221250Y-77565000D01*
X33783750Y-77565000D01*
X33762309Y-77563947D01*
X33741074Y-77560797D01*
X33720250Y-77555581D01*
X33700038Y-77548349D01*
X33680632Y-77539170D01*
X33662219Y-77528134D01*
X33644976Y-77515346D01*
X33629070Y-77500930D01*
X33614654Y-77485024D01*
X33601866Y-77467781D01*
X33590830Y-77449368D01*
X33581651Y-77429962D01*
X33574419Y-77409750D01*
X33569203Y-77388926D01*
X33566053Y-77367691D01*
X33565000Y-77346250D01*
X33565000Y-76833750D01*
X33566053Y-76812309D01*
X33569203Y-76791074D01*
X33574419Y-76770250D01*
X33581651Y-76750038D01*
X33590830Y-76730632D01*
X33601866Y-76712219D01*
X33614654Y-76694976D01*
X33629070Y-76679070D01*
X33644976Y-76664654D01*
X33662219Y-76651866D01*
X33680632Y-76640830D01*
X33700038Y-76631651D01*
X33720250Y-76624419D01*
X33741074Y-76619203D01*
X33762309Y-76616053D01*
X33783750Y-76615000D01*
X34221250Y-76615000D01*
X34242691Y-76616053D01*
X34242691Y-76616053D01*
G37*
D20*
X34002500Y-77090000D03*
D11*
G36*
X37377691Y-78271053D02*
G01*
X37398926Y-78274203D01*
X37419750Y-78279419D01*
X37439962Y-78286651D01*
X37459368Y-78295830D01*
X37477781Y-78306866D01*
X37495024Y-78319654D01*
X37510930Y-78334070D01*
X37525346Y-78349976D01*
X37538134Y-78367219D01*
X37549170Y-78385632D01*
X37558349Y-78405038D01*
X37565581Y-78425250D01*
X37570797Y-78446074D01*
X37573947Y-78467309D01*
X37575000Y-78488750D01*
X37575000Y-78926250D01*
X37573947Y-78947691D01*
X37570797Y-78968926D01*
X37565581Y-78989750D01*
X37558349Y-79009962D01*
X37549170Y-79029368D01*
X37538134Y-79047781D01*
X37525346Y-79065024D01*
X37510930Y-79080930D01*
X37495024Y-79095346D01*
X37477781Y-79108134D01*
X37459368Y-79119170D01*
X37439962Y-79128349D01*
X37419750Y-79135581D01*
X37398926Y-79140797D01*
X37377691Y-79143947D01*
X37356250Y-79145000D01*
X36843750Y-79145000D01*
X36822309Y-79143947D01*
X36801074Y-79140797D01*
X36780250Y-79135581D01*
X36760038Y-79128349D01*
X36740632Y-79119170D01*
X36722219Y-79108134D01*
X36704976Y-79095346D01*
X36689070Y-79080930D01*
X36674654Y-79065024D01*
X36661866Y-79047781D01*
X36650830Y-79029368D01*
X36641651Y-79009962D01*
X36634419Y-78989750D01*
X36629203Y-78968926D01*
X36626053Y-78947691D01*
X36625000Y-78926250D01*
X36625000Y-78488750D01*
X36626053Y-78467309D01*
X36629203Y-78446074D01*
X36634419Y-78425250D01*
X36641651Y-78405038D01*
X36650830Y-78385632D01*
X36661866Y-78367219D01*
X36674654Y-78349976D01*
X36689070Y-78334070D01*
X36704976Y-78319654D01*
X36722219Y-78306866D01*
X36740632Y-78295830D01*
X36760038Y-78286651D01*
X36780250Y-78279419D01*
X36801074Y-78274203D01*
X36822309Y-78271053D01*
X36843750Y-78270000D01*
X37356250Y-78270000D01*
X37377691Y-78271053D01*
X37377691Y-78271053D01*
G37*
D20*
X37100000Y-78707500D03*
D11*
G36*
X37377691Y-76696053D02*
G01*
X37398926Y-76699203D01*
X37419750Y-76704419D01*
X37439962Y-76711651D01*
X37459368Y-76720830D01*
X37477781Y-76731866D01*
X37495024Y-76744654D01*
X37510930Y-76759070D01*
X37525346Y-76774976D01*
X37538134Y-76792219D01*
X37549170Y-76810632D01*
X37558349Y-76830038D01*
X37565581Y-76850250D01*
X37570797Y-76871074D01*
X37573947Y-76892309D01*
X37575000Y-76913750D01*
X37575000Y-77351250D01*
X37573947Y-77372691D01*
X37570797Y-77393926D01*
X37565581Y-77414750D01*
X37558349Y-77434962D01*
X37549170Y-77454368D01*
X37538134Y-77472781D01*
X37525346Y-77490024D01*
X37510930Y-77505930D01*
X37495024Y-77520346D01*
X37477781Y-77533134D01*
X37459368Y-77544170D01*
X37439962Y-77553349D01*
X37419750Y-77560581D01*
X37398926Y-77565797D01*
X37377691Y-77568947D01*
X37356250Y-77570000D01*
X36843750Y-77570000D01*
X36822309Y-77568947D01*
X36801074Y-77565797D01*
X36780250Y-77560581D01*
X36760038Y-77553349D01*
X36740632Y-77544170D01*
X36722219Y-77533134D01*
X36704976Y-77520346D01*
X36689070Y-77505930D01*
X36674654Y-77490024D01*
X36661866Y-77472781D01*
X36650830Y-77454368D01*
X36641651Y-77434962D01*
X36634419Y-77414750D01*
X36629203Y-77393926D01*
X36626053Y-77372691D01*
X36625000Y-77351250D01*
X36625000Y-76913750D01*
X36626053Y-76892309D01*
X36629203Y-76871074D01*
X36634419Y-76850250D01*
X36641651Y-76830038D01*
X36650830Y-76810632D01*
X36661866Y-76792219D01*
X36674654Y-76774976D01*
X36689070Y-76759070D01*
X36704976Y-76744654D01*
X36722219Y-76731866D01*
X36740632Y-76720830D01*
X36760038Y-76711651D01*
X36780250Y-76704419D01*
X36801074Y-76699203D01*
X36822309Y-76696053D01*
X36843750Y-76695000D01*
X37356250Y-76695000D01*
X37377691Y-76696053D01*
X37377691Y-76696053D01*
G37*
D20*
X37100000Y-77132500D03*
D11*
G36*
X14802691Y-63916053D02*
G01*
X14823926Y-63919203D01*
X14844750Y-63924419D01*
X14864962Y-63931651D01*
X14884368Y-63940830D01*
X14902781Y-63951866D01*
X14920024Y-63964654D01*
X14935930Y-63979070D01*
X14950346Y-63994976D01*
X14963134Y-64012219D01*
X14974170Y-64030632D01*
X14983349Y-64050038D01*
X14990581Y-64070250D01*
X14995797Y-64091074D01*
X14998947Y-64112309D01*
X15000000Y-64133750D01*
X15000000Y-64646250D01*
X14998947Y-64667691D01*
X14995797Y-64688926D01*
X14990581Y-64709750D01*
X14983349Y-64729962D01*
X14974170Y-64749368D01*
X14963134Y-64767781D01*
X14950346Y-64785024D01*
X14935930Y-64800930D01*
X14920024Y-64815346D01*
X14902781Y-64828134D01*
X14884368Y-64839170D01*
X14864962Y-64848349D01*
X14844750Y-64855581D01*
X14823926Y-64860797D01*
X14802691Y-64863947D01*
X14781250Y-64865000D01*
X14343750Y-64865000D01*
X14322309Y-64863947D01*
X14301074Y-64860797D01*
X14280250Y-64855581D01*
X14260038Y-64848349D01*
X14240632Y-64839170D01*
X14222219Y-64828134D01*
X14204976Y-64815346D01*
X14189070Y-64800930D01*
X14174654Y-64785024D01*
X14161866Y-64767781D01*
X14150830Y-64749368D01*
X14141651Y-64729962D01*
X14134419Y-64709750D01*
X14129203Y-64688926D01*
X14126053Y-64667691D01*
X14125000Y-64646250D01*
X14125000Y-64133750D01*
X14126053Y-64112309D01*
X14129203Y-64091074D01*
X14134419Y-64070250D01*
X14141651Y-64050038D01*
X14150830Y-64030632D01*
X14161866Y-64012219D01*
X14174654Y-63994976D01*
X14189070Y-63979070D01*
X14204976Y-63964654D01*
X14222219Y-63951866D01*
X14240632Y-63940830D01*
X14260038Y-63931651D01*
X14280250Y-63924419D01*
X14301074Y-63919203D01*
X14322309Y-63916053D01*
X14343750Y-63915000D01*
X14781250Y-63915000D01*
X14802691Y-63916053D01*
X14802691Y-63916053D01*
G37*
D20*
X14562500Y-64390000D03*
D11*
G36*
X16377691Y-63916053D02*
G01*
X16398926Y-63919203D01*
X16419750Y-63924419D01*
X16439962Y-63931651D01*
X16459368Y-63940830D01*
X16477781Y-63951866D01*
X16495024Y-63964654D01*
X16510930Y-63979070D01*
X16525346Y-63994976D01*
X16538134Y-64012219D01*
X16549170Y-64030632D01*
X16558349Y-64050038D01*
X16565581Y-64070250D01*
X16570797Y-64091074D01*
X16573947Y-64112309D01*
X16575000Y-64133750D01*
X16575000Y-64646250D01*
X16573947Y-64667691D01*
X16570797Y-64688926D01*
X16565581Y-64709750D01*
X16558349Y-64729962D01*
X16549170Y-64749368D01*
X16538134Y-64767781D01*
X16525346Y-64785024D01*
X16510930Y-64800930D01*
X16495024Y-64815346D01*
X16477781Y-64828134D01*
X16459368Y-64839170D01*
X16439962Y-64848349D01*
X16419750Y-64855581D01*
X16398926Y-64860797D01*
X16377691Y-64863947D01*
X16356250Y-64865000D01*
X15918750Y-64865000D01*
X15897309Y-64863947D01*
X15876074Y-64860797D01*
X15855250Y-64855581D01*
X15835038Y-64848349D01*
X15815632Y-64839170D01*
X15797219Y-64828134D01*
X15779976Y-64815346D01*
X15764070Y-64800930D01*
X15749654Y-64785024D01*
X15736866Y-64767781D01*
X15725830Y-64749368D01*
X15716651Y-64729962D01*
X15709419Y-64709750D01*
X15704203Y-64688926D01*
X15701053Y-64667691D01*
X15700000Y-64646250D01*
X15700000Y-64133750D01*
X15701053Y-64112309D01*
X15704203Y-64091074D01*
X15709419Y-64070250D01*
X15716651Y-64050038D01*
X15725830Y-64030632D01*
X15736866Y-64012219D01*
X15749654Y-63994976D01*
X15764070Y-63979070D01*
X15779976Y-63964654D01*
X15797219Y-63951866D01*
X15815632Y-63940830D01*
X15835038Y-63931651D01*
X15855250Y-63924419D01*
X15876074Y-63919203D01*
X15897309Y-63916053D01*
X15918750Y-63915000D01*
X16356250Y-63915000D01*
X16377691Y-63916053D01*
X16377691Y-63916053D01*
G37*
D20*
X16137500Y-64390000D03*
D21*
X67350000Y-36050000D03*
X67350000Y-37750000D03*
X67350000Y-39450000D03*
X72150000Y-39450000D03*
X72150000Y-37750000D03*
X72150000Y-36050000D03*
D22*
X22891770Y-55963240D03*
D11*
G36*
X21783494Y-55690800D02*
G01*
X23715345Y-55173162D01*
X24000046Y-56235680D01*
X22068195Y-56753318D01*
X21783494Y-55690800D01*
X21783494Y-55690800D01*
G37*
D22*
X22451778Y-54321166D03*
D11*
G36*
X21343502Y-54048726D02*
G01*
X23275353Y-53531088D01*
X23560054Y-54593606D01*
X21628203Y-55111244D01*
X21343502Y-54048726D01*
X21343502Y-54048726D01*
G37*
D22*
X22011786Y-52679092D03*
D11*
G36*
X20903510Y-52406652D02*
G01*
X22835361Y-51889014D01*
X23120062Y-52951532D01*
X21188211Y-53469170D01*
X20903510Y-52406652D01*
X20903510Y-52406652D01*
G37*
D22*
X26648230Y-51436760D03*
D11*
G36*
X25539954Y-51164320D02*
G01*
X27471805Y-50646682D01*
X27756506Y-51709200D01*
X25824655Y-52226838D01*
X25539954Y-51164320D01*
X25539954Y-51164320D01*
G37*
D22*
X27088222Y-53078834D03*
D11*
G36*
X25979946Y-52806394D02*
G01*
X27911797Y-52288756D01*
X28196498Y-53351274D01*
X26264647Y-53868912D01*
X25979946Y-52806394D01*
X25979946Y-52806394D01*
G37*
D22*
X27528214Y-54720908D03*
D11*
G36*
X26419938Y-54448468D02*
G01*
X28351789Y-53930830D01*
X28636490Y-54993348D01*
X26704639Y-55510986D01*
X26419938Y-54448468D01*
X26419938Y-54448468D01*
G37*
D10*
X64908032Y-9209670D03*
D11*
G36*
X64959162Y-8765389D02*
G01*
X65232779Y-9517143D01*
X64856902Y-9653951D01*
X64583285Y-8902197D01*
X64959162Y-8765389D01*
X64959162Y-8765389D01*
G37*
D10*
X65659786Y-8936054D03*
D11*
G36*
X65710916Y-8491773D02*
G01*
X65984533Y-9243527D01*
X65608656Y-9380335D01*
X65335039Y-8628581D01*
X65710916Y-8491773D01*
X65710916Y-8491773D01*
G37*
D12*
X63720461Y-9163030D03*
D11*
G36*
X64036398Y-8569158D02*
G01*
X64344216Y-9414882D01*
X63404524Y-9756902D01*
X63096706Y-8911178D01*
X64036398Y-8569158D01*
X64036398Y-8569158D01*
G37*
D12*
X66539539Y-8136970D03*
D11*
G36*
X66855476Y-7543098D02*
G01*
X67163294Y-8388822D01*
X66223602Y-8730842D01*
X65915784Y-7885118D01*
X66855476Y-7543098D01*
X66855476Y-7543098D01*
G37*
D12*
X86184181Y-22729067D03*
D11*
G36*
X86850295Y-22822835D02*
G01*
X86160855Y-23401344D01*
X85518067Y-22635299D01*
X86207507Y-22056790D01*
X86850295Y-22822835D01*
X86850295Y-22822835D01*
G37*
D12*
X84255819Y-20430933D03*
D11*
G36*
X84921933Y-20524701D02*
G01*
X84232493Y-21103210D01*
X83589705Y-20337165D01*
X84279145Y-19758656D01*
X84921933Y-20524701D01*
X84921933Y-20524701D01*
G37*
D10*
X85132395Y-22175672D03*
D11*
G36*
X85567370Y-22071766D02*
G01*
X84954535Y-22585996D01*
X84697420Y-22279578D01*
X85310255Y-21765348D01*
X85567370Y-22071766D01*
X85567370Y-22071766D01*
G37*
D10*
X84618165Y-21562837D03*
D11*
G36*
X85053140Y-21458931D02*
G01*
X84440305Y-21973161D01*
X84183190Y-21666743D01*
X84796025Y-21152513D01*
X85053140Y-21458931D01*
X85053140Y-21458931D01*
G37*
D10*
X76240214Y-13846054D03*
D11*
G36*
X76564961Y-13538581D02*
G01*
X76291344Y-14290335D01*
X75915467Y-14153527D01*
X76189084Y-13401773D01*
X76564961Y-13538581D01*
X76564961Y-13538581D01*
G37*
D10*
X76991968Y-14119670D03*
D11*
G36*
X77316715Y-13812197D02*
G01*
X77043098Y-14563951D01*
X76667221Y-14427143D01*
X76940838Y-13675389D01*
X77316715Y-13812197D01*
X77316715Y-13812197D01*
G37*
D12*
X75360461Y-13046970D03*
D11*
G36*
X75984216Y-12795118D02*
G01*
X75676398Y-13640842D01*
X74736706Y-13298822D01*
X75044524Y-12453098D01*
X75984216Y-12795118D01*
X75984216Y-12795118D01*
G37*
D12*
X78179539Y-14073030D03*
D11*
G36*
X78803294Y-13821178D02*
G01*
X78495476Y-14666902D01*
X77555784Y-14324882D01*
X77863602Y-13479158D01*
X78803294Y-13821178D01*
X78803294Y-13821178D01*
G37*
D12*
X53449067Y-15215819D03*
D11*
G36*
X53542835Y-14549705D02*
G01*
X54121344Y-15239145D01*
X53355299Y-15881933D01*
X52776790Y-15192493D01*
X53542835Y-14549705D01*
X53542835Y-14549705D01*
G37*
D12*
X51150933Y-17144181D03*
D11*
G36*
X51244701Y-16478067D02*
G01*
X51823210Y-17167507D01*
X51057165Y-17810295D01*
X50478656Y-17120855D01*
X51244701Y-16478067D01*
X51244701Y-16478067D01*
G37*
D10*
X52895672Y-16267605D03*
D11*
G36*
X52791766Y-15832630D02*
G01*
X53305996Y-16445465D01*
X52999578Y-16702580D01*
X52485348Y-16089745D01*
X52791766Y-15832630D01*
X52791766Y-15832630D01*
G37*
D10*
X52282837Y-16781835D03*
D11*
G36*
X52178931Y-16346860D02*
G01*
X52693161Y-16959695D01*
X52386743Y-17216810D01*
X51872513Y-16603975D01*
X52178931Y-16346860D01*
X52178931Y-16346860D01*
G37*
D12*
X18699539Y-48426970D03*
D11*
G36*
X19015476Y-47833098D02*
G01*
X19323294Y-48678822D01*
X18383602Y-49020842D01*
X18075784Y-48175118D01*
X19015476Y-47833098D01*
X19015476Y-47833098D01*
G37*
D12*
X15880461Y-49453030D03*
D11*
G36*
X16196398Y-48859158D02*
G01*
X16504216Y-49704882D01*
X15564524Y-50046902D01*
X15256706Y-49201178D01*
X16196398Y-48859158D01*
X16196398Y-48859158D01*
G37*
D10*
X17819786Y-49226054D03*
D11*
G36*
X17870916Y-48781773D02*
G01*
X18144533Y-49533527D01*
X17768656Y-49670335D01*
X17495039Y-48918581D01*
X17870916Y-48781773D01*
X17870916Y-48781773D01*
G37*
D10*
X17068032Y-49499670D03*
D11*
G36*
X17119162Y-49055389D02*
G01*
X17392779Y-49807143D01*
X17016902Y-49943951D01*
X16743285Y-49192197D01*
X17119162Y-49055389D01*
X17119162Y-49055389D01*
G37*
D12*
X93019067Y-33444181D03*
D11*
G36*
X93691344Y-33420855D02*
G01*
X93112835Y-34110295D01*
X92346790Y-33467507D01*
X92925299Y-32778067D01*
X93691344Y-33420855D01*
X93691344Y-33420855D01*
G37*
D12*
X90720933Y-31515819D03*
D11*
G36*
X91393210Y-31492493D02*
G01*
X90814701Y-32181933D01*
X90048656Y-31539145D01*
X90627165Y-30849705D01*
X91393210Y-31492493D01*
X91393210Y-31492493D01*
G37*
D10*
X91887163Y-33081835D03*
D11*
G36*
X92297487Y-32903975D02*
G01*
X91783257Y-33516810D01*
X91476839Y-33259695D01*
X91991069Y-32646860D01*
X92297487Y-32903975D01*
X92297487Y-32903975D01*
G37*
D10*
X91274328Y-32567605D03*
D11*
G36*
X91684652Y-32389745D02*
G01*
X91170422Y-33002580D01*
X90864004Y-32745465D01*
X91378234Y-32132630D01*
X91684652Y-32389745D01*
X91684652Y-32389745D01*
G37*
D12*
X27719539Y-45796970D03*
D11*
G36*
X28035476Y-45203098D02*
G01*
X28343294Y-46048822D01*
X27403602Y-46390842D01*
X27095784Y-45545118D01*
X28035476Y-45203098D01*
X28035476Y-45203098D01*
G37*
D12*
X24900461Y-46823030D03*
D11*
G36*
X25216398Y-46229158D02*
G01*
X25524216Y-47074882D01*
X24584524Y-47416902D01*
X24276706Y-46571178D01*
X25216398Y-46229158D01*
X25216398Y-46229158D01*
G37*
D10*
X26839786Y-46596054D03*
D11*
G36*
X26890916Y-46151773D02*
G01*
X27164533Y-46903527D01*
X26788656Y-47040335D01*
X26515039Y-46288581D01*
X26890916Y-46151773D01*
X26890916Y-46151773D01*
G37*
D10*
X26088032Y-46869670D03*
D11*
G36*
X26139162Y-46425389D02*
G01*
X26412779Y-47177143D01*
X26036902Y-47313951D01*
X25763285Y-46562197D01*
X26139162Y-46425389D01*
X26139162Y-46425389D01*
G37*
D23*
X33780000Y-70740000D03*
X33780000Y-74240000D03*
D13*
X79960000Y-46480000D03*
X85000000Y-46480000D03*
X79960000Y-49020000D03*
X85000000Y-49020000D03*
X79960000Y-51560000D03*
X85000000Y-51560000D03*
D24*
X33750000Y-87250000D03*
X33750000Y-87900000D03*
X33750000Y-86600000D03*
X33750000Y-88550000D03*
X33750000Y-85950000D03*
D25*
X33390000Y-89712500D03*
X33390000Y-84787500D03*
D26*
X30760000Y-90162500D03*
X30760000Y-84337500D03*
D27*
X30300000Y-88087500D03*
X30300000Y-86412500D03*
D28*
X41860000Y-58220000D03*
X40910000Y-60220000D03*
X42810000Y-60220000D03*
D29*
X36720000Y-61980000D03*
X38720000Y-62930000D03*
X38720000Y-61030000D03*
D28*
X68100000Y-30650000D03*
X69050000Y-28650000D03*
X67150000Y-28650000D03*
X61410000Y-28740000D03*
X63310000Y-28740000D03*
X62360000Y-30740000D03*
X72770000Y-28690000D03*
X74670000Y-28690000D03*
X73720000Y-30690000D03*
X33460000Y-41020000D03*
X34410000Y-39020000D03*
X32510000Y-39020000D03*
X32520000Y-35560000D03*
X34420000Y-35560000D03*
X33470000Y-37560000D03*
X35890000Y-67770000D03*
X37790000Y-67770000D03*
X36840000Y-69770000D03*
X33470000Y-34060000D03*
X34420000Y-32060000D03*
X32520000Y-32060000D03*
X46470000Y-58710000D03*
X44570000Y-58710000D03*
X45520000Y-56710000D03*
D11*
G36*
X53704505Y-42421204D02*
G01*
X53728773Y-42424804D01*
X53752572Y-42430765D01*
X53775671Y-42439030D01*
X53797850Y-42449520D01*
X53818893Y-42462132D01*
X53838599Y-42476747D01*
X53856777Y-42493223D01*
X53873253Y-42511401D01*
X53887868Y-42531107D01*
X53900480Y-42552150D01*
X53910970Y-42574329D01*
X53919235Y-42597428D01*
X53925196Y-42621227D01*
X53928796Y-42645495D01*
X53930000Y-42669999D01*
X53930000Y-43570001D01*
X53928796Y-43594505D01*
X53925196Y-43618773D01*
X53919235Y-43642572D01*
X53910970Y-43665671D01*
X53900480Y-43687850D01*
X53887868Y-43708893D01*
X53873253Y-43728599D01*
X53856777Y-43746777D01*
X53838599Y-43763253D01*
X53818893Y-43777868D01*
X53797850Y-43790480D01*
X53775671Y-43800970D01*
X53752572Y-43809235D01*
X53728773Y-43815196D01*
X53704505Y-43818796D01*
X53680001Y-43820000D01*
X53029999Y-43820000D01*
X53005495Y-43818796D01*
X52981227Y-43815196D01*
X52957428Y-43809235D01*
X52934329Y-43800970D01*
X52912150Y-43790480D01*
X52891107Y-43777868D01*
X52871401Y-43763253D01*
X52853223Y-43746777D01*
X52836747Y-43728599D01*
X52822132Y-43708893D01*
X52809520Y-43687850D01*
X52799030Y-43665671D01*
X52790765Y-43642572D01*
X52784804Y-43618773D01*
X52781204Y-43594505D01*
X52780000Y-43570001D01*
X52780000Y-42669999D01*
X52781204Y-42645495D01*
X52784804Y-42621227D01*
X52790765Y-42597428D01*
X52799030Y-42574329D01*
X52809520Y-42552150D01*
X52822132Y-42531107D01*
X52836747Y-42511401D01*
X52853223Y-42493223D01*
X52871401Y-42476747D01*
X52891107Y-42462132D01*
X52912150Y-42449520D01*
X52934329Y-42439030D01*
X52957428Y-42430765D01*
X52981227Y-42424804D01*
X53005495Y-42421204D01*
X53029999Y-42420000D01*
X53680001Y-42420000D01*
X53704505Y-42421204D01*
X53704505Y-42421204D01*
G37*
D30*
X53355000Y-43120000D03*
D11*
G36*
X55754505Y-42421204D02*
G01*
X55778773Y-42424804D01*
X55802572Y-42430765D01*
X55825671Y-42439030D01*
X55847850Y-42449520D01*
X55868893Y-42462132D01*
X55888599Y-42476747D01*
X55906777Y-42493223D01*
X55923253Y-42511401D01*
X55937868Y-42531107D01*
X55950480Y-42552150D01*
X55960970Y-42574329D01*
X55969235Y-42597428D01*
X55975196Y-42621227D01*
X55978796Y-42645495D01*
X55980000Y-42669999D01*
X55980000Y-43570001D01*
X55978796Y-43594505D01*
X55975196Y-43618773D01*
X55969235Y-43642572D01*
X55960970Y-43665671D01*
X55950480Y-43687850D01*
X55937868Y-43708893D01*
X55923253Y-43728599D01*
X55906777Y-43746777D01*
X55888599Y-43763253D01*
X55868893Y-43777868D01*
X55847850Y-43790480D01*
X55825671Y-43800970D01*
X55802572Y-43809235D01*
X55778773Y-43815196D01*
X55754505Y-43818796D01*
X55730001Y-43820000D01*
X55079999Y-43820000D01*
X55055495Y-43818796D01*
X55031227Y-43815196D01*
X55007428Y-43809235D01*
X54984329Y-43800970D01*
X54962150Y-43790480D01*
X54941107Y-43777868D01*
X54921401Y-43763253D01*
X54903223Y-43746777D01*
X54886747Y-43728599D01*
X54872132Y-43708893D01*
X54859520Y-43687850D01*
X54849030Y-43665671D01*
X54840765Y-43642572D01*
X54834804Y-43618773D01*
X54831204Y-43594505D01*
X54830000Y-43570001D01*
X54830000Y-42669999D01*
X54831204Y-42645495D01*
X54834804Y-42621227D01*
X54840765Y-42597428D01*
X54849030Y-42574329D01*
X54859520Y-42552150D01*
X54872132Y-42531107D01*
X54886747Y-42511401D01*
X54903223Y-42493223D01*
X54921401Y-42476747D01*
X54941107Y-42462132D01*
X54962150Y-42449520D01*
X54984329Y-42439030D01*
X55007428Y-42430765D01*
X55031227Y-42424804D01*
X55055495Y-42421204D01*
X55079999Y-42420000D01*
X55730001Y-42420000D01*
X55754505Y-42421204D01*
X55754505Y-42421204D01*
G37*
D30*
X55405000Y-43120000D03*
D11*
G36*
X67822691Y-31656053D02*
G01*
X67843926Y-31659203D01*
X67864750Y-31664419D01*
X67884962Y-31671651D01*
X67904368Y-31680830D01*
X67922781Y-31691866D01*
X67940024Y-31704654D01*
X67955930Y-31719070D01*
X67970346Y-31734976D01*
X67983134Y-31752219D01*
X67994170Y-31770632D01*
X68003349Y-31790038D01*
X68010581Y-31810250D01*
X68015797Y-31831074D01*
X68018947Y-31852309D01*
X68020000Y-31873750D01*
X68020000Y-32386250D01*
X68018947Y-32407691D01*
X68015797Y-32428926D01*
X68010581Y-32449750D01*
X68003349Y-32469962D01*
X67994170Y-32489368D01*
X67983134Y-32507781D01*
X67970346Y-32525024D01*
X67955930Y-32540930D01*
X67940024Y-32555346D01*
X67922781Y-32568134D01*
X67904368Y-32579170D01*
X67884962Y-32588349D01*
X67864750Y-32595581D01*
X67843926Y-32600797D01*
X67822691Y-32603947D01*
X67801250Y-32605000D01*
X67363750Y-32605000D01*
X67342309Y-32603947D01*
X67321074Y-32600797D01*
X67300250Y-32595581D01*
X67280038Y-32588349D01*
X67260632Y-32579170D01*
X67242219Y-32568134D01*
X67224976Y-32555346D01*
X67209070Y-32540930D01*
X67194654Y-32525024D01*
X67181866Y-32507781D01*
X67170830Y-32489368D01*
X67161651Y-32469962D01*
X67154419Y-32449750D01*
X67149203Y-32428926D01*
X67146053Y-32407691D01*
X67145000Y-32386250D01*
X67145000Y-31873750D01*
X67146053Y-31852309D01*
X67149203Y-31831074D01*
X67154419Y-31810250D01*
X67161651Y-31790038D01*
X67170830Y-31770632D01*
X67181866Y-31752219D01*
X67194654Y-31734976D01*
X67209070Y-31719070D01*
X67224976Y-31704654D01*
X67242219Y-31691866D01*
X67260632Y-31680830D01*
X67280038Y-31671651D01*
X67300250Y-31664419D01*
X67321074Y-31659203D01*
X67342309Y-31656053D01*
X67363750Y-31655000D01*
X67801250Y-31655000D01*
X67822691Y-31656053D01*
X67822691Y-31656053D01*
G37*
D20*
X67582500Y-32130000D03*
D11*
G36*
X69397691Y-31656053D02*
G01*
X69418926Y-31659203D01*
X69439750Y-31664419D01*
X69459962Y-31671651D01*
X69479368Y-31680830D01*
X69497781Y-31691866D01*
X69515024Y-31704654D01*
X69530930Y-31719070D01*
X69545346Y-31734976D01*
X69558134Y-31752219D01*
X69569170Y-31770632D01*
X69578349Y-31790038D01*
X69585581Y-31810250D01*
X69590797Y-31831074D01*
X69593947Y-31852309D01*
X69595000Y-31873750D01*
X69595000Y-32386250D01*
X69593947Y-32407691D01*
X69590797Y-32428926D01*
X69585581Y-32449750D01*
X69578349Y-32469962D01*
X69569170Y-32489368D01*
X69558134Y-32507781D01*
X69545346Y-32525024D01*
X69530930Y-32540930D01*
X69515024Y-32555346D01*
X69497781Y-32568134D01*
X69479368Y-32579170D01*
X69459962Y-32588349D01*
X69439750Y-32595581D01*
X69418926Y-32600797D01*
X69397691Y-32603947D01*
X69376250Y-32605000D01*
X68938750Y-32605000D01*
X68917309Y-32603947D01*
X68896074Y-32600797D01*
X68875250Y-32595581D01*
X68855038Y-32588349D01*
X68835632Y-32579170D01*
X68817219Y-32568134D01*
X68799976Y-32555346D01*
X68784070Y-32540930D01*
X68769654Y-32525024D01*
X68756866Y-32507781D01*
X68745830Y-32489368D01*
X68736651Y-32469962D01*
X68729419Y-32449750D01*
X68724203Y-32428926D01*
X68721053Y-32407691D01*
X68720000Y-32386250D01*
X68720000Y-31873750D01*
X68721053Y-31852309D01*
X68724203Y-31831074D01*
X68729419Y-31810250D01*
X68736651Y-31790038D01*
X68745830Y-31770632D01*
X68756866Y-31752219D01*
X68769654Y-31734976D01*
X68784070Y-31719070D01*
X68799976Y-31704654D01*
X68817219Y-31691866D01*
X68835632Y-31680830D01*
X68855038Y-31671651D01*
X68875250Y-31664419D01*
X68896074Y-31659203D01*
X68917309Y-31656053D01*
X68938750Y-31655000D01*
X69376250Y-31655000D01*
X69397691Y-31656053D01*
X69397691Y-31656053D01*
G37*
D20*
X69157500Y-32130000D03*
D11*
G36*
X63677691Y-31716053D02*
G01*
X63698926Y-31719203D01*
X63719750Y-31724419D01*
X63739962Y-31731651D01*
X63759368Y-31740830D01*
X63777781Y-31751866D01*
X63795024Y-31764654D01*
X63810930Y-31779070D01*
X63825346Y-31794976D01*
X63838134Y-31812219D01*
X63849170Y-31830632D01*
X63858349Y-31850038D01*
X63865581Y-31870250D01*
X63870797Y-31891074D01*
X63873947Y-31912309D01*
X63875000Y-31933750D01*
X63875000Y-32446250D01*
X63873947Y-32467691D01*
X63870797Y-32488926D01*
X63865581Y-32509750D01*
X63858349Y-32529962D01*
X63849170Y-32549368D01*
X63838134Y-32567781D01*
X63825346Y-32585024D01*
X63810930Y-32600930D01*
X63795024Y-32615346D01*
X63777781Y-32628134D01*
X63759368Y-32639170D01*
X63739962Y-32648349D01*
X63719750Y-32655581D01*
X63698926Y-32660797D01*
X63677691Y-32663947D01*
X63656250Y-32665000D01*
X63218750Y-32665000D01*
X63197309Y-32663947D01*
X63176074Y-32660797D01*
X63155250Y-32655581D01*
X63135038Y-32648349D01*
X63115632Y-32639170D01*
X63097219Y-32628134D01*
X63079976Y-32615346D01*
X63064070Y-32600930D01*
X63049654Y-32585024D01*
X63036866Y-32567781D01*
X63025830Y-32549368D01*
X63016651Y-32529962D01*
X63009419Y-32509750D01*
X63004203Y-32488926D01*
X63001053Y-32467691D01*
X63000000Y-32446250D01*
X63000000Y-31933750D01*
X63001053Y-31912309D01*
X63004203Y-31891074D01*
X63009419Y-31870250D01*
X63016651Y-31850038D01*
X63025830Y-31830632D01*
X63036866Y-31812219D01*
X63049654Y-31794976D01*
X63064070Y-31779070D01*
X63079976Y-31764654D01*
X63097219Y-31751866D01*
X63115632Y-31740830D01*
X63135038Y-31731651D01*
X63155250Y-31724419D01*
X63176074Y-31719203D01*
X63197309Y-31716053D01*
X63218750Y-31715000D01*
X63656250Y-31715000D01*
X63677691Y-31716053D01*
X63677691Y-31716053D01*
G37*
D20*
X63437500Y-32190000D03*
D11*
G36*
X62102691Y-31716053D02*
G01*
X62123926Y-31719203D01*
X62144750Y-31724419D01*
X62164962Y-31731651D01*
X62184368Y-31740830D01*
X62202781Y-31751866D01*
X62220024Y-31764654D01*
X62235930Y-31779070D01*
X62250346Y-31794976D01*
X62263134Y-31812219D01*
X62274170Y-31830632D01*
X62283349Y-31850038D01*
X62290581Y-31870250D01*
X62295797Y-31891074D01*
X62298947Y-31912309D01*
X62300000Y-31933750D01*
X62300000Y-32446250D01*
X62298947Y-32467691D01*
X62295797Y-32488926D01*
X62290581Y-32509750D01*
X62283349Y-32529962D01*
X62274170Y-32549368D01*
X62263134Y-32567781D01*
X62250346Y-32585024D01*
X62235930Y-32600930D01*
X62220024Y-32615346D01*
X62202781Y-32628134D01*
X62184368Y-32639170D01*
X62164962Y-32648349D01*
X62144750Y-32655581D01*
X62123926Y-32660797D01*
X62102691Y-32663947D01*
X62081250Y-32665000D01*
X61643750Y-32665000D01*
X61622309Y-32663947D01*
X61601074Y-32660797D01*
X61580250Y-32655581D01*
X61560038Y-32648349D01*
X61540632Y-32639170D01*
X61522219Y-32628134D01*
X61504976Y-32615346D01*
X61489070Y-32600930D01*
X61474654Y-32585024D01*
X61461866Y-32567781D01*
X61450830Y-32549368D01*
X61441651Y-32529962D01*
X61434419Y-32509750D01*
X61429203Y-32488926D01*
X61426053Y-32467691D01*
X61425000Y-32446250D01*
X61425000Y-31933750D01*
X61426053Y-31912309D01*
X61429203Y-31891074D01*
X61434419Y-31870250D01*
X61441651Y-31850038D01*
X61450830Y-31830632D01*
X61461866Y-31812219D01*
X61474654Y-31794976D01*
X61489070Y-31779070D01*
X61504976Y-31764654D01*
X61522219Y-31751866D01*
X61540632Y-31740830D01*
X61560038Y-31731651D01*
X61580250Y-31724419D01*
X61601074Y-31719203D01*
X61622309Y-31716053D01*
X61643750Y-31715000D01*
X62081250Y-31715000D01*
X62102691Y-31716053D01*
X62102691Y-31716053D01*
G37*
D20*
X61862500Y-32190000D03*
D11*
G36*
X73442691Y-31706053D02*
G01*
X73463926Y-31709203D01*
X73484750Y-31714419D01*
X73504962Y-31721651D01*
X73524368Y-31730830D01*
X73542781Y-31741866D01*
X73560024Y-31754654D01*
X73575930Y-31769070D01*
X73590346Y-31784976D01*
X73603134Y-31802219D01*
X73614170Y-31820632D01*
X73623349Y-31840038D01*
X73630581Y-31860250D01*
X73635797Y-31881074D01*
X73638947Y-31902309D01*
X73640000Y-31923750D01*
X73640000Y-32436250D01*
X73638947Y-32457691D01*
X73635797Y-32478926D01*
X73630581Y-32499750D01*
X73623349Y-32519962D01*
X73614170Y-32539368D01*
X73603134Y-32557781D01*
X73590346Y-32575024D01*
X73575930Y-32590930D01*
X73560024Y-32605346D01*
X73542781Y-32618134D01*
X73524368Y-32629170D01*
X73504962Y-32638349D01*
X73484750Y-32645581D01*
X73463926Y-32650797D01*
X73442691Y-32653947D01*
X73421250Y-32655000D01*
X72983750Y-32655000D01*
X72962309Y-32653947D01*
X72941074Y-32650797D01*
X72920250Y-32645581D01*
X72900038Y-32638349D01*
X72880632Y-32629170D01*
X72862219Y-32618134D01*
X72844976Y-32605346D01*
X72829070Y-32590930D01*
X72814654Y-32575024D01*
X72801866Y-32557781D01*
X72790830Y-32539368D01*
X72781651Y-32519962D01*
X72774419Y-32499750D01*
X72769203Y-32478926D01*
X72766053Y-32457691D01*
X72765000Y-32436250D01*
X72765000Y-31923750D01*
X72766053Y-31902309D01*
X72769203Y-31881074D01*
X72774419Y-31860250D01*
X72781651Y-31840038D01*
X72790830Y-31820632D01*
X72801866Y-31802219D01*
X72814654Y-31784976D01*
X72829070Y-31769070D01*
X72844976Y-31754654D01*
X72862219Y-31741866D01*
X72880632Y-31730830D01*
X72900038Y-31721651D01*
X72920250Y-31714419D01*
X72941074Y-31709203D01*
X72962309Y-31706053D01*
X72983750Y-31705000D01*
X73421250Y-31705000D01*
X73442691Y-31706053D01*
X73442691Y-31706053D01*
G37*
D20*
X73202500Y-32180000D03*
D11*
G36*
X75017691Y-31706053D02*
G01*
X75038926Y-31709203D01*
X75059750Y-31714419D01*
X75079962Y-31721651D01*
X75099368Y-31730830D01*
X75117781Y-31741866D01*
X75135024Y-31754654D01*
X75150930Y-31769070D01*
X75165346Y-31784976D01*
X75178134Y-31802219D01*
X75189170Y-31820632D01*
X75198349Y-31840038D01*
X75205581Y-31860250D01*
X75210797Y-31881074D01*
X75213947Y-31902309D01*
X75215000Y-31923750D01*
X75215000Y-32436250D01*
X75213947Y-32457691D01*
X75210797Y-32478926D01*
X75205581Y-32499750D01*
X75198349Y-32519962D01*
X75189170Y-32539368D01*
X75178134Y-32557781D01*
X75165346Y-32575024D01*
X75150930Y-32590930D01*
X75135024Y-32605346D01*
X75117781Y-32618134D01*
X75099368Y-32629170D01*
X75079962Y-32638349D01*
X75059750Y-32645581D01*
X75038926Y-32650797D01*
X75017691Y-32653947D01*
X74996250Y-32655000D01*
X74558750Y-32655000D01*
X74537309Y-32653947D01*
X74516074Y-32650797D01*
X74495250Y-32645581D01*
X74475038Y-32638349D01*
X74455632Y-32629170D01*
X74437219Y-32618134D01*
X74419976Y-32605346D01*
X74404070Y-32590930D01*
X74389654Y-32575024D01*
X74376866Y-32557781D01*
X74365830Y-32539368D01*
X74356651Y-32519962D01*
X74349419Y-32499750D01*
X74344203Y-32478926D01*
X74341053Y-32457691D01*
X74340000Y-32436250D01*
X74340000Y-31923750D01*
X74341053Y-31902309D01*
X74344203Y-31881074D01*
X74349419Y-31860250D01*
X74356651Y-31840038D01*
X74365830Y-31820632D01*
X74376866Y-31802219D01*
X74389654Y-31784976D01*
X74404070Y-31769070D01*
X74419976Y-31754654D01*
X74437219Y-31741866D01*
X74455632Y-31730830D01*
X74475038Y-31721651D01*
X74495250Y-31714419D01*
X74516074Y-31709203D01*
X74537309Y-31706053D01*
X74558750Y-31705000D01*
X74996250Y-31705000D01*
X75017691Y-31706053D01*
X75017691Y-31706053D01*
G37*
D20*
X74777500Y-32180000D03*
D11*
G36*
X36287691Y-40601053D02*
G01*
X36308926Y-40604203D01*
X36329750Y-40609419D01*
X36349962Y-40616651D01*
X36369368Y-40625830D01*
X36387781Y-40636866D01*
X36405024Y-40649654D01*
X36420930Y-40664070D01*
X36435346Y-40679976D01*
X36448134Y-40697219D01*
X36459170Y-40715632D01*
X36468349Y-40735038D01*
X36475581Y-40755250D01*
X36480797Y-40776074D01*
X36483947Y-40797309D01*
X36485000Y-40818750D01*
X36485000Y-41256250D01*
X36483947Y-41277691D01*
X36480797Y-41298926D01*
X36475581Y-41319750D01*
X36468349Y-41339962D01*
X36459170Y-41359368D01*
X36448134Y-41377781D01*
X36435346Y-41395024D01*
X36420930Y-41410930D01*
X36405024Y-41425346D01*
X36387781Y-41438134D01*
X36369368Y-41449170D01*
X36349962Y-41458349D01*
X36329750Y-41465581D01*
X36308926Y-41470797D01*
X36287691Y-41473947D01*
X36266250Y-41475000D01*
X35753750Y-41475000D01*
X35732309Y-41473947D01*
X35711074Y-41470797D01*
X35690250Y-41465581D01*
X35670038Y-41458349D01*
X35650632Y-41449170D01*
X35632219Y-41438134D01*
X35614976Y-41425346D01*
X35599070Y-41410930D01*
X35584654Y-41395024D01*
X35571866Y-41377781D01*
X35560830Y-41359368D01*
X35551651Y-41339962D01*
X35544419Y-41319750D01*
X35539203Y-41298926D01*
X35536053Y-41277691D01*
X35535000Y-41256250D01*
X35535000Y-40818750D01*
X35536053Y-40797309D01*
X35539203Y-40776074D01*
X35544419Y-40755250D01*
X35551651Y-40735038D01*
X35560830Y-40715632D01*
X35571866Y-40697219D01*
X35584654Y-40679976D01*
X35599070Y-40664070D01*
X35614976Y-40649654D01*
X35632219Y-40636866D01*
X35650632Y-40625830D01*
X35670038Y-40616651D01*
X35690250Y-40609419D01*
X35711074Y-40604203D01*
X35732309Y-40601053D01*
X35753750Y-40600000D01*
X36266250Y-40600000D01*
X36287691Y-40601053D01*
X36287691Y-40601053D01*
G37*
D20*
X36010000Y-41037500D03*
D11*
G36*
X36287691Y-39026053D02*
G01*
X36308926Y-39029203D01*
X36329750Y-39034419D01*
X36349962Y-39041651D01*
X36369368Y-39050830D01*
X36387781Y-39061866D01*
X36405024Y-39074654D01*
X36420930Y-39089070D01*
X36435346Y-39104976D01*
X36448134Y-39122219D01*
X36459170Y-39140632D01*
X36468349Y-39160038D01*
X36475581Y-39180250D01*
X36480797Y-39201074D01*
X36483947Y-39222309D01*
X36485000Y-39243750D01*
X36485000Y-39681250D01*
X36483947Y-39702691D01*
X36480797Y-39723926D01*
X36475581Y-39744750D01*
X36468349Y-39764962D01*
X36459170Y-39784368D01*
X36448134Y-39802781D01*
X36435346Y-39820024D01*
X36420930Y-39835930D01*
X36405024Y-39850346D01*
X36387781Y-39863134D01*
X36369368Y-39874170D01*
X36349962Y-39883349D01*
X36329750Y-39890581D01*
X36308926Y-39895797D01*
X36287691Y-39898947D01*
X36266250Y-39900000D01*
X35753750Y-39900000D01*
X35732309Y-39898947D01*
X35711074Y-39895797D01*
X35690250Y-39890581D01*
X35670038Y-39883349D01*
X35650632Y-39874170D01*
X35632219Y-39863134D01*
X35614976Y-39850346D01*
X35599070Y-39835930D01*
X35584654Y-39820024D01*
X35571866Y-39802781D01*
X35560830Y-39784368D01*
X35551651Y-39764962D01*
X35544419Y-39744750D01*
X35539203Y-39723926D01*
X35536053Y-39702691D01*
X35535000Y-39681250D01*
X35535000Y-39243750D01*
X35536053Y-39222309D01*
X35539203Y-39201074D01*
X35544419Y-39180250D01*
X35551651Y-39160038D01*
X35560830Y-39140632D01*
X35571866Y-39122219D01*
X35584654Y-39104976D01*
X35599070Y-39089070D01*
X35614976Y-39074654D01*
X35632219Y-39061866D01*
X35650632Y-39050830D01*
X35670038Y-39041651D01*
X35690250Y-39034419D01*
X35711074Y-39029203D01*
X35732309Y-39026053D01*
X35753750Y-39025000D01*
X36266250Y-39025000D01*
X36287691Y-39026053D01*
X36287691Y-39026053D01*
G37*
D20*
X36010000Y-39462500D03*
D11*
G36*
X36327691Y-35556053D02*
G01*
X36348926Y-35559203D01*
X36369750Y-35564419D01*
X36389962Y-35571651D01*
X36409368Y-35580830D01*
X36427781Y-35591866D01*
X36445024Y-35604654D01*
X36460930Y-35619070D01*
X36475346Y-35634976D01*
X36488134Y-35652219D01*
X36499170Y-35670632D01*
X36508349Y-35690038D01*
X36515581Y-35710250D01*
X36520797Y-35731074D01*
X36523947Y-35752309D01*
X36525000Y-35773750D01*
X36525000Y-36211250D01*
X36523947Y-36232691D01*
X36520797Y-36253926D01*
X36515581Y-36274750D01*
X36508349Y-36294962D01*
X36499170Y-36314368D01*
X36488134Y-36332781D01*
X36475346Y-36350024D01*
X36460930Y-36365930D01*
X36445024Y-36380346D01*
X36427781Y-36393134D01*
X36409368Y-36404170D01*
X36389962Y-36413349D01*
X36369750Y-36420581D01*
X36348926Y-36425797D01*
X36327691Y-36428947D01*
X36306250Y-36430000D01*
X35793750Y-36430000D01*
X35772309Y-36428947D01*
X35751074Y-36425797D01*
X35730250Y-36420581D01*
X35710038Y-36413349D01*
X35690632Y-36404170D01*
X35672219Y-36393134D01*
X35654976Y-36380346D01*
X35639070Y-36365930D01*
X35624654Y-36350024D01*
X35611866Y-36332781D01*
X35600830Y-36314368D01*
X35591651Y-36294962D01*
X35584419Y-36274750D01*
X35579203Y-36253926D01*
X35576053Y-36232691D01*
X35575000Y-36211250D01*
X35575000Y-35773750D01*
X35576053Y-35752309D01*
X35579203Y-35731074D01*
X35584419Y-35710250D01*
X35591651Y-35690038D01*
X35600830Y-35670632D01*
X35611866Y-35652219D01*
X35624654Y-35634976D01*
X35639070Y-35619070D01*
X35654976Y-35604654D01*
X35672219Y-35591866D01*
X35690632Y-35580830D01*
X35710038Y-35571651D01*
X35730250Y-35564419D01*
X35751074Y-35559203D01*
X35772309Y-35556053D01*
X35793750Y-35555000D01*
X36306250Y-35555000D01*
X36327691Y-35556053D01*
X36327691Y-35556053D01*
G37*
D20*
X36050000Y-35992500D03*
D11*
G36*
X36327691Y-37131053D02*
G01*
X36348926Y-37134203D01*
X36369750Y-37139419D01*
X36389962Y-37146651D01*
X36409368Y-37155830D01*
X36427781Y-37166866D01*
X36445024Y-37179654D01*
X36460930Y-37194070D01*
X36475346Y-37209976D01*
X36488134Y-37227219D01*
X36499170Y-37245632D01*
X36508349Y-37265038D01*
X36515581Y-37285250D01*
X36520797Y-37306074D01*
X36523947Y-37327309D01*
X36525000Y-37348750D01*
X36525000Y-37786250D01*
X36523947Y-37807691D01*
X36520797Y-37828926D01*
X36515581Y-37849750D01*
X36508349Y-37869962D01*
X36499170Y-37889368D01*
X36488134Y-37907781D01*
X36475346Y-37925024D01*
X36460930Y-37940930D01*
X36445024Y-37955346D01*
X36427781Y-37968134D01*
X36409368Y-37979170D01*
X36389962Y-37988349D01*
X36369750Y-37995581D01*
X36348926Y-38000797D01*
X36327691Y-38003947D01*
X36306250Y-38005000D01*
X35793750Y-38005000D01*
X35772309Y-38003947D01*
X35751074Y-38000797D01*
X35730250Y-37995581D01*
X35710038Y-37988349D01*
X35690632Y-37979170D01*
X35672219Y-37968134D01*
X35654976Y-37955346D01*
X35639070Y-37940930D01*
X35624654Y-37925024D01*
X35611866Y-37907781D01*
X35600830Y-37889368D01*
X35591651Y-37869962D01*
X35584419Y-37849750D01*
X35579203Y-37828926D01*
X35576053Y-37807691D01*
X35575000Y-37786250D01*
X35575000Y-37348750D01*
X35576053Y-37327309D01*
X35579203Y-37306074D01*
X35584419Y-37285250D01*
X35591651Y-37265038D01*
X35600830Y-37245632D01*
X35611866Y-37227219D01*
X35624654Y-37209976D01*
X35639070Y-37194070D01*
X35654976Y-37179654D01*
X35672219Y-37166866D01*
X35690632Y-37155830D01*
X35710038Y-37146651D01*
X35730250Y-37139419D01*
X35751074Y-37134203D01*
X35772309Y-37131053D01*
X35793750Y-37130000D01*
X36306250Y-37130000D01*
X36327691Y-37131053D01*
X36327691Y-37131053D01*
G37*
D20*
X36050000Y-37567500D03*
D11*
G36*
X41612691Y-56216053D02*
G01*
X41633926Y-56219203D01*
X41654750Y-56224419D01*
X41674962Y-56231651D01*
X41694368Y-56240830D01*
X41712781Y-56251866D01*
X41730024Y-56264654D01*
X41745930Y-56279070D01*
X41760346Y-56294976D01*
X41773134Y-56312219D01*
X41784170Y-56330632D01*
X41793349Y-56350038D01*
X41800581Y-56370250D01*
X41805797Y-56391074D01*
X41808947Y-56412309D01*
X41810000Y-56433750D01*
X41810000Y-56946250D01*
X41808947Y-56967691D01*
X41805797Y-56988926D01*
X41800581Y-57009750D01*
X41793349Y-57029962D01*
X41784170Y-57049368D01*
X41773134Y-57067781D01*
X41760346Y-57085024D01*
X41745930Y-57100930D01*
X41730024Y-57115346D01*
X41712781Y-57128134D01*
X41694368Y-57139170D01*
X41674962Y-57148349D01*
X41654750Y-57155581D01*
X41633926Y-57160797D01*
X41612691Y-57163947D01*
X41591250Y-57165000D01*
X41153750Y-57165000D01*
X41132309Y-57163947D01*
X41111074Y-57160797D01*
X41090250Y-57155581D01*
X41070038Y-57148349D01*
X41050632Y-57139170D01*
X41032219Y-57128134D01*
X41014976Y-57115346D01*
X40999070Y-57100930D01*
X40984654Y-57085024D01*
X40971866Y-57067781D01*
X40960830Y-57049368D01*
X40951651Y-57029962D01*
X40944419Y-57009750D01*
X40939203Y-56988926D01*
X40936053Y-56967691D01*
X40935000Y-56946250D01*
X40935000Y-56433750D01*
X40936053Y-56412309D01*
X40939203Y-56391074D01*
X40944419Y-56370250D01*
X40951651Y-56350038D01*
X40960830Y-56330632D01*
X40971866Y-56312219D01*
X40984654Y-56294976D01*
X40999070Y-56279070D01*
X41014976Y-56264654D01*
X41032219Y-56251866D01*
X41050632Y-56240830D01*
X41070038Y-56231651D01*
X41090250Y-56224419D01*
X41111074Y-56219203D01*
X41132309Y-56216053D01*
X41153750Y-56215000D01*
X41591250Y-56215000D01*
X41612691Y-56216053D01*
X41612691Y-56216053D01*
G37*
D20*
X41372500Y-56690000D03*
D11*
G36*
X43187691Y-56216053D02*
G01*
X43208926Y-56219203D01*
X43229750Y-56224419D01*
X43249962Y-56231651D01*
X43269368Y-56240830D01*
X43287781Y-56251866D01*
X43305024Y-56264654D01*
X43320930Y-56279070D01*
X43335346Y-56294976D01*
X43348134Y-56312219D01*
X43359170Y-56330632D01*
X43368349Y-56350038D01*
X43375581Y-56370250D01*
X43380797Y-56391074D01*
X43383947Y-56412309D01*
X43385000Y-56433750D01*
X43385000Y-56946250D01*
X43383947Y-56967691D01*
X43380797Y-56988926D01*
X43375581Y-57009750D01*
X43368349Y-57029962D01*
X43359170Y-57049368D01*
X43348134Y-57067781D01*
X43335346Y-57085024D01*
X43320930Y-57100930D01*
X43305024Y-57115346D01*
X43287781Y-57128134D01*
X43269368Y-57139170D01*
X43249962Y-57148349D01*
X43229750Y-57155581D01*
X43208926Y-57160797D01*
X43187691Y-57163947D01*
X43166250Y-57165000D01*
X42728750Y-57165000D01*
X42707309Y-57163947D01*
X42686074Y-57160797D01*
X42665250Y-57155581D01*
X42645038Y-57148349D01*
X42625632Y-57139170D01*
X42607219Y-57128134D01*
X42589976Y-57115346D01*
X42574070Y-57100930D01*
X42559654Y-57085024D01*
X42546866Y-57067781D01*
X42535830Y-57049368D01*
X42526651Y-57029962D01*
X42519419Y-57009750D01*
X42514203Y-56988926D01*
X42511053Y-56967691D01*
X42510000Y-56946250D01*
X42510000Y-56433750D01*
X42511053Y-56412309D01*
X42514203Y-56391074D01*
X42519419Y-56370250D01*
X42526651Y-56350038D01*
X42535830Y-56330632D01*
X42546866Y-56312219D01*
X42559654Y-56294976D01*
X42574070Y-56279070D01*
X42589976Y-56264654D01*
X42607219Y-56251866D01*
X42625632Y-56240830D01*
X42645038Y-56231651D01*
X42665250Y-56224419D01*
X42686074Y-56219203D01*
X42707309Y-56216053D01*
X42728750Y-56215000D01*
X43166250Y-56215000D01*
X43187691Y-56216053D01*
X43187691Y-56216053D01*
G37*
D20*
X42947500Y-56690000D03*
D11*
G36*
X36317691Y-32036053D02*
G01*
X36338926Y-32039203D01*
X36359750Y-32044419D01*
X36379962Y-32051651D01*
X36399368Y-32060830D01*
X36417781Y-32071866D01*
X36435024Y-32084654D01*
X36450930Y-32099070D01*
X36465346Y-32114976D01*
X36478134Y-32132219D01*
X36489170Y-32150632D01*
X36498349Y-32170038D01*
X36505581Y-32190250D01*
X36510797Y-32211074D01*
X36513947Y-32232309D01*
X36515000Y-32253750D01*
X36515000Y-32691250D01*
X36513947Y-32712691D01*
X36510797Y-32733926D01*
X36505581Y-32754750D01*
X36498349Y-32774962D01*
X36489170Y-32794368D01*
X36478134Y-32812781D01*
X36465346Y-32830024D01*
X36450930Y-32845930D01*
X36435024Y-32860346D01*
X36417781Y-32873134D01*
X36399368Y-32884170D01*
X36379962Y-32893349D01*
X36359750Y-32900581D01*
X36338926Y-32905797D01*
X36317691Y-32908947D01*
X36296250Y-32910000D01*
X35783750Y-32910000D01*
X35762309Y-32908947D01*
X35741074Y-32905797D01*
X35720250Y-32900581D01*
X35700038Y-32893349D01*
X35680632Y-32884170D01*
X35662219Y-32873134D01*
X35644976Y-32860346D01*
X35629070Y-32845930D01*
X35614654Y-32830024D01*
X35601866Y-32812781D01*
X35590830Y-32794368D01*
X35581651Y-32774962D01*
X35574419Y-32754750D01*
X35569203Y-32733926D01*
X35566053Y-32712691D01*
X35565000Y-32691250D01*
X35565000Y-32253750D01*
X35566053Y-32232309D01*
X35569203Y-32211074D01*
X35574419Y-32190250D01*
X35581651Y-32170038D01*
X35590830Y-32150632D01*
X35601866Y-32132219D01*
X35614654Y-32114976D01*
X35629070Y-32099070D01*
X35644976Y-32084654D01*
X35662219Y-32071866D01*
X35680632Y-32060830D01*
X35700038Y-32051651D01*
X35720250Y-32044419D01*
X35741074Y-32039203D01*
X35762309Y-32036053D01*
X35783750Y-32035000D01*
X36296250Y-32035000D01*
X36317691Y-32036053D01*
X36317691Y-32036053D01*
G37*
D20*
X36040000Y-32472500D03*
D11*
G36*
X36317691Y-33611053D02*
G01*
X36338926Y-33614203D01*
X36359750Y-33619419D01*
X36379962Y-33626651D01*
X36399368Y-33635830D01*
X36417781Y-33646866D01*
X36435024Y-33659654D01*
X36450930Y-33674070D01*
X36465346Y-33689976D01*
X36478134Y-33707219D01*
X36489170Y-33725632D01*
X36498349Y-33745038D01*
X36505581Y-33765250D01*
X36510797Y-33786074D01*
X36513947Y-33807309D01*
X36515000Y-33828750D01*
X36515000Y-34266250D01*
X36513947Y-34287691D01*
X36510797Y-34308926D01*
X36505581Y-34329750D01*
X36498349Y-34349962D01*
X36489170Y-34369368D01*
X36478134Y-34387781D01*
X36465346Y-34405024D01*
X36450930Y-34420930D01*
X36435024Y-34435346D01*
X36417781Y-34448134D01*
X36399368Y-34459170D01*
X36379962Y-34468349D01*
X36359750Y-34475581D01*
X36338926Y-34480797D01*
X36317691Y-34483947D01*
X36296250Y-34485000D01*
X35783750Y-34485000D01*
X35762309Y-34483947D01*
X35741074Y-34480797D01*
X35720250Y-34475581D01*
X35700038Y-34468349D01*
X35680632Y-34459170D01*
X35662219Y-34448134D01*
X35644976Y-34435346D01*
X35629070Y-34420930D01*
X35614654Y-34405024D01*
X35601866Y-34387781D01*
X35590830Y-34369368D01*
X35581651Y-34349962D01*
X35574419Y-34329750D01*
X35569203Y-34308926D01*
X35566053Y-34287691D01*
X35565000Y-34266250D01*
X35565000Y-33828750D01*
X35566053Y-33807309D01*
X35569203Y-33786074D01*
X35574419Y-33765250D01*
X35581651Y-33745038D01*
X35590830Y-33725632D01*
X35601866Y-33707219D01*
X35614654Y-33689976D01*
X35629070Y-33674070D01*
X35644976Y-33659654D01*
X35662219Y-33646866D01*
X35680632Y-33635830D01*
X35700038Y-33626651D01*
X35720250Y-33619419D01*
X35741074Y-33614203D01*
X35762309Y-33611053D01*
X35783750Y-33610000D01*
X36296250Y-33610000D01*
X36317691Y-33611053D01*
X36317691Y-33611053D01*
G37*
D20*
X36040000Y-34047500D03*
D11*
G36*
X55760191Y-40766053D02*
G01*
X55781426Y-40769203D01*
X55802250Y-40774419D01*
X55822462Y-40781651D01*
X55841868Y-40790830D01*
X55860281Y-40801866D01*
X55877524Y-40814654D01*
X55893430Y-40829070D01*
X55907846Y-40844976D01*
X55920634Y-40862219D01*
X55931670Y-40880632D01*
X55940849Y-40900038D01*
X55948081Y-40920250D01*
X55953297Y-40941074D01*
X55956447Y-40962309D01*
X55957500Y-40983750D01*
X55957500Y-41496250D01*
X55956447Y-41517691D01*
X55953297Y-41538926D01*
X55948081Y-41559750D01*
X55940849Y-41579962D01*
X55931670Y-41599368D01*
X55920634Y-41617781D01*
X55907846Y-41635024D01*
X55893430Y-41650930D01*
X55877524Y-41665346D01*
X55860281Y-41678134D01*
X55841868Y-41689170D01*
X55822462Y-41698349D01*
X55802250Y-41705581D01*
X55781426Y-41710797D01*
X55760191Y-41713947D01*
X55738750Y-41715000D01*
X55301250Y-41715000D01*
X55279809Y-41713947D01*
X55258574Y-41710797D01*
X55237750Y-41705581D01*
X55217538Y-41698349D01*
X55198132Y-41689170D01*
X55179719Y-41678134D01*
X55162476Y-41665346D01*
X55146570Y-41650930D01*
X55132154Y-41635024D01*
X55119366Y-41617781D01*
X55108330Y-41599368D01*
X55099151Y-41579962D01*
X55091919Y-41559750D01*
X55086703Y-41538926D01*
X55083553Y-41517691D01*
X55082500Y-41496250D01*
X55082500Y-40983750D01*
X55083553Y-40962309D01*
X55086703Y-40941074D01*
X55091919Y-40920250D01*
X55099151Y-40900038D01*
X55108330Y-40880632D01*
X55119366Y-40862219D01*
X55132154Y-40844976D01*
X55146570Y-40829070D01*
X55162476Y-40814654D01*
X55179719Y-40801866D01*
X55198132Y-40790830D01*
X55217538Y-40781651D01*
X55237750Y-40774419D01*
X55258574Y-40769203D01*
X55279809Y-40766053D01*
X55301250Y-40765000D01*
X55738750Y-40765000D01*
X55760191Y-40766053D01*
X55760191Y-40766053D01*
G37*
D20*
X55520000Y-41240000D03*
D11*
G36*
X54185191Y-40766053D02*
G01*
X54206426Y-40769203D01*
X54227250Y-40774419D01*
X54247462Y-40781651D01*
X54266868Y-40790830D01*
X54285281Y-40801866D01*
X54302524Y-40814654D01*
X54318430Y-40829070D01*
X54332846Y-40844976D01*
X54345634Y-40862219D01*
X54356670Y-40880632D01*
X54365849Y-40900038D01*
X54373081Y-40920250D01*
X54378297Y-40941074D01*
X54381447Y-40962309D01*
X54382500Y-40983750D01*
X54382500Y-41496250D01*
X54381447Y-41517691D01*
X54378297Y-41538926D01*
X54373081Y-41559750D01*
X54365849Y-41579962D01*
X54356670Y-41599368D01*
X54345634Y-41617781D01*
X54332846Y-41635024D01*
X54318430Y-41650930D01*
X54302524Y-41665346D01*
X54285281Y-41678134D01*
X54266868Y-41689170D01*
X54247462Y-41698349D01*
X54227250Y-41705581D01*
X54206426Y-41710797D01*
X54185191Y-41713947D01*
X54163750Y-41715000D01*
X53726250Y-41715000D01*
X53704809Y-41713947D01*
X53683574Y-41710797D01*
X53662750Y-41705581D01*
X53642538Y-41698349D01*
X53623132Y-41689170D01*
X53604719Y-41678134D01*
X53587476Y-41665346D01*
X53571570Y-41650930D01*
X53557154Y-41635024D01*
X53544366Y-41617781D01*
X53533330Y-41599368D01*
X53524151Y-41579962D01*
X53516919Y-41559750D01*
X53511703Y-41538926D01*
X53508553Y-41517691D01*
X53507500Y-41496250D01*
X53507500Y-40983750D01*
X53508553Y-40962309D01*
X53511703Y-40941074D01*
X53516919Y-40920250D01*
X53524151Y-40900038D01*
X53533330Y-40880632D01*
X53544366Y-40862219D01*
X53557154Y-40844976D01*
X53571570Y-40829070D01*
X53587476Y-40814654D01*
X53604719Y-40801866D01*
X53623132Y-40790830D01*
X53642538Y-40781651D01*
X53662750Y-40774419D01*
X53683574Y-40769203D01*
X53704809Y-40766053D01*
X53726250Y-40765000D01*
X54163750Y-40765000D01*
X54185191Y-40766053D01*
X54185191Y-40766053D01*
G37*
D20*
X53945000Y-41240000D03*
D11*
G36*
X41237691Y-61296053D02*
G01*
X41258926Y-61299203D01*
X41279750Y-61304419D01*
X41299962Y-61311651D01*
X41319368Y-61320830D01*
X41337781Y-61331866D01*
X41355024Y-61344654D01*
X41370930Y-61359070D01*
X41385346Y-61374976D01*
X41398134Y-61392219D01*
X41409170Y-61410632D01*
X41418349Y-61430038D01*
X41425581Y-61450250D01*
X41430797Y-61471074D01*
X41433947Y-61492309D01*
X41435000Y-61513750D01*
X41435000Y-61951250D01*
X41433947Y-61972691D01*
X41430797Y-61993926D01*
X41425581Y-62014750D01*
X41418349Y-62034962D01*
X41409170Y-62054368D01*
X41398134Y-62072781D01*
X41385346Y-62090024D01*
X41370930Y-62105930D01*
X41355024Y-62120346D01*
X41337781Y-62133134D01*
X41319368Y-62144170D01*
X41299962Y-62153349D01*
X41279750Y-62160581D01*
X41258926Y-62165797D01*
X41237691Y-62168947D01*
X41216250Y-62170000D01*
X40703750Y-62170000D01*
X40682309Y-62168947D01*
X40661074Y-62165797D01*
X40640250Y-62160581D01*
X40620038Y-62153349D01*
X40600632Y-62144170D01*
X40582219Y-62133134D01*
X40564976Y-62120346D01*
X40549070Y-62105930D01*
X40534654Y-62090024D01*
X40521866Y-62072781D01*
X40510830Y-62054368D01*
X40501651Y-62034962D01*
X40494419Y-62014750D01*
X40489203Y-61993926D01*
X40486053Y-61972691D01*
X40485000Y-61951250D01*
X40485000Y-61513750D01*
X40486053Y-61492309D01*
X40489203Y-61471074D01*
X40494419Y-61450250D01*
X40501651Y-61430038D01*
X40510830Y-61410632D01*
X40521866Y-61392219D01*
X40534654Y-61374976D01*
X40549070Y-61359070D01*
X40564976Y-61344654D01*
X40582219Y-61331866D01*
X40600632Y-61320830D01*
X40620038Y-61311651D01*
X40640250Y-61304419D01*
X40661074Y-61299203D01*
X40682309Y-61296053D01*
X40703750Y-61295000D01*
X41216250Y-61295000D01*
X41237691Y-61296053D01*
X41237691Y-61296053D01*
G37*
D20*
X40960000Y-61732500D03*
D11*
G36*
X41237691Y-62871053D02*
G01*
X41258926Y-62874203D01*
X41279750Y-62879419D01*
X41299962Y-62886651D01*
X41319368Y-62895830D01*
X41337781Y-62906866D01*
X41355024Y-62919654D01*
X41370930Y-62934070D01*
X41385346Y-62949976D01*
X41398134Y-62967219D01*
X41409170Y-62985632D01*
X41418349Y-63005038D01*
X41425581Y-63025250D01*
X41430797Y-63046074D01*
X41433947Y-63067309D01*
X41435000Y-63088750D01*
X41435000Y-63526250D01*
X41433947Y-63547691D01*
X41430797Y-63568926D01*
X41425581Y-63589750D01*
X41418349Y-63609962D01*
X41409170Y-63629368D01*
X41398134Y-63647781D01*
X41385346Y-63665024D01*
X41370930Y-63680930D01*
X41355024Y-63695346D01*
X41337781Y-63708134D01*
X41319368Y-63719170D01*
X41299962Y-63728349D01*
X41279750Y-63735581D01*
X41258926Y-63740797D01*
X41237691Y-63743947D01*
X41216250Y-63745000D01*
X40703750Y-63745000D01*
X40682309Y-63743947D01*
X40661074Y-63740797D01*
X40640250Y-63735581D01*
X40620038Y-63728349D01*
X40600632Y-63719170D01*
X40582219Y-63708134D01*
X40564976Y-63695346D01*
X40549070Y-63680930D01*
X40534654Y-63665024D01*
X40521866Y-63647781D01*
X40510830Y-63629368D01*
X40501651Y-63609962D01*
X40494419Y-63589750D01*
X40489203Y-63568926D01*
X40486053Y-63547691D01*
X40485000Y-63526250D01*
X40485000Y-63088750D01*
X40486053Y-63067309D01*
X40489203Y-63046074D01*
X40494419Y-63025250D01*
X40501651Y-63005038D01*
X40510830Y-62985632D01*
X40521866Y-62967219D01*
X40534654Y-62949976D01*
X40549070Y-62934070D01*
X40564976Y-62919654D01*
X40582219Y-62906866D01*
X40600632Y-62895830D01*
X40620038Y-62886651D01*
X40640250Y-62879419D01*
X40661074Y-62874203D01*
X40682309Y-62871053D01*
X40703750Y-62870000D01*
X41216250Y-62870000D01*
X41237691Y-62871053D01*
X41237691Y-62871053D01*
G37*
D20*
X40960000Y-63307500D03*
D11*
G36*
X42787691Y-61316053D02*
G01*
X42808926Y-61319203D01*
X42829750Y-61324419D01*
X42849962Y-61331651D01*
X42869368Y-61340830D01*
X42887781Y-61351866D01*
X42905024Y-61364654D01*
X42920930Y-61379070D01*
X42935346Y-61394976D01*
X42948134Y-61412219D01*
X42959170Y-61430632D01*
X42968349Y-61450038D01*
X42975581Y-61470250D01*
X42980797Y-61491074D01*
X42983947Y-61512309D01*
X42985000Y-61533750D01*
X42985000Y-61971250D01*
X42983947Y-61992691D01*
X42980797Y-62013926D01*
X42975581Y-62034750D01*
X42968349Y-62054962D01*
X42959170Y-62074368D01*
X42948134Y-62092781D01*
X42935346Y-62110024D01*
X42920930Y-62125930D01*
X42905024Y-62140346D01*
X42887781Y-62153134D01*
X42869368Y-62164170D01*
X42849962Y-62173349D01*
X42829750Y-62180581D01*
X42808926Y-62185797D01*
X42787691Y-62188947D01*
X42766250Y-62190000D01*
X42253750Y-62190000D01*
X42232309Y-62188947D01*
X42211074Y-62185797D01*
X42190250Y-62180581D01*
X42170038Y-62173349D01*
X42150632Y-62164170D01*
X42132219Y-62153134D01*
X42114976Y-62140346D01*
X42099070Y-62125930D01*
X42084654Y-62110024D01*
X42071866Y-62092781D01*
X42060830Y-62074368D01*
X42051651Y-62054962D01*
X42044419Y-62034750D01*
X42039203Y-62013926D01*
X42036053Y-61992691D01*
X42035000Y-61971250D01*
X42035000Y-61533750D01*
X42036053Y-61512309D01*
X42039203Y-61491074D01*
X42044419Y-61470250D01*
X42051651Y-61450038D01*
X42060830Y-61430632D01*
X42071866Y-61412219D01*
X42084654Y-61394976D01*
X42099070Y-61379070D01*
X42114976Y-61364654D01*
X42132219Y-61351866D01*
X42150632Y-61340830D01*
X42170038Y-61331651D01*
X42190250Y-61324419D01*
X42211074Y-61319203D01*
X42232309Y-61316053D01*
X42253750Y-61315000D01*
X42766250Y-61315000D01*
X42787691Y-61316053D01*
X42787691Y-61316053D01*
G37*
D20*
X42510000Y-61752500D03*
D11*
G36*
X42787691Y-62891053D02*
G01*
X42808926Y-62894203D01*
X42829750Y-62899419D01*
X42849962Y-62906651D01*
X42869368Y-62915830D01*
X42887781Y-62926866D01*
X42905024Y-62939654D01*
X42920930Y-62954070D01*
X42935346Y-62969976D01*
X42948134Y-62987219D01*
X42959170Y-63005632D01*
X42968349Y-63025038D01*
X42975581Y-63045250D01*
X42980797Y-63066074D01*
X42983947Y-63087309D01*
X42985000Y-63108750D01*
X42985000Y-63546250D01*
X42983947Y-63567691D01*
X42980797Y-63588926D01*
X42975581Y-63609750D01*
X42968349Y-63629962D01*
X42959170Y-63649368D01*
X42948134Y-63667781D01*
X42935346Y-63685024D01*
X42920930Y-63700930D01*
X42905024Y-63715346D01*
X42887781Y-63728134D01*
X42869368Y-63739170D01*
X42849962Y-63748349D01*
X42829750Y-63755581D01*
X42808926Y-63760797D01*
X42787691Y-63763947D01*
X42766250Y-63765000D01*
X42253750Y-63765000D01*
X42232309Y-63763947D01*
X42211074Y-63760797D01*
X42190250Y-63755581D01*
X42170038Y-63748349D01*
X42150632Y-63739170D01*
X42132219Y-63728134D01*
X42114976Y-63715346D01*
X42099070Y-63700930D01*
X42084654Y-63685024D01*
X42071866Y-63667781D01*
X42060830Y-63649368D01*
X42051651Y-63629962D01*
X42044419Y-63609750D01*
X42039203Y-63588926D01*
X42036053Y-63567691D01*
X42035000Y-63546250D01*
X42035000Y-63108750D01*
X42036053Y-63087309D01*
X42039203Y-63066074D01*
X42044419Y-63045250D01*
X42051651Y-63025038D01*
X42060830Y-63005632D01*
X42071866Y-62987219D01*
X42084654Y-62969976D01*
X42099070Y-62954070D01*
X42114976Y-62939654D01*
X42132219Y-62926866D01*
X42150632Y-62915830D01*
X42170038Y-62906651D01*
X42190250Y-62899419D01*
X42211074Y-62894203D01*
X42232309Y-62891053D01*
X42253750Y-62890000D01*
X42766250Y-62890000D01*
X42787691Y-62891053D01*
X42787691Y-62891053D01*
G37*
D20*
X42510000Y-63327500D03*
D31*
X67040000Y-48280000D03*
X72840000Y-48280000D03*
X67040000Y-44280000D03*
X72840000Y-44280000D03*
D32*
X44660000Y-80930000D03*
X44660000Y-88530000D03*
X42160000Y-80930000D03*
X42160000Y-88530000D03*
X39660000Y-80930000D03*
X39660000Y-88530000D03*
D11*
G36*
X61747839Y-52855999D02*
G01*
X61767981Y-52858987D01*
X61787734Y-52863935D01*
X61806907Y-52870795D01*
X61825315Y-52879501D01*
X61842781Y-52889970D01*
X61859137Y-52902100D01*
X61874225Y-52915775D01*
X61887900Y-52930863D01*
X61900030Y-52947219D01*
X61910499Y-52964685D01*
X61919205Y-52983093D01*
X61926065Y-53002266D01*
X61931013Y-53022019D01*
X61934001Y-53042161D01*
X61935000Y-53062500D01*
X61935000Y-53477500D01*
X61934001Y-53497839D01*
X61931013Y-53517981D01*
X61926065Y-53537734D01*
X61919205Y-53556907D01*
X61910499Y-53575315D01*
X61900030Y-53592781D01*
X61887900Y-53609137D01*
X61874225Y-53624225D01*
X61859137Y-53637900D01*
X61842781Y-53650030D01*
X61825315Y-53660499D01*
X61806907Y-53669205D01*
X61787734Y-53676065D01*
X61767981Y-53681013D01*
X61747839Y-53684001D01*
X61727500Y-53685000D01*
X61312500Y-53685000D01*
X61292161Y-53684001D01*
X61272019Y-53681013D01*
X61252266Y-53676065D01*
X61233093Y-53669205D01*
X61214685Y-53660499D01*
X61197219Y-53650030D01*
X61180863Y-53637900D01*
X61165775Y-53624225D01*
X61152100Y-53609137D01*
X61139970Y-53592781D01*
X61129501Y-53575315D01*
X61120795Y-53556907D01*
X61113935Y-53537734D01*
X61108987Y-53517981D01*
X61105999Y-53497839D01*
X61105000Y-53477500D01*
X61105000Y-53062500D01*
X61105999Y-53042161D01*
X61108987Y-53022019D01*
X61113935Y-53002266D01*
X61120795Y-52983093D01*
X61129501Y-52964685D01*
X61139970Y-52947219D01*
X61152100Y-52930863D01*
X61165775Y-52915775D01*
X61180863Y-52902100D01*
X61197219Y-52889970D01*
X61214685Y-52879501D01*
X61233093Y-52870795D01*
X61252266Y-52863935D01*
X61272019Y-52858987D01*
X61292161Y-52855999D01*
X61312500Y-52855000D01*
X61727500Y-52855000D01*
X61747839Y-52855999D01*
X61747839Y-52855999D01*
G37*
D33*
X61520000Y-53270000D03*
D11*
G36*
X60717839Y-52855999D02*
G01*
X60737981Y-52858987D01*
X60757734Y-52863935D01*
X60776907Y-52870795D01*
X60795315Y-52879501D01*
X60812781Y-52889970D01*
X60829137Y-52902100D01*
X60844225Y-52915775D01*
X60857900Y-52930863D01*
X60870030Y-52947219D01*
X60880499Y-52964685D01*
X60889205Y-52983093D01*
X60896065Y-53002266D01*
X60901013Y-53022019D01*
X60904001Y-53042161D01*
X60905000Y-53062500D01*
X60905000Y-53477500D01*
X60904001Y-53497839D01*
X60901013Y-53517981D01*
X60896065Y-53537734D01*
X60889205Y-53556907D01*
X60880499Y-53575315D01*
X60870030Y-53592781D01*
X60857900Y-53609137D01*
X60844225Y-53624225D01*
X60829137Y-53637900D01*
X60812781Y-53650030D01*
X60795315Y-53660499D01*
X60776907Y-53669205D01*
X60757734Y-53676065D01*
X60737981Y-53681013D01*
X60717839Y-53684001D01*
X60697500Y-53685000D01*
X60282500Y-53685000D01*
X60262161Y-53684001D01*
X60242019Y-53681013D01*
X60222266Y-53676065D01*
X60203093Y-53669205D01*
X60184685Y-53660499D01*
X60167219Y-53650030D01*
X60150863Y-53637900D01*
X60135775Y-53624225D01*
X60122100Y-53609137D01*
X60109970Y-53592781D01*
X60099501Y-53575315D01*
X60090795Y-53556907D01*
X60083935Y-53537734D01*
X60078987Y-53517981D01*
X60075999Y-53497839D01*
X60075000Y-53477500D01*
X60075000Y-53062500D01*
X60075999Y-53042161D01*
X60078987Y-53022019D01*
X60083935Y-53002266D01*
X60090795Y-52983093D01*
X60099501Y-52964685D01*
X60109970Y-52947219D01*
X60122100Y-52930863D01*
X60135775Y-52915775D01*
X60150863Y-52902100D01*
X60167219Y-52889970D01*
X60184685Y-52879501D01*
X60203093Y-52870795D01*
X60222266Y-52863935D01*
X60242019Y-52858987D01*
X60262161Y-52855999D01*
X60282500Y-52855000D01*
X60697500Y-52855000D01*
X60717839Y-52855999D01*
X60717839Y-52855999D01*
G37*
D33*
X60490000Y-53270000D03*
D11*
G36*
X59687839Y-52855999D02*
G01*
X59707981Y-52858987D01*
X59727734Y-52863935D01*
X59746907Y-52870795D01*
X59765315Y-52879501D01*
X59782781Y-52889970D01*
X59799137Y-52902100D01*
X59814225Y-52915775D01*
X59827900Y-52930863D01*
X59840030Y-52947219D01*
X59850499Y-52964685D01*
X59859205Y-52983093D01*
X59866065Y-53002266D01*
X59871013Y-53022019D01*
X59874001Y-53042161D01*
X59875000Y-53062500D01*
X59875000Y-53477500D01*
X59874001Y-53497839D01*
X59871013Y-53517981D01*
X59866065Y-53537734D01*
X59859205Y-53556907D01*
X59850499Y-53575315D01*
X59840030Y-53592781D01*
X59827900Y-53609137D01*
X59814225Y-53624225D01*
X59799137Y-53637900D01*
X59782781Y-53650030D01*
X59765315Y-53660499D01*
X59746907Y-53669205D01*
X59727734Y-53676065D01*
X59707981Y-53681013D01*
X59687839Y-53684001D01*
X59667500Y-53685000D01*
X59252500Y-53685000D01*
X59232161Y-53684001D01*
X59212019Y-53681013D01*
X59192266Y-53676065D01*
X59173093Y-53669205D01*
X59154685Y-53660499D01*
X59137219Y-53650030D01*
X59120863Y-53637900D01*
X59105775Y-53624225D01*
X59092100Y-53609137D01*
X59079970Y-53592781D01*
X59069501Y-53575315D01*
X59060795Y-53556907D01*
X59053935Y-53537734D01*
X59048987Y-53517981D01*
X59045999Y-53497839D01*
X59045000Y-53477500D01*
X59045000Y-53062500D01*
X59045999Y-53042161D01*
X59048987Y-53022019D01*
X59053935Y-53002266D01*
X59060795Y-52983093D01*
X59069501Y-52964685D01*
X59079970Y-52947219D01*
X59092100Y-52930863D01*
X59105775Y-52915775D01*
X59120863Y-52902100D01*
X59137219Y-52889970D01*
X59154685Y-52879501D01*
X59173093Y-52870795D01*
X59192266Y-52863935D01*
X59212019Y-52858987D01*
X59232161Y-52855999D01*
X59252500Y-52855000D01*
X59667500Y-52855000D01*
X59687839Y-52855999D01*
X59687839Y-52855999D01*
G37*
D33*
X59460000Y-53270000D03*
D11*
G36*
X61747839Y-51825999D02*
G01*
X61767981Y-51828987D01*
X61787734Y-51833935D01*
X61806907Y-51840795D01*
X61825315Y-51849501D01*
X61842781Y-51859970D01*
X61859137Y-51872100D01*
X61874225Y-51885775D01*
X61887900Y-51900863D01*
X61900030Y-51917219D01*
X61910499Y-51934685D01*
X61919205Y-51953093D01*
X61926065Y-51972266D01*
X61931013Y-51992019D01*
X61934001Y-52012161D01*
X61935000Y-52032500D01*
X61935000Y-52447500D01*
X61934001Y-52467839D01*
X61931013Y-52487981D01*
X61926065Y-52507734D01*
X61919205Y-52526907D01*
X61910499Y-52545315D01*
X61900030Y-52562781D01*
X61887900Y-52579137D01*
X61874225Y-52594225D01*
X61859137Y-52607900D01*
X61842781Y-52620030D01*
X61825315Y-52630499D01*
X61806907Y-52639205D01*
X61787734Y-52646065D01*
X61767981Y-52651013D01*
X61747839Y-52654001D01*
X61727500Y-52655000D01*
X61312500Y-52655000D01*
X61292161Y-52654001D01*
X61272019Y-52651013D01*
X61252266Y-52646065D01*
X61233093Y-52639205D01*
X61214685Y-52630499D01*
X61197219Y-52620030D01*
X61180863Y-52607900D01*
X61165775Y-52594225D01*
X61152100Y-52579137D01*
X61139970Y-52562781D01*
X61129501Y-52545315D01*
X61120795Y-52526907D01*
X61113935Y-52507734D01*
X61108987Y-52487981D01*
X61105999Y-52467839D01*
X61105000Y-52447500D01*
X61105000Y-52032500D01*
X61105999Y-52012161D01*
X61108987Y-51992019D01*
X61113935Y-51972266D01*
X61120795Y-51953093D01*
X61129501Y-51934685D01*
X61139970Y-51917219D01*
X61152100Y-51900863D01*
X61165775Y-51885775D01*
X61180863Y-51872100D01*
X61197219Y-51859970D01*
X61214685Y-51849501D01*
X61233093Y-51840795D01*
X61252266Y-51833935D01*
X61272019Y-51828987D01*
X61292161Y-51825999D01*
X61312500Y-51825000D01*
X61727500Y-51825000D01*
X61747839Y-51825999D01*
X61747839Y-51825999D01*
G37*
D33*
X61520000Y-52240000D03*
D11*
G36*
X60717839Y-51825999D02*
G01*
X60737981Y-51828987D01*
X60757734Y-51833935D01*
X60776907Y-51840795D01*
X60795315Y-51849501D01*
X60812781Y-51859970D01*
X60829137Y-51872100D01*
X60844225Y-51885775D01*
X60857900Y-51900863D01*
X60870030Y-51917219D01*
X60880499Y-51934685D01*
X60889205Y-51953093D01*
X60896065Y-51972266D01*
X60901013Y-51992019D01*
X60904001Y-52012161D01*
X60905000Y-52032500D01*
X60905000Y-52447500D01*
X60904001Y-52467839D01*
X60901013Y-52487981D01*
X60896065Y-52507734D01*
X60889205Y-52526907D01*
X60880499Y-52545315D01*
X60870030Y-52562781D01*
X60857900Y-52579137D01*
X60844225Y-52594225D01*
X60829137Y-52607900D01*
X60812781Y-52620030D01*
X60795315Y-52630499D01*
X60776907Y-52639205D01*
X60757734Y-52646065D01*
X60737981Y-52651013D01*
X60717839Y-52654001D01*
X60697500Y-52655000D01*
X60282500Y-52655000D01*
X60262161Y-52654001D01*
X60242019Y-52651013D01*
X60222266Y-52646065D01*
X60203093Y-52639205D01*
X60184685Y-52630499D01*
X60167219Y-52620030D01*
X60150863Y-52607900D01*
X60135775Y-52594225D01*
X60122100Y-52579137D01*
X60109970Y-52562781D01*
X60099501Y-52545315D01*
X60090795Y-52526907D01*
X60083935Y-52507734D01*
X60078987Y-52487981D01*
X60075999Y-52467839D01*
X60075000Y-52447500D01*
X60075000Y-52032500D01*
X60075999Y-52012161D01*
X60078987Y-51992019D01*
X60083935Y-51972266D01*
X60090795Y-51953093D01*
X60099501Y-51934685D01*
X60109970Y-51917219D01*
X60122100Y-51900863D01*
X60135775Y-51885775D01*
X60150863Y-51872100D01*
X60167219Y-51859970D01*
X60184685Y-51849501D01*
X60203093Y-51840795D01*
X60222266Y-51833935D01*
X60242019Y-51828987D01*
X60262161Y-51825999D01*
X60282500Y-51825000D01*
X60697500Y-51825000D01*
X60717839Y-51825999D01*
X60717839Y-51825999D01*
G37*
D33*
X60490000Y-52240000D03*
D11*
G36*
X59687839Y-51825999D02*
G01*
X59707981Y-51828987D01*
X59727734Y-51833935D01*
X59746907Y-51840795D01*
X59765315Y-51849501D01*
X59782781Y-51859970D01*
X59799137Y-51872100D01*
X59814225Y-51885775D01*
X59827900Y-51900863D01*
X59840030Y-51917219D01*
X59850499Y-51934685D01*
X59859205Y-51953093D01*
X59866065Y-51972266D01*
X59871013Y-51992019D01*
X59874001Y-52012161D01*
X59875000Y-52032500D01*
X59875000Y-52447500D01*
X59874001Y-52467839D01*
X59871013Y-52487981D01*
X59866065Y-52507734D01*
X59859205Y-52526907D01*
X59850499Y-52545315D01*
X59840030Y-52562781D01*
X59827900Y-52579137D01*
X59814225Y-52594225D01*
X59799137Y-52607900D01*
X59782781Y-52620030D01*
X59765315Y-52630499D01*
X59746907Y-52639205D01*
X59727734Y-52646065D01*
X59707981Y-52651013D01*
X59687839Y-52654001D01*
X59667500Y-52655000D01*
X59252500Y-52655000D01*
X59232161Y-52654001D01*
X59212019Y-52651013D01*
X59192266Y-52646065D01*
X59173093Y-52639205D01*
X59154685Y-52630499D01*
X59137219Y-52620030D01*
X59120863Y-52607900D01*
X59105775Y-52594225D01*
X59092100Y-52579137D01*
X59079970Y-52562781D01*
X59069501Y-52545315D01*
X59060795Y-52526907D01*
X59053935Y-52507734D01*
X59048987Y-52487981D01*
X59045999Y-52467839D01*
X59045000Y-52447500D01*
X59045000Y-52032500D01*
X59045999Y-52012161D01*
X59048987Y-51992019D01*
X59053935Y-51972266D01*
X59060795Y-51953093D01*
X59069501Y-51934685D01*
X59079970Y-51917219D01*
X59092100Y-51900863D01*
X59105775Y-51885775D01*
X59120863Y-51872100D01*
X59137219Y-51859970D01*
X59154685Y-51849501D01*
X59173093Y-51840795D01*
X59192266Y-51833935D01*
X59212019Y-51828987D01*
X59232161Y-51825999D01*
X59252500Y-51825000D01*
X59667500Y-51825000D01*
X59687839Y-51825999D01*
X59687839Y-51825999D01*
G37*
D33*
X59460000Y-52240000D03*
D11*
G36*
X61747839Y-50795999D02*
G01*
X61767981Y-50798987D01*
X61787734Y-50803935D01*
X61806907Y-50810795D01*
X61825315Y-50819501D01*
X61842781Y-50829970D01*
X61859137Y-50842100D01*
X61874225Y-50855775D01*
X61887900Y-50870863D01*
X61900030Y-50887219D01*
X61910499Y-50904685D01*
X61919205Y-50923093D01*
X61926065Y-50942266D01*
X61931013Y-50962019D01*
X61934001Y-50982161D01*
X61935000Y-51002500D01*
X61935000Y-51417500D01*
X61934001Y-51437839D01*
X61931013Y-51457981D01*
X61926065Y-51477734D01*
X61919205Y-51496907D01*
X61910499Y-51515315D01*
X61900030Y-51532781D01*
X61887900Y-51549137D01*
X61874225Y-51564225D01*
X61859137Y-51577900D01*
X61842781Y-51590030D01*
X61825315Y-51600499D01*
X61806907Y-51609205D01*
X61787734Y-51616065D01*
X61767981Y-51621013D01*
X61747839Y-51624001D01*
X61727500Y-51625000D01*
X61312500Y-51625000D01*
X61292161Y-51624001D01*
X61272019Y-51621013D01*
X61252266Y-51616065D01*
X61233093Y-51609205D01*
X61214685Y-51600499D01*
X61197219Y-51590030D01*
X61180863Y-51577900D01*
X61165775Y-51564225D01*
X61152100Y-51549137D01*
X61139970Y-51532781D01*
X61129501Y-51515315D01*
X61120795Y-51496907D01*
X61113935Y-51477734D01*
X61108987Y-51457981D01*
X61105999Y-51437839D01*
X61105000Y-51417500D01*
X61105000Y-51002500D01*
X61105999Y-50982161D01*
X61108987Y-50962019D01*
X61113935Y-50942266D01*
X61120795Y-50923093D01*
X61129501Y-50904685D01*
X61139970Y-50887219D01*
X61152100Y-50870863D01*
X61165775Y-50855775D01*
X61180863Y-50842100D01*
X61197219Y-50829970D01*
X61214685Y-50819501D01*
X61233093Y-50810795D01*
X61252266Y-50803935D01*
X61272019Y-50798987D01*
X61292161Y-50795999D01*
X61312500Y-50795000D01*
X61727500Y-50795000D01*
X61747839Y-50795999D01*
X61747839Y-50795999D01*
G37*
D33*
X61520000Y-51210000D03*
D11*
G36*
X60717839Y-50795999D02*
G01*
X60737981Y-50798987D01*
X60757734Y-50803935D01*
X60776907Y-50810795D01*
X60795315Y-50819501D01*
X60812781Y-50829970D01*
X60829137Y-50842100D01*
X60844225Y-50855775D01*
X60857900Y-50870863D01*
X60870030Y-50887219D01*
X60880499Y-50904685D01*
X60889205Y-50923093D01*
X60896065Y-50942266D01*
X60901013Y-50962019D01*
X60904001Y-50982161D01*
X60905000Y-51002500D01*
X60905000Y-51417500D01*
X60904001Y-51437839D01*
X60901013Y-51457981D01*
X60896065Y-51477734D01*
X60889205Y-51496907D01*
X60880499Y-51515315D01*
X60870030Y-51532781D01*
X60857900Y-51549137D01*
X60844225Y-51564225D01*
X60829137Y-51577900D01*
X60812781Y-51590030D01*
X60795315Y-51600499D01*
X60776907Y-51609205D01*
X60757734Y-51616065D01*
X60737981Y-51621013D01*
X60717839Y-51624001D01*
X60697500Y-51625000D01*
X60282500Y-51625000D01*
X60262161Y-51624001D01*
X60242019Y-51621013D01*
X60222266Y-51616065D01*
X60203093Y-51609205D01*
X60184685Y-51600499D01*
X60167219Y-51590030D01*
X60150863Y-51577900D01*
X60135775Y-51564225D01*
X60122100Y-51549137D01*
X60109970Y-51532781D01*
X60099501Y-51515315D01*
X60090795Y-51496907D01*
X60083935Y-51477734D01*
X60078987Y-51457981D01*
X60075999Y-51437839D01*
X60075000Y-51417500D01*
X60075000Y-51002500D01*
X60075999Y-50982161D01*
X60078987Y-50962019D01*
X60083935Y-50942266D01*
X60090795Y-50923093D01*
X60099501Y-50904685D01*
X60109970Y-50887219D01*
X60122100Y-50870863D01*
X60135775Y-50855775D01*
X60150863Y-50842100D01*
X60167219Y-50829970D01*
X60184685Y-50819501D01*
X60203093Y-50810795D01*
X60222266Y-50803935D01*
X60242019Y-50798987D01*
X60262161Y-50795999D01*
X60282500Y-50795000D01*
X60697500Y-50795000D01*
X60717839Y-50795999D01*
X60717839Y-50795999D01*
G37*
D33*
X60490000Y-51210000D03*
D11*
G36*
X59687839Y-50795999D02*
G01*
X59707981Y-50798987D01*
X59727734Y-50803935D01*
X59746907Y-50810795D01*
X59765315Y-50819501D01*
X59782781Y-50829970D01*
X59799137Y-50842100D01*
X59814225Y-50855775D01*
X59827900Y-50870863D01*
X59840030Y-50887219D01*
X59850499Y-50904685D01*
X59859205Y-50923093D01*
X59866065Y-50942266D01*
X59871013Y-50962019D01*
X59874001Y-50982161D01*
X59875000Y-51002500D01*
X59875000Y-51417500D01*
X59874001Y-51437839D01*
X59871013Y-51457981D01*
X59866065Y-51477734D01*
X59859205Y-51496907D01*
X59850499Y-51515315D01*
X59840030Y-51532781D01*
X59827900Y-51549137D01*
X59814225Y-51564225D01*
X59799137Y-51577900D01*
X59782781Y-51590030D01*
X59765315Y-51600499D01*
X59746907Y-51609205D01*
X59727734Y-51616065D01*
X59707981Y-51621013D01*
X59687839Y-51624001D01*
X59667500Y-51625000D01*
X59252500Y-51625000D01*
X59232161Y-51624001D01*
X59212019Y-51621013D01*
X59192266Y-51616065D01*
X59173093Y-51609205D01*
X59154685Y-51600499D01*
X59137219Y-51590030D01*
X59120863Y-51577900D01*
X59105775Y-51564225D01*
X59092100Y-51549137D01*
X59079970Y-51532781D01*
X59069501Y-51515315D01*
X59060795Y-51496907D01*
X59053935Y-51477734D01*
X59048987Y-51457981D01*
X59045999Y-51437839D01*
X59045000Y-51417500D01*
X59045000Y-51002500D01*
X59045999Y-50982161D01*
X59048987Y-50962019D01*
X59053935Y-50942266D01*
X59060795Y-50923093D01*
X59069501Y-50904685D01*
X59079970Y-50887219D01*
X59092100Y-50870863D01*
X59105775Y-50855775D01*
X59120863Y-50842100D01*
X59137219Y-50829970D01*
X59154685Y-50819501D01*
X59173093Y-50810795D01*
X59192266Y-50803935D01*
X59212019Y-50798987D01*
X59232161Y-50795999D01*
X59252500Y-50795000D01*
X59667500Y-50795000D01*
X59687839Y-50795999D01*
X59687839Y-50795999D01*
G37*
D33*
X59460000Y-51210000D03*
D11*
G36*
X62308626Y-54240301D02*
G01*
X62314693Y-54241201D01*
X62320643Y-54242691D01*
X62326418Y-54244758D01*
X62331962Y-54247380D01*
X62337223Y-54250533D01*
X62342150Y-54254187D01*
X62346694Y-54258306D01*
X62350813Y-54262850D01*
X62354467Y-54267777D01*
X62357620Y-54273038D01*
X62360242Y-54278582D01*
X62362309Y-54284357D01*
X62363799Y-54290307D01*
X62364699Y-54296374D01*
X62365000Y-54302500D01*
X62365000Y-55052500D01*
X62364699Y-55058626D01*
X62363799Y-55064693D01*
X62362309Y-55070643D01*
X62360242Y-55076418D01*
X62357620Y-55081962D01*
X62354467Y-55087223D01*
X62350813Y-55092150D01*
X62346694Y-55096694D01*
X62342150Y-55100813D01*
X62337223Y-55104467D01*
X62331962Y-55107620D01*
X62326418Y-55110242D01*
X62320643Y-55112309D01*
X62314693Y-55113799D01*
X62308626Y-55114699D01*
X62302500Y-55115000D01*
X62177500Y-55115000D01*
X62171374Y-55114699D01*
X62165307Y-55113799D01*
X62159357Y-55112309D01*
X62153582Y-55110242D01*
X62148038Y-55107620D01*
X62142777Y-55104467D01*
X62137850Y-55100813D01*
X62133306Y-55096694D01*
X62129187Y-55092150D01*
X62125533Y-55087223D01*
X62122380Y-55081962D01*
X62119758Y-55076418D01*
X62117691Y-55070643D01*
X62116201Y-55064693D01*
X62115301Y-55058626D01*
X62115000Y-55052500D01*
X62115000Y-54302500D01*
X62115301Y-54296374D01*
X62116201Y-54290307D01*
X62117691Y-54284357D01*
X62119758Y-54278582D01*
X62122380Y-54273038D01*
X62125533Y-54267777D01*
X62129187Y-54262850D01*
X62133306Y-54258306D01*
X62137850Y-54254187D01*
X62142777Y-54250533D01*
X62148038Y-54247380D01*
X62153582Y-54244758D01*
X62159357Y-54242691D01*
X62165307Y-54241201D01*
X62171374Y-54240301D01*
X62177500Y-54240000D01*
X62302500Y-54240000D01*
X62308626Y-54240301D01*
X62308626Y-54240301D01*
G37*
D34*
X62240000Y-54677500D03*
D11*
G36*
X61808626Y-54240301D02*
G01*
X61814693Y-54241201D01*
X61820643Y-54242691D01*
X61826418Y-54244758D01*
X61831962Y-54247380D01*
X61837223Y-54250533D01*
X61842150Y-54254187D01*
X61846694Y-54258306D01*
X61850813Y-54262850D01*
X61854467Y-54267777D01*
X61857620Y-54273038D01*
X61860242Y-54278582D01*
X61862309Y-54284357D01*
X61863799Y-54290307D01*
X61864699Y-54296374D01*
X61865000Y-54302500D01*
X61865000Y-55052500D01*
X61864699Y-55058626D01*
X61863799Y-55064693D01*
X61862309Y-55070643D01*
X61860242Y-55076418D01*
X61857620Y-55081962D01*
X61854467Y-55087223D01*
X61850813Y-55092150D01*
X61846694Y-55096694D01*
X61842150Y-55100813D01*
X61837223Y-55104467D01*
X61831962Y-55107620D01*
X61826418Y-55110242D01*
X61820643Y-55112309D01*
X61814693Y-55113799D01*
X61808626Y-55114699D01*
X61802500Y-55115000D01*
X61677500Y-55115000D01*
X61671374Y-55114699D01*
X61665307Y-55113799D01*
X61659357Y-55112309D01*
X61653582Y-55110242D01*
X61648038Y-55107620D01*
X61642777Y-55104467D01*
X61637850Y-55100813D01*
X61633306Y-55096694D01*
X61629187Y-55092150D01*
X61625533Y-55087223D01*
X61622380Y-55081962D01*
X61619758Y-55076418D01*
X61617691Y-55070643D01*
X61616201Y-55064693D01*
X61615301Y-55058626D01*
X61615000Y-55052500D01*
X61615000Y-54302500D01*
X61615301Y-54296374D01*
X61616201Y-54290307D01*
X61617691Y-54284357D01*
X61619758Y-54278582D01*
X61622380Y-54273038D01*
X61625533Y-54267777D01*
X61629187Y-54262850D01*
X61633306Y-54258306D01*
X61637850Y-54254187D01*
X61642777Y-54250533D01*
X61648038Y-54247380D01*
X61653582Y-54244758D01*
X61659357Y-54242691D01*
X61665307Y-54241201D01*
X61671374Y-54240301D01*
X61677500Y-54240000D01*
X61802500Y-54240000D01*
X61808626Y-54240301D01*
X61808626Y-54240301D01*
G37*
D34*
X61740000Y-54677500D03*
D11*
G36*
X61308626Y-54240301D02*
G01*
X61314693Y-54241201D01*
X61320643Y-54242691D01*
X61326418Y-54244758D01*
X61331962Y-54247380D01*
X61337223Y-54250533D01*
X61342150Y-54254187D01*
X61346694Y-54258306D01*
X61350813Y-54262850D01*
X61354467Y-54267777D01*
X61357620Y-54273038D01*
X61360242Y-54278582D01*
X61362309Y-54284357D01*
X61363799Y-54290307D01*
X61364699Y-54296374D01*
X61365000Y-54302500D01*
X61365000Y-55052500D01*
X61364699Y-55058626D01*
X61363799Y-55064693D01*
X61362309Y-55070643D01*
X61360242Y-55076418D01*
X61357620Y-55081962D01*
X61354467Y-55087223D01*
X61350813Y-55092150D01*
X61346694Y-55096694D01*
X61342150Y-55100813D01*
X61337223Y-55104467D01*
X61331962Y-55107620D01*
X61326418Y-55110242D01*
X61320643Y-55112309D01*
X61314693Y-55113799D01*
X61308626Y-55114699D01*
X61302500Y-55115000D01*
X61177500Y-55115000D01*
X61171374Y-55114699D01*
X61165307Y-55113799D01*
X61159357Y-55112309D01*
X61153582Y-55110242D01*
X61148038Y-55107620D01*
X61142777Y-55104467D01*
X61137850Y-55100813D01*
X61133306Y-55096694D01*
X61129187Y-55092150D01*
X61125533Y-55087223D01*
X61122380Y-55081962D01*
X61119758Y-55076418D01*
X61117691Y-55070643D01*
X61116201Y-55064693D01*
X61115301Y-55058626D01*
X61115000Y-55052500D01*
X61115000Y-54302500D01*
X61115301Y-54296374D01*
X61116201Y-54290307D01*
X61117691Y-54284357D01*
X61119758Y-54278582D01*
X61122380Y-54273038D01*
X61125533Y-54267777D01*
X61129187Y-54262850D01*
X61133306Y-54258306D01*
X61137850Y-54254187D01*
X61142777Y-54250533D01*
X61148038Y-54247380D01*
X61153582Y-54244758D01*
X61159357Y-54242691D01*
X61165307Y-54241201D01*
X61171374Y-54240301D01*
X61177500Y-54240000D01*
X61302500Y-54240000D01*
X61308626Y-54240301D01*
X61308626Y-54240301D01*
G37*
D34*
X61240000Y-54677500D03*
D11*
G36*
X60808626Y-54240301D02*
G01*
X60814693Y-54241201D01*
X60820643Y-54242691D01*
X60826418Y-54244758D01*
X60831962Y-54247380D01*
X60837223Y-54250533D01*
X60842150Y-54254187D01*
X60846694Y-54258306D01*
X60850813Y-54262850D01*
X60854467Y-54267777D01*
X60857620Y-54273038D01*
X60860242Y-54278582D01*
X60862309Y-54284357D01*
X60863799Y-54290307D01*
X60864699Y-54296374D01*
X60865000Y-54302500D01*
X60865000Y-55052500D01*
X60864699Y-55058626D01*
X60863799Y-55064693D01*
X60862309Y-55070643D01*
X60860242Y-55076418D01*
X60857620Y-55081962D01*
X60854467Y-55087223D01*
X60850813Y-55092150D01*
X60846694Y-55096694D01*
X60842150Y-55100813D01*
X60837223Y-55104467D01*
X60831962Y-55107620D01*
X60826418Y-55110242D01*
X60820643Y-55112309D01*
X60814693Y-55113799D01*
X60808626Y-55114699D01*
X60802500Y-55115000D01*
X60677500Y-55115000D01*
X60671374Y-55114699D01*
X60665307Y-55113799D01*
X60659357Y-55112309D01*
X60653582Y-55110242D01*
X60648038Y-55107620D01*
X60642777Y-55104467D01*
X60637850Y-55100813D01*
X60633306Y-55096694D01*
X60629187Y-55092150D01*
X60625533Y-55087223D01*
X60622380Y-55081962D01*
X60619758Y-55076418D01*
X60617691Y-55070643D01*
X60616201Y-55064693D01*
X60615301Y-55058626D01*
X60615000Y-55052500D01*
X60615000Y-54302500D01*
X60615301Y-54296374D01*
X60616201Y-54290307D01*
X60617691Y-54284357D01*
X60619758Y-54278582D01*
X60622380Y-54273038D01*
X60625533Y-54267777D01*
X60629187Y-54262850D01*
X60633306Y-54258306D01*
X60637850Y-54254187D01*
X60642777Y-54250533D01*
X60648038Y-54247380D01*
X60653582Y-54244758D01*
X60659357Y-54242691D01*
X60665307Y-54241201D01*
X60671374Y-54240301D01*
X60677500Y-54240000D01*
X60802500Y-54240000D01*
X60808626Y-54240301D01*
X60808626Y-54240301D01*
G37*
D34*
X60740000Y-54677500D03*
D11*
G36*
X60308626Y-54240301D02*
G01*
X60314693Y-54241201D01*
X60320643Y-54242691D01*
X60326418Y-54244758D01*
X60331962Y-54247380D01*
X60337223Y-54250533D01*
X60342150Y-54254187D01*
X60346694Y-54258306D01*
X60350813Y-54262850D01*
X60354467Y-54267777D01*
X60357620Y-54273038D01*
X60360242Y-54278582D01*
X60362309Y-54284357D01*
X60363799Y-54290307D01*
X60364699Y-54296374D01*
X60365000Y-54302500D01*
X60365000Y-55052500D01*
X60364699Y-55058626D01*
X60363799Y-55064693D01*
X60362309Y-55070643D01*
X60360242Y-55076418D01*
X60357620Y-55081962D01*
X60354467Y-55087223D01*
X60350813Y-55092150D01*
X60346694Y-55096694D01*
X60342150Y-55100813D01*
X60337223Y-55104467D01*
X60331962Y-55107620D01*
X60326418Y-55110242D01*
X60320643Y-55112309D01*
X60314693Y-55113799D01*
X60308626Y-55114699D01*
X60302500Y-55115000D01*
X60177500Y-55115000D01*
X60171374Y-55114699D01*
X60165307Y-55113799D01*
X60159357Y-55112309D01*
X60153582Y-55110242D01*
X60148038Y-55107620D01*
X60142777Y-55104467D01*
X60137850Y-55100813D01*
X60133306Y-55096694D01*
X60129187Y-55092150D01*
X60125533Y-55087223D01*
X60122380Y-55081962D01*
X60119758Y-55076418D01*
X60117691Y-55070643D01*
X60116201Y-55064693D01*
X60115301Y-55058626D01*
X60115000Y-55052500D01*
X60115000Y-54302500D01*
X60115301Y-54296374D01*
X60116201Y-54290307D01*
X60117691Y-54284357D01*
X60119758Y-54278582D01*
X60122380Y-54273038D01*
X60125533Y-54267777D01*
X60129187Y-54262850D01*
X60133306Y-54258306D01*
X60137850Y-54254187D01*
X60142777Y-54250533D01*
X60148038Y-54247380D01*
X60153582Y-54244758D01*
X60159357Y-54242691D01*
X60165307Y-54241201D01*
X60171374Y-54240301D01*
X60177500Y-54240000D01*
X60302500Y-54240000D01*
X60308626Y-54240301D01*
X60308626Y-54240301D01*
G37*
D34*
X60240000Y-54677500D03*
D11*
G36*
X59808626Y-54240301D02*
G01*
X59814693Y-54241201D01*
X59820643Y-54242691D01*
X59826418Y-54244758D01*
X59831962Y-54247380D01*
X59837223Y-54250533D01*
X59842150Y-54254187D01*
X59846694Y-54258306D01*
X59850813Y-54262850D01*
X59854467Y-54267777D01*
X59857620Y-54273038D01*
X59860242Y-54278582D01*
X59862309Y-54284357D01*
X59863799Y-54290307D01*
X59864699Y-54296374D01*
X59865000Y-54302500D01*
X59865000Y-55052500D01*
X59864699Y-55058626D01*
X59863799Y-55064693D01*
X59862309Y-55070643D01*
X59860242Y-55076418D01*
X59857620Y-55081962D01*
X59854467Y-55087223D01*
X59850813Y-55092150D01*
X59846694Y-55096694D01*
X59842150Y-55100813D01*
X59837223Y-55104467D01*
X59831962Y-55107620D01*
X59826418Y-55110242D01*
X59820643Y-55112309D01*
X59814693Y-55113799D01*
X59808626Y-55114699D01*
X59802500Y-55115000D01*
X59677500Y-55115000D01*
X59671374Y-55114699D01*
X59665307Y-55113799D01*
X59659357Y-55112309D01*
X59653582Y-55110242D01*
X59648038Y-55107620D01*
X59642777Y-55104467D01*
X59637850Y-55100813D01*
X59633306Y-55096694D01*
X59629187Y-55092150D01*
X59625533Y-55087223D01*
X59622380Y-55081962D01*
X59619758Y-55076418D01*
X59617691Y-55070643D01*
X59616201Y-55064693D01*
X59615301Y-55058626D01*
X59615000Y-55052500D01*
X59615000Y-54302500D01*
X59615301Y-54296374D01*
X59616201Y-54290307D01*
X59617691Y-54284357D01*
X59619758Y-54278582D01*
X59622380Y-54273038D01*
X59625533Y-54267777D01*
X59629187Y-54262850D01*
X59633306Y-54258306D01*
X59637850Y-54254187D01*
X59642777Y-54250533D01*
X59648038Y-54247380D01*
X59653582Y-54244758D01*
X59659357Y-54242691D01*
X59665307Y-54241201D01*
X59671374Y-54240301D01*
X59677500Y-54240000D01*
X59802500Y-54240000D01*
X59808626Y-54240301D01*
X59808626Y-54240301D01*
G37*
D34*
X59740000Y-54677500D03*
D11*
G36*
X59308626Y-54240301D02*
G01*
X59314693Y-54241201D01*
X59320643Y-54242691D01*
X59326418Y-54244758D01*
X59331962Y-54247380D01*
X59337223Y-54250533D01*
X59342150Y-54254187D01*
X59346694Y-54258306D01*
X59350813Y-54262850D01*
X59354467Y-54267777D01*
X59357620Y-54273038D01*
X59360242Y-54278582D01*
X59362309Y-54284357D01*
X59363799Y-54290307D01*
X59364699Y-54296374D01*
X59365000Y-54302500D01*
X59365000Y-55052500D01*
X59364699Y-55058626D01*
X59363799Y-55064693D01*
X59362309Y-55070643D01*
X59360242Y-55076418D01*
X59357620Y-55081962D01*
X59354467Y-55087223D01*
X59350813Y-55092150D01*
X59346694Y-55096694D01*
X59342150Y-55100813D01*
X59337223Y-55104467D01*
X59331962Y-55107620D01*
X59326418Y-55110242D01*
X59320643Y-55112309D01*
X59314693Y-55113799D01*
X59308626Y-55114699D01*
X59302500Y-55115000D01*
X59177500Y-55115000D01*
X59171374Y-55114699D01*
X59165307Y-55113799D01*
X59159357Y-55112309D01*
X59153582Y-55110242D01*
X59148038Y-55107620D01*
X59142777Y-55104467D01*
X59137850Y-55100813D01*
X59133306Y-55096694D01*
X59129187Y-55092150D01*
X59125533Y-55087223D01*
X59122380Y-55081962D01*
X59119758Y-55076418D01*
X59117691Y-55070643D01*
X59116201Y-55064693D01*
X59115301Y-55058626D01*
X59115000Y-55052500D01*
X59115000Y-54302500D01*
X59115301Y-54296374D01*
X59116201Y-54290307D01*
X59117691Y-54284357D01*
X59119758Y-54278582D01*
X59122380Y-54273038D01*
X59125533Y-54267777D01*
X59129187Y-54262850D01*
X59133306Y-54258306D01*
X59137850Y-54254187D01*
X59142777Y-54250533D01*
X59148038Y-54247380D01*
X59153582Y-54244758D01*
X59159357Y-54242691D01*
X59165307Y-54241201D01*
X59171374Y-54240301D01*
X59177500Y-54240000D01*
X59302500Y-54240000D01*
X59308626Y-54240301D01*
X59308626Y-54240301D01*
G37*
D34*
X59240000Y-54677500D03*
D11*
G36*
X58808626Y-54240301D02*
G01*
X58814693Y-54241201D01*
X58820643Y-54242691D01*
X58826418Y-54244758D01*
X58831962Y-54247380D01*
X58837223Y-54250533D01*
X58842150Y-54254187D01*
X58846694Y-54258306D01*
X58850813Y-54262850D01*
X58854467Y-54267777D01*
X58857620Y-54273038D01*
X58860242Y-54278582D01*
X58862309Y-54284357D01*
X58863799Y-54290307D01*
X58864699Y-54296374D01*
X58865000Y-54302500D01*
X58865000Y-55052500D01*
X58864699Y-55058626D01*
X58863799Y-55064693D01*
X58862309Y-55070643D01*
X58860242Y-55076418D01*
X58857620Y-55081962D01*
X58854467Y-55087223D01*
X58850813Y-55092150D01*
X58846694Y-55096694D01*
X58842150Y-55100813D01*
X58837223Y-55104467D01*
X58831962Y-55107620D01*
X58826418Y-55110242D01*
X58820643Y-55112309D01*
X58814693Y-55113799D01*
X58808626Y-55114699D01*
X58802500Y-55115000D01*
X58677500Y-55115000D01*
X58671374Y-55114699D01*
X58665307Y-55113799D01*
X58659357Y-55112309D01*
X58653582Y-55110242D01*
X58648038Y-55107620D01*
X58642777Y-55104467D01*
X58637850Y-55100813D01*
X58633306Y-55096694D01*
X58629187Y-55092150D01*
X58625533Y-55087223D01*
X58622380Y-55081962D01*
X58619758Y-55076418D01*
X58617691Y-55070643D01*
X58616201Y-55064693D01*
X58615301Y-55058626D01*
X58615000Y-55052500D01*
X58615000Y-54302500D01*
X58615301Y-54296374D01*
X58616201Y-54290307D01*
X58617691Y-54284357D01*
X58619758Y-54278582D01*
X58622380Y-54273038D01*
X58625533Y-54267777D01*
X58629187Y-54262850D01*
X58633306Y-54258306D01*
X58637850Y-54254187D01*
X58642777Y-54250533D01*
X58648038Y-54247380D01*
X58653582Y-54244758D01*
X58659357Y-54242691D01*
X58665307Y-54241201D01*
X58671374Y-54240301D01*
X58677500Y-54240000D01*
X58802500Y-54240000D01*
X58808626Y-54240301D01*
X58808626Y-54240301D01*
G37*
D34*
X58740000Y-54677500D03*
D11*
G36*
X58433626Y-53865301D02*
G01*
X58439693Y-53866201D01*
X58445643Y-53867691D01*
X58451418Y-53869758D01*
X58456962Y-53872380D01*
X58462223Y-53875533D01*
X58467150Y-53879187D01*
X58471694Y-53883306D01*
X58475813Y-53887850D01*
X58479467Y-53892777D01*
X58482620Y-53898038D01*
X58485242Y-53903582D01*
X58487309Y-53909357D01*
X58488799Y-53915307D01*
X58489699Y-53921374D01*
X58490000Y-53927500D01*
X58490000Y-54052500D01*
X58489699Y-54058626D01*
X58488799Y-54064693D01*
X58487309Y-54070643D01*
X58485242Y-54076418D01*
X58482620Y-54081962D01*
X58479467Y-54087223D01*
X58475813Y-54092150D01*
X58471694Y-54096694D01*
X58467150Y-54100813D01*
X58462223Y-54104467D01*
X58456962Y-54107620D01*
X58451418Y-54110242D01*
X58445643Y-54112309D01*
X58439693Y-54113799D01*
X58433626Y-54114699D01*
X58427500Y-54115000D01*
X57677500Y-54115000D01*
X57671374Y-54114699D01*
X57665307Y-54113799D01*
X57659357Y-54112309D01*
X57653582Y-54110242D01*
X57648038Y-54107620D01*
X57642777Y-54104467D01*
X57637850Y-54100813D01*
X57633306Y-54096694D01*
X57629187Y-54092150D01*
X57625533Y-54087223D01*
X57622380Y-54081962D01*
X57619758Y-54076418D01*
X57617691Y-54070643D01*
X57616201Y-54064693D01*
X57615301Y-54058626D01*
X57615000Y-54052500D01*
X57615000Y-53927500D01*
X57615301Y-53921374D01*
X57616201Y-53915307D01*
X57617691Y-53909357D01*
X57619758Y-53903582D01*
X57622380Y-53898038D01*
X57625533Y-53892777D01*
X57629187Y-53887850D01*
X57633306Y-53883306D01*
X57637850Y-53879187D01*
X57642777Y-53875533D01*
X57648038Y-53872380D01*
X57653582Y-53869758D01*
X57659357Y-53867691D01*
X57665307Y-53866201D01*
X57671374Y-53865301D01*
X57677500Y-53865000D01*
X58427500Y-53865000D01*
X58433626Y-53865301D01*
X58433626Y-53865301D01*
G37*
D34*
X58052500Y-53990000D03*
D11*
G36*
X58433626Y-53365301D02*
G01*
X58439693Y-53366201D01*
X58445643Y-53367691D01*
X58451418Y-53369758D01*
X58456962Y-53372380D01*
X58462223Y-53375533D01*
X58467150Y-53379187D01*
X58471694Y-53383306D01*
X58475813Y-53387850D01*
X58479467Y-53392777D01*
X58482620Y-53398038D01*
X58485242Y-53403582D01*
X58487309Y-53409357D01*
X58488799Y-53415307D01*
X58489699Y-53421374D01*
X58490000Y-53427500D01*
X58490000Y-53552500D01*
X58489699Y-53558626D01*
X58488799Y-53564693D01*
X58487309Y-53570643D01*
X58485242Y-53576418D01*
X58482620Y-53581962D01*
X58479467Y-53587223D01*
X58475813Y-53592150D01*
X58471694Y-53596694D01*
X58467150Y-53600813D01*
X58462223Y-53604467D01*
X58456962Y-53607620D01*
X58451418Y-53610242D01*
X58445643Y-53612309D01*
X58439693Y-53613799D01*
X58433626Y-53614699D01*
X58427500Y-53615000D01*
X57677500Y-53615000D01*
X57671374Y-53614699D01*
X57665307Y-53613799D01*
X57659357Y-53612309D01*
X57653582Y-53610242D01*
X57648038Y-53607620D01*
X57642777Y-53604467D01*
X57637850Y-53600813D01*
X57633306Y-53596694D01*
X57629187Y-53592150D01*
X57625533Y-53587223D01*
X57622380Y-53581962D01*
X57619758Y-53576418D01*
X57617691Y-53570643D01*
X57616201Y-53564693D01*
X57615301Y-53558626D01*
X57615000Y-53552500D01*
X57615000Y-53427500D01*
X57615301Y-53421374D01*
X57616201Y-53415307D01*
X57617691Y-53409357D01*
X57619758Y-53403582D01*
X57622380Y-53398038D01*
X57625533Y-53392777D01*
X57629187Y-53387850D01*
X57633306Y-53383306D01*
X57637850Y-53379187D01*
X57642777Y-53375533D01*
X57648038Y-53372380D01*
X57653582Y-53369758D01*
X57659357Y-53367691D01*
X57665307Y-53366201D01*
X57671374Y-53365301D01*
X57677500Y-53365000D01*
X58427500Y-53365000D01*
X58433626Y-53365301D01*
X58433626Y-53365301D01*
G37*
D34*
X58052500Y-53490000D03*
D11*
G36*
X58433626Y-52865301D02*
G01*
X58439693Y-52866201D01*
X58445643Y-52867691D01*
X58451418Y-52869758D01*
X58456962Y-52872380D01*
X58462223Y-52875533D01*
X58467150Y-52879187D01*
X58471694Y-52883306D01*
X58475813Y-52887850D01*
X58479467Y-52892777D01*
X58482620Y-52898038D01*
X58485242Y-52903582D01*
X58487309Y-52909357D01*
X58488799Y-52915307D01*
X58489699Y-52921374D01*
X58490000Y-52927500D01*
X58490000Y-53052500D01*
X58489699Y-53058626D01*
X58488799Y-53064693D01*
X58487309Y-53070643D01*
X58485242Y-53076418D01*
X58482620Y-53081962D01*
X58479467Y-53087223D01*
X58475813Y-53092150D01*
X58471694Y-53096694D01*
X58467150Y-53100813D01*
X58462223Y-53104467D01*
X58456962Y-53107620D01*
X58451418Y-53110242D01*
X58445643Y-53112309D01*
X58439693Y-53113799D01*
X58433626Y-53114699D01*
X58427500Y-53115000D01*
X57677500Y-53115000D01*
X57671374Y-53114699D01*
X57665307Y-53113799D01*
X57659357Y-53112309D01*
X57653582Y-53110242D01*
X57648038Y-53107620D01*
X57642777Y-53104467D01*
X57637850Y-53100813D01*
X57633306Y-53096694D01*
X57629187Y-53092150D01*
X57625533Y-53087223D01*
X57622380Y-53081962D01*
X57619758Y-53076418D01*
X57617691Y-53070643D01*
X57616201Y-53064693D01*
X57615301Y-53058626D01*
X57615000Y-53052500D01*
X57615000Y-52927500D01*
X57615301Y-52921374D01*
X57616201Y-52915307D01*
X57617691Y-52909357D01*
X57619758Y-52903582D01*
X57622380Y-52898038D01*
X57625533Y-52892777D01*
X57629187Y-52887850D01*
X57633306Y-52883306D01*
X57637850Y-52879187D01*
X57642777Y-52875533D01*
X57648038Y-52872380D01*
X57653582Y-52869758D01*
X57659357Y-52867691D01*
X57665307Y-52866201D01*
X57671374Y-52865301D01*
X57677500Y-52865000D01*
X58427500Y-52865000D01*
X58433626Y-52865301D01*
X58433626Y-52865301D01*
G37*
D34*
X58052500Y-52990000D03*
D11*
G36*
X58433626Y-52365301D02*
G01*
X58439693Y-52366201D01*
X58445643Y-52367691D01*
X58451418Y-52369758D01*
X58456962Y-52372380D01*
X58462223Y-52375533D01*
X58467150Y-52379187D01*
X58471694Y-52383306D01*
X58475813Y-52387850D01*
X58479467Y-52392777D01*
X58482620Y-52398038D01*
X58485242Y-52403582D01*
X58487309Y-52409357D01*
X58488799Y-52415307D01*
X58489699Y-52421374D01*
X58490000Y-52427500D01*
X58490000Y-52552500D01*
X58489699Y-52558626D01*
X58488799Y-52564693D01*
X58487309Y-52570643D01*
X58485242Y-52576418D01*
X58482620Y-52581962D01*
X58479467Y-52587223D01*
X58475813Y-52592150D01*
X58471694Y-52596694D01*
X58467150Y-52600813D01*
X58462223Y-52604467D01*
X58456962Y-52607620D01*
X58451418Y-52610242D01*
X58445643Y-52612309D01*
X58439693Y-52613799D01*
X58433626Y-52614699D01*
X58427500Y-52615000D01*
X57677500Y-52615000D01*
X57671374Y-52614699D01*
X57665307Y-52613799D01*
X57659357Y-52612309D01*
X57653582Y-52610242D01*
X57648038Y-52607620D01*
X57642777Y-52604467D01*
X57637850Y-52600813D01*
X57633306Y-52596694D01*
X57629187Y-52592150D01*
X57625533Y-52587223D01*
X57622380Y-52581962D01*
X57619758Y-52576418D01*
X57617691Y-52570643D01*
X57616201Y-52564693D01*
X57615301Y-52558626D01*
X57615000Y-52552500D01*
X57615000Y-52427500D01*
X57615301Y-52421374D01*
X57616201Y-52415307D01*
X57617691Y-52409357D01*
X57619758Y-52403582D01*
X57622380Y-52398038D01*
X57625533Y-52392777D01*
X57629187Y-52387850D01*
X57633306Y-52383306D01*
X57637850Y-52379187D01*
X57642777Y-52375533D01*
X57648038Y-52372380D01*
X57653582Y-52369758D01*
X57659357Y-52367691D01*
X57665307Y-52366201D01*
X57671374Y-52365301D01*
X57677500Y-52365000D01*
X58427500Y-52365000D01*
X58433626Y-52365301D01*
X58433626Y-52365301D01*
G37*
D34*
X58052500Y-52490000D03*
D11*
G36*
X58433626Y-51865301D02*
G01*
X58439693Y-51866201D01*
X58445643Y-51867691D01*
X58451418Y-51869758D01*
X58456962Y-51872380D01*
X58462223Y-51875533D01*
X58467150Y-51879187D01*
X58471694Y-51883306D01*
X58475813Y-51887850D01*
X58479467Y-51892777D01*
X58482620Y-51898038D01*
X58485242Y-51903582D01*
X58487309Y-51909357D01*
X58488799Y-51915307D01*
X58489699Y-51921374D01*
X58490000Y-51927500D01*
X58490000Y-52052500D01*
X58489699Y-52058626D01*
X58488799Y-52064693D01*
X58487309Y-52070643D01*
X58485242Y-52076418D01*
X58482620Y-52081962D01*
X58479467Y-52087223D01*
X58475813Y-52092150D01*
X58471694Y-52096694D01*
X58467150Y-52100813D01*
X58462223Y-52104467D01*
X58456962Y-52107620D01*
X58451418Y-52110242D01*
X58445643Y-52112309D01*
X58439693Y-52113799D01*
X58433626Y-52114699D01*
X58427500Y-52115000D01*
X57677500Y-52115000D01*
X57671374Y-52114699D01*
X57665307Y-52113799D01*
X57659357Y-52112309D01*
X57653582Y-52110242D01*
X57648038Y-52107620D01*
X57642777Y-52104467D01*
X57637850Y-52100813D01*
X57633306Y-52096694D01*
X57629187Y-52092150D01*
X57625533Y-52087223D01*
X57622380Y-52081962D01*
X57619758Y-52076418D01*
X57617691Y-52070643D01*
X57616201Y-52064693D01*
X57615301Y-52058626D01*
X57615000Y-52052500D01*
X57615000Y-51927500D01*
X57615301Y-51921374D01*
X57616201Y-51915307D01*
X57617691Y-51909357D01*
X57619758Y-51903582D01*
X57622380Y-51898038D01*
X57625533Y-51892777D01*
X57629187Y-51887850D01*
X57633306Y-51883306D01*
X57637850Y-51879187D01*
X57642777Y-51875533D01*
X57648038Y-51872380D01*
X57653582Y-51869758D01*
X57659357Y-51867691D01*
X57665307Y-51866201D01*
X57671374Y-51865301D01*
X57677500Y-51865000D01*
X58427500Y-51865000D01*
X58433626Y-51865301D01*
X58433626Y-51865301D01*
G37*
D34*
X58052500Y-51990000D03*
D11*
G36*
X58433626Y-51365301D02*
G01*
X58439693Y-51366201D01*
X58445643Y-51367691D01*
X58451418Y-51369758D01*
X58456962Y-51372380D01*
X58462223Y-51375533D01*
X58467150Y-51379187D01*
X58471694Y-51383306D01*
X58475813Y-51387850D01*
X58479467Y-51392777D01*
X58482620Y-51398038D01*
X58485242Y-51403582D01*
X58487309Y-51409357D01*
X58488799Y-51415307D01*
X58489699Y-51421374D01*
X58490000Y-51427500D01*
X58490000Y-51552500D01*
X58489699Y-51558626D01*
X58488799Y-51564693D01*
X58487309Y-51570643D01*
X58485242Y-51576418D01*
X58482620Y-51581962D01*
X58479467Y-51587223D01*
X58475813Y-51592150D01*
X58471694Y-51596694D01*
X58467150Y-51600813D01*
X58462223Y-51604467D01*
X58456962Y-51607620D01*
X58451418Y-51610242D01*
X58445643Y-51612309D01*
X58439693Y-51613799D01*
X58433626Y-51614699D01*
X58427500Y-51615000D01*
X57677500Y-51615000D01*
X57671374Y-51614699D01*
X57665307Y-51613799D01*
X57659357Y-51612309D01*
X57653582Y-51610242D01*
X57648038Y-51607620D01*
X57642777Y-51604467D01*
X57637850Y-51600813D01*
X57633306Y-51596694D01*
X57629187Y-51592150D01*
X57625533Y-51587223D01*
X57622380Y-51581962D01*
X57619758Y-51576418D01*
X57617691Y-51570643D01*
X57616201Y-51564693D01*
X57615301Y-51558626D01*
X57615000Y-51552500D01*
X57615000Y-51427500D01*
X57615301Y-51421374D01*
X57616201Y-51415307D01*
X57617691Y-51409357D01*
X57619758Y-51403582D01*
X57622380Y-51398038D01*
X57625533Y-51392777D01*
X57629187Y-51387850D01*
X57633306Y-51383306D01*
X57637850Y-51379187D01*
X57642777Y-51375533D01*
X57648038Y-51372380D01*
X57653582Y-51369758D01*
X57659357Y-51367691D01*
X57665307Y-51366201D01*
X57671374Y-51365301D01*
X57677500Y-51365000D01*
X58427500Y-51365000D01*
X58433626Y-51365301D01*
X58433626Y-51365301D01*
G37*
D34*
X58052500Y-51490000D03*
D11*
G36*
X58433626Y-50865301D02*
G01*
X58439693Y-50866201D01*
X58445643Y-50867691D01*
X58451418Y-50869758D01*
X58456962Y-50872380D01*
X58462223Y-50875533D01*
X58467150Y-50879187D01*
X58471694Y-50883306D01*
X58475813Y-50887850D01*
X58479467Y-50892777D01*
X58482620Y-50898038D01*
X58485242Y-50903582D01*
X58487309Y-50909357D01*
X58488799Y-50915307D01*
X58489699Y-50921374D01*
X58490000Y-50927500D01*
X58490000Y-51052500D01*
X58489699Y-51058626D01*
X58488799Y-51064693D01*
X58487309Y-51070643D01*
X58485242Y-51076418D01*
X58482620Y-51081962D01*
X58479467Y-51087223D01*
X58475813Y-51092150D01*
X58471694Y-51096694D01*
X58467150Y-51100813D01*
X58462223Y-51104467D01*
X58456962Y-51107620D01*
X58451418Y-51110242D01*
X58445643Y-51112309D01*
X58439693Y-51113799D01*
X58433626Y-51114699D01*
X58427500Y-51115000D01*
X57677500Y-51115000D01*
X57671374Y-51114699D01*
X57665307Y-51113799D01*
X57659357Y-51112309D01*
X57653582Y-51110242D01*
X57648038Y-51107620D01*
X57642777Y-51104467D01*
X57637850Y-51100813D01*
X57633306Y-51096694D01*
X57629187Y-51092150D01*
X57625533Y-51087223D01*
X57622380Y-51081962D01*
X57619758Y-51076418D01*
X57617691Y-51070643D01*
X57616201Y-51064693D01*
X57615301Y-51058626D01*
X57615000Y-51052500D01*
X57615000Y-50927500D01*
X57615301Y-50921374D01*
X57616201Y-50915307D01*
X57617691Y-50909357D01*
X57619758Y-50903582D01*
X57622380Y-50898038D01*
X57625533Y-50892777D01*
X57629187Y-50887850D01*
X57633306Y-50883306D01*
X57637850Y-50879187D01*
X57642777Y-50875533D01*
X57648038Y-50872380D01*
X57653582Y-50869758D01*
X57659357Y-50867691D01*
X57665307Y-50866201D01*
X57671374Y-50865301D01*
X57677500Y-50865000D01*
X58427500Y-50865000D01*
X58433626Y-50865301D01*
X58433626Y-50865301D01*
G37*
D34*
X58052500Y-50990000D03*
D11*
G36*
X58433626Y-50365301D02*
G01*
X58439693Y-50366201D01*
X58445643Y-50367691D01*
X58451418Y-50369758D01*
X58456962Y-50372380D01*
X58462223Y-50375533D01*
X58467150Y-50379187D01*
X58471694Y-50383306D01*
X58475813Y-50387850D01*
X58479467Y-50392777D01*
X58482620Y-50398038D01*
X58485242Y-50403582D01*
X58487309Y-50409357D01*
X58488799Y-50415307D01*
X58489699Y-50421374D01*
X58490000Y-50427500D01*
X58490000Y-50552500D01*
X58489699Y-50558626D01*
X58488799Y-50564693D01*
X58487309Y-50570643D01*
X58485242Y-50576418D01*
X58482620Y-50581962D01*
X58479467Y-50587223D01*
X58475813Y-50592150D01*
X58471694Y-50596694D01*
X58467150Y-50600813D01*
X58462223Y-50604467D01*
X58456962Y-50607620D01*
X58451418Y-50610242D01*
X58445643Y-50612309D01*
X58439693Y-50613799D01*
X58433626Y-50614699D01*
X58427500Y-50615000D01*
X57677500Y-50615000D01*
X57671374Y-50614699D01*
X57665307Y-50613799D01*
X57659357Y-50612309D01*
X57653582Y-50610242D01*
X57648038Y-50607620D01*
X57642777Y-50604467D01*
X57637850Y-50600813D01*
X57633306Y-50596694D01*
X57629187Y-50592150D01*
X57625533Y-50587223D01*
X57622380Y-50581962D01*
X57619758Y-50576418D01*
X57617691Y-50570643D01*
X57616201Y-50564693D01*
X57615301Y-50558626D01*
X57615000Y-50552500D01*
X57615000Y-50427500D01*
X57615301Y-50421374D01*
X57616201Y-50415307D01*
X57617691Y-50409357D01*
X57619758Y-50403582D01*
X57622380Y-50398038D01*
X57625533Y-50392777D01*
X57629187Y-50387850D01*
X57633306Y-50383306D01*
X57637850Y-50379187D01*
X57642777Y-50375533D01*
X57648038Y-50372380D01*
X57653582Y-50369758D01*
X57659357Y-50367691D01*
X57665307Y-50366201D01*
X57671374Y-50365301D01*
X57677500Y-50365000D01*
X58427500Y-50365000D01*
X58433626Y-50365301D01*
X58433626Y-50365301D01*
G37*
D34*
X58052500Y-50490000D03*
D11*
G36*
X58808626Y-49365301D02*
G01*
X58814693Y-49366201D01*
X58820643Y-49367691D01*
X58826418Y-49369758D01*
X58831962Y-49372380D01*
X58837223Y-49375533D01*
X58842150Y-49379187D01*
X58846694Y-49383306D01*
X58850813Y-49387850D01*
X58854467Y-49392777D01*
X58857620Y-49398038D01*
X58860242Y-49403582D01*
X58862309Y-49409357D01*
X58863799Y-49415307D01*
X58864699Y-49421374D01*
X58865000Y-49427500D01*
X58865000Y-50177500D01*
X58864699Y-50183626D01*
X58863799Y-50189693D01*
X58862309Y-50195643D01*
X58860242Y-50201418D01*
X58857620Y-50206962D01*
X58854467Y-50212223D01*
X58850813Y-50217150D01*
X58846694Y-50221694D01*
X58842150Y-50225813D01*
X58837223Y-50229467D01*
X58831962Y-50232620D01*
X58826418Y-50235242D01*
X58820643Y-50237309D01*
X58814693Y-50238799D01*
X58808626Y-50239699D01*
X58802500Y-50240000D01*
X58677500Y-50240000D01*
X58671374Y-50239699D01*
X58665307Y-50238799D01*
X58659357Y-50237309D01*
X58653582Y-50235242D01*
X58648038Y-50232620D01*
X58642777Y-50229467D01*
X58637850Y-50225813D01*
X58633306Y-50221694D01*
X58629187Y-50217150D01*
X58625533Y-50212223D01*
X58622380Y-50206962D01*
X58619758Y-50201418D01*
X58617691Y-50195643D01*
X58616201Y-50189693D01*
X58615301Y-50183626D01*
X58615000Y-50177500D01*
X58615000Y-49427500D01*
X58615301Y-49421374D01*
X58616201Y-49415307D01*
X58617691Y-49409357D01*
X58619758Y-49403582D01*
X58622380Y-49398038D01*
X58625533Y-49392777D01*
X58629187Y-49387850D01*
X58633306Y-49383306D01*
X58637850Y-49379187D01*
X58642777Y-49375533D01*
X58648038Y-49372380D01*
X58653582Y-49369758D01*
X58659357Y-49367691D01*
X58665307Y-49366201D01*
X58671374Y-49365301D01*
X58677500Y-49365000D01*
X58802500Y-49365000D01*
X58808626Y-49365301D01*
X58808626Y-49365301D01*
G37*
D34*
X58740000Y-49802500D03*
D11*
G36*
X59308626Y-49365301D02*
G01*
X59314693Y-49366201D01*
X59320643Y-49367691D01*
X59326418Y-49369758D01*
X59331962Y-49372380D01*
X59337223Y-49375533D01*
X59342150Y-49379187D01*
X59346694Y-49383306D01*
X59350813Y-49387850D01*
X59354467Y-49392777D01*
X59357620Y-49398038D01*
X59360242Y-49403582D01*
X59362309Y-49409357D01*
X59363799Y-49415307D01*
X59364699Y-49421374D01*
X59365000Y-49427500D01*
X59365000Y-50177500D01*
X59364699Y-50183626D01*
X59363799Y-50189693D01*
X59362309Y-50195643D01*
X59360242Y-50201418D01*
X59357620Y-50206962D01*
X59354467Y-50212223D01*
X59350813Y-50217150D01*
X59346694Y-50221694D01*
X59342150Y-50225813D01*
X59337223Y-50229467D01*
X59331962Y-50232620D01*
X59326418Y-50235242D01*
X59320643Y-50237309D01*
X59314693Y-50238799D01*
X59308626Y-50239699D01*
X59302500Y-50240000D01*
X59177500Y-50240000D01*
X59171374Y-50239699D01*
X59165307Y-50238799D01*
X59159357Y-50237309D01*
X59153582Y-50235242D01*
X59148038Y-50232620D01*
X59142777Y-50229467D01*
X59137850Y-50225813D01*
X59133306Y-50221694D01*
X59129187Y-50217150D01*
X59125533Y-50212223D01*
X59122380Y-50206962D01*
X59119758Y-50201418D01*
X59117691Y-50195643D01*
X59116201Y-50189693D01*
X59115301Y-50183626D01*
X59115000Y-50177500D01*
X59115000Y-49427500D01*
X59115301Y-49421374D01*
X59116201Y-49415307D01*
X59117691Y-49409357D01*
X59119758Y-49403582D01*
X59122380Y-49398038D01*
X59125533Y-49392777D01*
X59129187Y-49387850D01*
X59133306Y-49383306D01*
X59137850Y-49379187D01*
X59142777Y-49375533D01*
X59148038Y-49372380D01*
X59153582Y-49369758D01*
X59159357Y-49367691D01*
X59165307Y-49366201D01*
X59171374Y-49365301D01*
X59177500Y-49365000D01*
X59302500Y-49365000D01*
X59308626Y-49365301D01*
X59308626Y-49365301D01*
G37*
D34*
X59240000Y-49802500D03*
D11*
G36*
X59808626Y-49365301D02*
G01*
X59814693Y-49366201D01*
X59820643Y-49367691D01*
X59826418Y-49369758D01*
X59831962Y-49372380D01*
X59837223Y-49375533D01*
X59842150Y-49379187D01*
X59846694Y-49383306D01*
X59850813Y-49387850D01*
X59854467Y-49392777D01*
X59857620Y-49398038D01*
X59860242Y-49403582D01*
X59862309Y-49409357D01*
X59863799Y-49415307D01*
X59864699Y-49421374D01*
X59865000Y-49427500D01*
X59865000Y-50177500D01*
X59864699Y-50183626D01*
X59863799Y-50189693D01*
X59862309Y-50195643D01*
X59860242Y-50201418D01*
X59857620Y-50206962D01*
X59854467Y-50212223D01*
X59850813Y-50217150D01*
X59846694Y-50221694D01*
X59842150Y-50225813D01*
X59837223Y-50229467D01*
X59831962Y-50232620D01*
X59826418Y-50235242D01*
X59820643Y-50237309D01*
X59814693Y-50238799D01*
X59808626Y-50239699D01*
X59802500Y-50240000D01*
X59677500Y-50240000D01*
X59671374Y-50239699D01*
X59665307Y-50238799D01*
X59659357Y-50237309D01*
X59653582Y-50235242D01*
X59648038Y-50232620D01*
X59642777Y-50229467D01*
X59637850Y-50225813D01*
X59633306Y-50221694D01*
X59629187Y-50217150D01*
X59625533Y-50212223D01*
X59622380Y-50206962D01*
X59619758Y-50201418D01*
X59617691Y-50195643D01*
X59616201Y-50189693D01*
X59615301Y-50183626D01*
X59615000Y-50177500D01*
X59615000Y-49427500D01*
X59615301Y-49421374D01*
X59616201Y-49415307D01*
X59617691Y-49409357D01*
X59619758Y-49403582D01*
X59622380Y-49398038D01*
X59625533Y-49392777D01*
X59629187Y-49387850D01*
X59633306Y-49383306D01*
X59637850Y-49379187D01*
X59642777Y-49375533D01*
X59648038Y-49372380D01*
X59653582Y-49369758D01*
X59659357Y-49367691D01*
X59665307Y-49366201D01*
X59671374Y-49365301D01*
X59677500Y-49365000D01*
X59802500Y-49365000D01*
X59808626Y-49365301D01*
X59808626Y-49365301D01*
G37*
D34*
X59740000Y-49802500D03*
D11*
G36*
X60308626Y-49365301D02*
G01*
X60314693Y-49366201D01*
X60320643Y-49367691D01*
X60326418Y-49369758D01*
X60331962Y-49372380D01*
X60337223Y-49375533D01*
X60342150Y-49379187D01*
X60346694Y-49383306D01*
X60350813Y-49387850D01*
X60354467Y-49392777D01*
X60357620Y-49398038D01*
X60360242Y-49403582D01*
X60362309Y-49409357D01*
X60363799Y-49415307D01*
X60364699Y-49421374D01*
X60365000Y-49427500D01*
X60365000Y-50177500D01*
X60364699Y-50183626D01*
X60363799Y-50189693D01*
X60362309Y-50195643D01*
X60360242Y-50201418D01*
X60357620Y-50206962D01*
X60354467Y-50212223D01*
X60350813Y-50217150D01*
X60346694Y-50221694D01*
X60342150Y-50225813D01*
X60337223Y-50229467D01*
X60331962Y-50232620D01*
X60326418Y-50235242D01*
X60320643Y-50237309D01*
X60314693Y-50238799D01*
X60308626Y-50239699D01*
X60302500Y-50240000D01*
X60177500Y-50240000D01*
X60171374Y-50239699D01*
X60165307Y-50238799D01*
X60159357Y-50237309D01*
X60153582Y-50235242D01*
X60148038Y-50232620D01*
X60142777Y-50229467D01*
X60137850Y-50225813D01*
X60133306Y-50221694D01*
X60129187Y-50217150D01*
X60125533Y-50212223D01*
X60122380Y-50206962D01*
X60119758Y-50201418D01*
X60117691Y-50195643D01*
X60116201Y-50189693D01*
X60115301Y-50183626D01*
X60115000Y-50177500D01*
X60115000Y-49427500D01*
X60115301Y-49421374D01*
X60116201Y-49415307D01*
X60117691Y-49409357D01*
X60119758Y-49403582D01*
X60122380Y-49398038D01*
X60125533Y-49392777D01*
X60129187Y-49387850D01*
X60133306Y-49383306D01*
X60137850Y-49379187D01*
X60142777Y-49375533D01*
X60148038Y-49372380D01*
X60153582Y-49369758D01*
X60159357Y-49367691D01*
X60165307Y-49366201D01*
X60171374Y-49365301D01*
X60177500Y-49365000D01*
X60302500Y-49365000D01*
X60308626Y-49365301D01*
X60308626Y-49365301D01*
G37*
D34*
X60240000Y-49802500D03*
D11*
G36*
X60808626Y-49365301D02*
G01*
X60814693Y-49366201D01*
X60820643Y-49367691D01*
X60826418Y-49369758D01*
X60831962Y-49372380D01*
X60837223Y-49375533D01*
X60842150Y-49379187D01*
X60846694Y-49383306D01*
X60850813Y-49387850D01*
X60854467Y-49392777D01*
X60857620Y-49398038D01*
X60860242Y-49403582D01*
X60862309Y-49409357D01*
X60863799Y-49415307D01*
X60864699Y-49421374D01*
X60865000Y-49427500D01*
X60865000Y-50177500D01*
X60864699Y-50183626D01*
X60863799Y-50189693D01*
X60862309Y-50195643D01*
X60860242Y-50201418D01*
X60857620Y-50206962D01*
X60854467Y-50212223D01*
X60850813Y-50217150D01*
X60846694Y-50221694D01*
X60842150Y-50225813D01*
X60837223Y-50229467D01*
X60831962Y-50232620D01*
X60826418Y-50235242D01*
X60820643Y-50237309D01*
X60814693Y-50238799D01*
X60808626Y-50239699D01*
X60802500Y-50240000D01*
X60677500Y-50240000D01*
X60671374Y-50239699D01*
X60665307Y-50238799D01*
X60659357Y-50237309D01*
X60653582Y-50235242D01*
X60648038Y-50232620D01*
X60642777Y-50229467D01*
X60637850Y-50225813D01*
X60633306Y-50221694D01*
X60629187Y-50217150D01*
X60625533Y-50212223D01*
X60622380Y-50206962D01*
X60619758Y-50201418D01*
X60617691Y-50195643D01*
X60616201Y-50189693D01*
X60615301Y-50183626D01*
X60615000Y-50177500D01*
X60615000Y-49427500D01*
X60615301Y-49421374D01*
X60616201Y-49415307D01*
X60617691Y-49409357D01*
X60619758Y-49403582D01*
X60622380Y-49398038D01*
X60625533Y-49392777D01*
X60629187Y-49387850D01*
X60633306Y-49383306D01*
X60637850Y-49379187D01*
X60642777Y-49375533D01*
X60648038Y-49372380D01*
X60653582Y-49369758D01*
X60659357Y-49367691D01*
X60665307Y-49366201D01*
X60671374Y-49365301D01*
X60677500Y-49365000D01*
X60802500Y-49365000D01*
X60808626Y-49365301D01*
X60808626Y-49365301D01*
G37*
D34*
X60740000Y-49802500D03*
D11*
G36*
X61308626Y-49365301D02*
G01*
X61314693Y-49366201D01*
X61320643Y-49367691D01*
X61326418Y-49369758D01*
X61331962Y-49372380D01*
X61337223Y-49375533D01*
X61342150Y-49379187D01*
X61346694Y-49383306D01*
X61350813Y-49387850D01*
X61354467Y-49392777D01*
X61357620Y-49398038D01*
X61360242Y-49403582D01*
X61362309Y-49409357D01*
X61363799Y-49415307D01*
X61364699Y-49421374D01*
X61365000Y-49427500D01*
X61365000Y-50177500D01*
X61364699Y-50183626D01*
X61363799Y-50189693D01*
X61362309Y-50195643D01*
X61360242Y-50201418D01*
X61357620Y-50206962D01*
X61354467Y-50212223D01*
X61350813Y-50217150D01*
X61346694Y-50221694D01*
X61342150Y-50225813D01*
X61337223Y-50229467D01*
X61331962Y-50232620D01*
X61326418Y-50235242D01*
X61320643Y-50237309D01*
X61314693Y-50238799D01*
X61308626Y-50239699D01*
X61302500Y-50240000D01*
X61177500Y-50240000D01*
X61171374Y-50239699D01*
X61165307Y-50238799D01*
X61159357Y-50237309D01*
X61153582Y-50235242D01*
X61148038Y-50232620D01*
X61142777Y-50229467D01*
X61137850Y-50225813D01*
X61133306Y-50221694D01*
X61129187Y-50217150D01*
X61125533Y-50212223D01*
X61122380Y-50206962D01*
X61119758Y-50201418D01*
X61117691Y-50195643D01*
X61116201Y-50189693D01*
X61115301Y-50183626D01*
X61115000Y-50177500D01*
X61115000Y-49427500D01*
X61115301Y-49421374D01*
X61116201Y-49415307D01*
X61117691Y-49409357D01*
X61119758Y-49403582D01*
X61122380Y-49398038D01*
X61125533Y-49392777D01*
X61129187Y-49387850D01*
X61133306Y-49383306D01*
X61137850Y-49379187D01*
X61142777Y-49375533D01*
X61148038Y-49372380D01*
X61153582Y-49369758D01*
X61159357Y-49367691D01*
X61165307Y-49366201D01*
X61171374Y-49365301D01*
X61177500Y-49365000D01*
X61302500Y-49365000D01*
X61308626Y-49365301D01*
X61308626Y-49365301D01*
G37*
D34*
X61240000Y-49802500D03*
D11*
G36*
X61808626Y-49365301D02*
G01*
X61814693Y-49366201D01*
X61820643Y-49367691D01*
X61826418Y-49369758D01*
X61831962Y-49372380D01*
X61837223Y-49375533D01*
X61842150Y-49379187D01*
X61846694Y-49383306D01*
X61850813Y-49387850D01*
X61854467Y-49392777D01*
X61857620Y-49398038D01*
X61860242Y-49403582D01*
X61862309Y-49409357D01*
X61863799Y-49415307D01*
X61864699Y-49421374D01*
X61865000Y-49427500D01*
X61865000Y-50177500D01*
X61864699Y-50183626D01*
X61863799Y-50189693D01*
X61862309Y-50195643D01*
X61860242Y-50201418D01*
X61857620Y-50206962D01*
X61854467Y-50212223D01*
X61850813Y-50217150D01*
X61846694Y-50221694D01*
X61842150Y-50225813D01*
X61837223Y-50229467D01*
X61831962Y-50232620D01*
X61826418Y-50235242D01*
X61820643Y-50237309D01*
X61814693Y-50238799D01*
X61808626Y-50239699D01*
X61802500Y-50240000D01*
X61677500Y-50240000D01*
X61671374Y-50239699D01*
X61665307Y-50238799D01*
X61659357Y-50237309D01*
X61653582Y-50235242D01*
X61648038Y-50232620D01*
X61642777Y-50229467D01*
X61637850Y-50225813D01*
X61633306Y-50221694D01*
X61629187Y-50217150D01*
X61625533Y-50212223D01*
X61622380Y-50206962D01*
X61619758Y-50201418D01*
X61617691Y-50195643D01*
X61616201Y-50189693D01*
X61615301Y-50183626D01*
X61615000Y-50177500D01*
X61615000Y-49427500D01*
X61615301Y-49421374D01*
X61616201Y-49415307D01*
X61617691Y-49409357D01*
X61619758Y-49403582D01*
X61622380Y-49398038D01*
X61625533Y-49392777D01*
X61629187Y-49387850D01*
X61633306Y-49383306D01*
X61637850Y-49379187D01*
X61642777Y-49375533D01*
X61648038Y-49372380D01*
X61653582Y-49369758D01*
X61659357Y-49367691D01*
X61665307Y-49366201D01*
X61671374Y-49365301D01*
X61677500Y-49365000D01*
X61802500Y-49365000D01*
X61808626Y-49365301D01*
X61808626Y-49365301D01*
G37*
D34*
X61740000Y-49802500D03*
D11*
G36*
X62308626Y-49365301D02*
G01*
X62314693Y-49366201D01*
X62320643Y-49367691D01*
X62326418Y-49369758D01*
X62331962Y-49372380D01*
X62337223Y-49375533D01*
X62342150Y-49379187D01*
X62346694Y-49383306D01*
X62350813Y-49387850D01*
X62354467Y-49392777D01*
X62357620Y-49398038D01*
X62360242Y-49403582D01*
X62362309Y-49409357D01*
X62363799Y-49415307D01*
X62364699Y-49421374D01*
X62365000Y-49427500D01*
X62365000Y-50177500D01*
X62364699Y-50183626D01*
X62363799Y-50189693D01*
X62362309Y-50195643D01*
X62360242Y-50201418D01*
X62357620Y-50206962D01*
X62354467Y-50212223D01*
X62350813Y-50217150D01*
X62346694Y-50221694D01*
X62342150Y-50225813D01*
X62337223Y-50229467D01*
X62331962Y-50232620D01*
X62326418Y-50235242D01*
X62320643Y-50237309D01*
X62314693Y-50238799D01*
X62308626Y-50239699D01*
X62302500Y-50240000D01*
X62177500Y-50240000D01*
X62171374Y-50239699D01*
X62165307Y-50238799D01*
X62159357Y-50237309D01*
X62153582Y-50235242D01*
X62148038Y-50232620D01*
X62142777Y-50229467D01*
X62137850Y-50225813D01*
X62133306Y-50221694D01*
X62129187Y-50217150D01*
X62125533Y-50212223D01*
X62122380Y-50206962D01*
X62119758Y-50201418D01*
X62117691Y-50195643D01*
X62116201Y-50189693D01*
X62115301Y-50183626D01*
X62115000Y-50177500D01*
X62115000Y-49427500D01*
X62115301Y-49421374D01*
X62116201Y-49415307D01*
X62117691Y-49409357D01*
X62119758Y-49403582D01*
X62122380Y-49398038D01*
X62125533Y-49392777D01*
X62129187Y-49387850D01*
X62133306Y-49383306D01*
X62137850Y-49379187D01*
X62142777Y-49375533D01*
X62148038Y-49372380D01*
X62153582Y-49369758D01*
X62159357Y-49367691D01*
X62165307Y-49366201D01*
X62171374Y-49365301D01*
X62177500Y-49365000D01*
X62302500Y-49365000D01*
X62308626Y-49365301D01*
X62308626Y-49365301D01*
G37*
D34*
X62240000Y-49802500D03*
D11*
G36*
X63308626Y-50365301D02*
G01*
X63314693Y-50366201D01*
X63320643Y-50367691D01*
X63326418Y-50369758D01*
X63331962Y-50372380D01*
X63337223Y-50375533D01*
X63342150Y-50379187D01*
X63346694Y-50383306D01*
X63350813Y-50387850D01*
X63354467Y-50392777D01*
X63357620Y-50398038D01*
X63360242Y-50403582D01*
X63362309Y-50409357D01*
X63363799Y-50415307D01*
X63364699Y-50421374D01*
X63365000Y-50427500D01*
X63365000Y-50552500D01*
X63364699Y-50558626D01*
X63363799Y-50564693D01*
X63362309Y-50570643D01*
X63360242Y-50576418D01*
X63357620Y-50581962D01*
X63354467Y-50587223D01*
X63350813Y-50592150D01*
X63346694Y-50596694D01*
X63342150Y-50600813D01*
X63337223Y-50604467D01*
X63331962Y-50607620D01*
X63326418Y-50610242D01*
X63320643Y-50612309D01*
X63314693Y-50613799D01*
X63308626Y-50614699D01*
X63302500Y-50615000D01*
X62552500Y-50615000D01*
X62546374Y-50614699D01*
X62540307Y-50613799D01*
X62534357Y-50612309D01*
X62528582Y-50610242D01*
X62523038Y-50607620D01*
X62517777Y-50604467D01*
X62512850Y-50600813D01*
X62508306Y-50596694D01*
X62504187Y-50592150D01*
X62500533Y-50587223D01*
X62497380Y-50581962D01*
X62494758Y-50576418D01*
X62492691Y-50570643D01*
X62491201Y-50564693D01*
X62490301Y-50558626D01*
X62490000Y-50552500D01*
X62490000Y-50427500D01*
X62490301Y-50421374D01*
X62491201Y-50415307D01*
X62492691Y-50409357D01*
X62494758Y-50403582D01*
X62497380Y-50398038D01*
X62500533Y-50392777D01*
X62504187Y-50387850D01*
X62508306Y-50383306D01*
X62512850Y-50379187D01*
X62517777Y-50375533D01*
X62523038Y-50372380D01*
X62528582Y-50369758D01*
X62534357Y-50367691D01*
X62540307Y-50366201D01*
X62546374Y-50365301D01*
X62552500Y-50365000D01*
X63302500Y-50365000D01*
X63308626Y-50365301D01*
X63308626Y-50365301D01*
G37*
D34*
X62927500Y-50490000D03*
D11*
G36*
X63308626Y-50865301D02*
G01*
X63314693Y-50866201D01*
X63320643Y-50867691D01*
X63326418Y-50869758D01*
X63331962Y-50872380D01*
X63337223Y-50875533D01*
X63342150Y-50879187D01*
X63346694Y-50883306D01*
X63350813Y-50887850D01*
X63354467Y-50892777D01*
X63357620Y-50898038D01*
X63360242Y-50903582D01*
X63362309Y-50909357D01*
X63363799Y-50915307D01*
X63364699Y-50921374D01*
X63365000Y-50927500D01*
X63365000Y-51052500D01*
X63364699Y-51058626D01*
X63363799Y-51064693D01*
X63362309Y-51070643D01*
X63360242Y-51076418D01*
X63357620Y-51081962D01*
X63354467Y-51087223D01*
X63350813Y-51092150D01*
X63346694Y-51096694D01*
X63342150Y-51100813D01*
X63337223Y-51104467D01*
X63331962Y-51107620D01*
X63326418Y-51110242D01*
X63320643Y-51112309D01*
X63314693Y-51113799D01*
X63308626Y-51114699D01*
X63302500Y-51115000D01*
X62552500Y-51115000D01*
X62546374Y-51114699D01*
X62540307Y-51113799D01*
X62534357Y-51112309D01*
X62528582Y-51110242D01*
X62523038Y-51107620D01*
X62517777Y-51104467D01*
X62512850Y-51100813D01*
X62508306Y-51096694D01*
X62504187Y-51092150D01*
X62500533Y-51087223D01*
X62497380Y-51081962D01*
X62494758Y-51076418D01*
X62492691Y-51070643D01*
X62491201Y-51064693D01*
X62490301Y-51058626D01*
X62490000Y-51052500D01*
X62490000Y-50927500D01*
X62490301Y-50921374D01*
X62491201Y-50915307D01*
X62492691Y-50909357D01*
X62494758Y-50903582D01*
X62497380Y-50898038D01*
X62500533Y-50892777D01*
X62504187Y-50887850D01*
X62508306Y-50883306D01*
X62512850Y-50879187D01*
X62517777Y-50875533D01*
X62523038Y-50872380D01*
X62528582Y-50869758D01*
X62534357Y-50867691D01*
X62540307Y-50866201D01*
X62546374Y-50865301D01*
X62552500Y-50865000D01*
X63302500Y-50865000D01*
X63308626Y-50865301D01*
X63308626Y-50865301D01*
G37*
D34*
X62927500Y-50990000D03*
D11*
G36*
X63308626Y-51365301D02*
G01*
X63314693Y-51366201D01*
X63320643Y-51367691D01*
X63326418Y-51369758D01*
X63331962Y-51372380D01*
X63337223Y-51375533D01*
X63342150Y-51379187D01*
X63346694Y-51383306D01*
X63350813Y-51387850D01*
X63354467Y-51392777D01*
X63357620Y-51398038D01*
X63360242Y-51403582D01*
X63362309Y-51409357D01*
X63363799Y-51415307D01*
X63364699Y-51421374D01*
X63365000Y-51427500D01*
X63365000Y-51552500D01*
X63364699Y-51558626D01*
X63363799Y-51564693D01*
X63362309Y-51570643D01*
X63360242Y-51576418D01*
X63357620Y-51581962D01*
X63354467Y-51587223D01*
X63350813Y-51592150D01*
X63346694Y-51596694D01*
X63342150Y-51600813D01*
X63337223Y-51604467D01*
X63331962Y-51607620D01*
X63326418Y-51610242D01*
X63320643Y-51612309D01*
X63314693Y-51613799D01*
X63308626Y-51614699D01*
X63302500Y-51615000D01*
X62552500Y-51615000D01*
X62546374Y-51614699D01*
X62540307Y-51613799D01*
X62534357Y-51612309D01*
X62528582Y-51610242D01*
X62523038Y-51607620D01*
X62517777Y-51604467D01*
X62512850Y-51600813D01*
X62508306Y-51596694D01*
X62504187Y-51592150D01*
X62500533Y-51587223D01*
X62497380Y-51581962D01*
X62494758Y-51576418D01*
X62492691Y-51570643D01*
X62491201Y-51564693D01*
X62490301Y-51558626D01*
X62490000Y-51552500D01*
X62490000Y-51427500D01*
X62490301Y-51421374D01*
X62491201Y-51415307D01*
X62492691Y-51409357D01*
X62494758Y-51403582D01*
X62497380Y-51398038D01*
X62500533Y-51392777D01*
X62504187Y-51387850D01*
X62508306Y-51383306D01*
X62512850Y-51379187D01*
X62517777Y-51375533D01*
X62523038Y-51372380D01*
X62528582Y-51369758D01*
X62534357Y-51367691D01*
X62540307Y-51366201D01*
X62546374Y-51365301D01*
X62552500Y-51365000D01*
X63302500Y-51365000D01*
X63308626Y-51365301D01*
X63308626Y-51365301D01*
G37*
D34*
X62927500Y-51490000D03*
D11*
G36*
X63308626Y-51865301D02*
G01*
X63314693Y-51866201D01*
X63320643Y-51867691D01*
X63326418Y-51869758D01*
X63331962Y-51872380D01*
X63337223Y-51875533D01*
X63342150Y-51879187D01*
X63346694Y-51883306D01*
X63350813Y-51887850D01*
X63354467Y-51892777D01*
X63357620Y-51898038D01*
X63360242Y-51903582D01*
X63362309Y-51909357D01*
X63363799Y-51915307D01*
X63364699Y-51921374D01*
X63365000Y-51927500D01*
X63365000Y-52052500D01*
X63364699Y-52058626D01*
X63363799Y-52064693D01*
X63362309Y-52070643D01*
X63360242Y-52076418D01*
X63357620Y-52081962D01*
X63354467Y-52087223D01*
X63350813Y-52092150D01*
X63346694Y-52096694D01*
X63342150Y-52100813D01*
X63337223Y-52104467D01*
X63331962Y-52107620D01*
X63326418Y-52110242D01*
X63320643Y-52112309D01*
X63314693Y-52113799D01*
X63308626Y-52114699D01*
X63302500Y-52115000D01*
X62552500Y-52115000D01*
X62546374Y-52114699D01*
X62540307Y-52113799D01*
X62534357Y-52112309D01*
X62528582Y-52110242D01*
X62523038Y-52107620D01*
X62517777Y-52104467D01*
X62512850Y-52100813D01*
X62508306Y-52096694D01*
X62504187Y-52092150D01*
X62500533Y-52087223D01*
X62497380Y-52081962D01*
X62494758Y-52076418D01*
X62492691Y-52070643D01*
X62491201Y-52064693D01*
X62490301Y-52058626D01*
X62490000Y-52052500D01*
X62490000Y-51927500D01*
X62490301Y-51921374D01*
X62491201Y-51915307D01*
X62492691Y-51909357D01*
X62494758Y-51903582D01*
X62497380Y-51898038D01*
X62500533Y-51892777D01*
X62504187Y-51887850D01*
X62508306Y-51883306D01*
X62512850Y-51879187D01*
X62517777Y-51875533D01*
X62523038Y-51872380D01*
X62528582Y-51869758D01*
X62534357Y-51867691D01*
X62540307Y-51866201D01*
X62546374Y-51865301D01*
X62552500Y-51865000D01*
X63302500Y-51865000D01*
X63308626Y-51865301D01*
X63308626Y-51865301D01*
G37*
D34*
X62927500Y-51990000D03*
D11*
G36*
X63308626Y-52365301D02*
G01*
X63314693Y-52366201D01*
X63320643Y-52367691D01*
X63326418Y-52369758D01*
X63331962Y-52372380D01*
X63337223Y-52375533D01*
X63342150Y-52379187D01*
X63346694Y-52383306D01*
X63350813Y-52387850D01*
X63354467Y-52392777D01*
X63357620Y-52398038D01*
X63360242Y-52403582D01*
X63362309Y-52409357D01*
X63363799Y-52415307D01*
X63364699Y-52421374D01*
X63365000Y-52427500D01*
X63365000Y-52552500D01*
X63364699Y-52558626D01*
X63363799Y-52564693D01*
X63362309Y-52570643D01*
X63360242Y-52576418D01*
X63357620Y-52581962D01*
X63354467Y-52587223D01*
X63350813Y-52592150D01*
X63346694Y-52596694D01*
X63342150Y-52600813D01*
X63337223Y-52604467D01*
X63331962Y-52607620D01*
X63326418Y-52610242D01*
X63320643Y-52612309D01*
X63314693Y-52613799D01*
X63308626Y-52614699D01*
X63302500Y-52615000D01*
X62552500Y-52615000D01*
X62546374Y-52614699D01*
X62540307Y-52613799D01*
X62534357Y-52612309D01*
X62528582Y-52610242D01*
X62523038Y-52607620D01*
X62517777Y-52604467D01*
X62512850Y-52600813D01*
X62508306Y-52596694D01*
X62504187Y-52592150D01*
X62500533Y-52587223D01*
X62497380Y-52581962D01*
X62494758Y-52576418D01*
X62492691Y-52570643D01*
X62491201Y-52564693D01*
X62490301Y-52558626D01*
X62490000Y-52552500D01*
X62490000Y-52427500D01*
X62490301Y-52421374D01*
X62491201Y-52415307D01*
X62492691Y-52409357D01*
X62494758Y-52403582D01*
X62497380Y-52398038D01*
X62500533Y-52392777D01*
X62504187Y-52387850D01*
X62508306Y-52383306D01*
X62512850Y-52379187D01*
X62517777Y-52375533D01*
X62523038Y-52372380D01*
X62528582Y-52369758D01*
X62534357Y-52367691D01*
X62540307Y-52366201D01*
X62546374Y-52365301D01*
X62552500Y-52365000D01*
X63302500Y-52365000D01*
X63308626Y-52365301D01*
X63308626Y-52365301D01*
G37*
D34*
X62927500Y-52490000D03*
D11*
G36*
X63308626Y-52865301D02*
G01*
X63314693Y-52866201D01*
X63320643Y-52867691D01*
X63326418Y-52869758D01*
X63331962Y-52872380D01*
X63337223Y-52875533D01*
X63342150Y-52879187D01*
X63346694Y-52883306D01*
X63350813Y-52887850D01*
X63354467Y-52892777D01*
X63357620Y-52898038D01*
X63360242Y-52903582D01*
X63362309Y-52909357D01*
X63363799Y-52915307D01*
X63364699Y-52921374D01*
X63365000Y-52927500D01*
X63365000Y-53052500D01*
X63364699Y-53058626D01*
X63363799Y-53064693D01*
X63362309Y-53070643D01*
X63360242Y-53076418D01*
X63357620Y-53081962D01*
X63354467Y-53087223D01*
X63350813Y-53092150D01*
X63346694Y-53096694D01*
X63342150Y-53100813D01*
X63337223Y-53104467D01*
X63331962Y-53107620D01*
X63326418Y-53110242D01*
X63320643Y-53112309D01*
X63314693Y-53113799D01*
X63308626Y-53114699D01*
X63302500Y-53115000D01*
X62552500Y-53115000D01*
X62546374Y-53114699D01*
X62540307Y-53113799D01*
X62534357Y-53112309D01*
X62528582Y-53110242D01*
X62523038Y-53107620D01*
X62517777Y-53104467D01*
X62512850Y-53100813D01*
X62508306Y-53096694D01*
X62504187Y-53092150D01*
X62500533Y-53087223D01*
X62497380Y-53081962D01*
X62494758Y-53076418D01*
X62492691Y-53070643D01*
X62491201Y-53064693D01*
X62490301Y-53058626D01*
X62490000Y-53052500D01*
X62490000Y-52927500D01*
X62490301Y-52921374D01*
X62491201Y-52915307D01*
X62492691Y-52909357D01*
X62494758Y-52903582D01*
X62497380Y-52898038D01*
X62500533Y-52892777D01*
X62504187Y-52887850D01*
X62508306Y-52883306D01*
X62512850Y-52879187D01*
X62517777Y-52875533D01*
X62523038Y-52872380D01*
X62528582Y-52869758D01*
X62534357Y-52867691D01*
X62540307Y-52866201D01*
X62546374Y-52865301D01*
X62552500Y-52865000D01*
X63302500Y-52865000D01*
X63308626Y-52865301D01*
X63308626Y-52865301D01*
G37*
D34*
X62927500Y-52990000D03*
D11*
G36*
X63308626Y-53365301D02*
G01*
X63314693Y-53366201D01*
X63320643Y-53367691D01*
X63326418Y-53369758D01*
X63331962Y-53372380D01*
X63337223Y-53375533D01*
X63342150Y-53379187D01*
X63346694Y-53383306D01*
X63350813Y-53387850D01*
X63354467Y-53392777D01*
X63357620Y-53398038D01*
X63360242Y-53403582D01*
X63362309Y-53409357D01*
X63363799Y-53415307D01*
X63364699Y-53421374D01*
X63365000Y-53427500D01*
X63365000Y-53552500D01*
X63364699Y-53558626D01*
X63363799Y-53564693D01*
X63362309Y-53570643D01*
X63360242Y-53576418D01*
X63357620Y-53581962D01*
X63354467Y-53587223D01*
X63350813Y-53592150D01*
X63346694Y-53596694D01*
X63342150Y-53600813D01*
X63337223Y-53604467D01*
X63331962Y-53607620D01*
X63326418Y-53610242D01*
X63320643Y-53612309D01*
X63314693Y-53613799D01*
X63308626Y-53614699D01*
X63302500Y-53615000D01*
X62552500Y-53615000D01*
X62546374Y-53614699D01*
X62540307Y-53613799D01*
X62534357Y-53612309D01*
X62528582Y-53610242D01*
X62523038Y-53607620D01*
X62517777Y-53604467D01*
X62512850Y-53600813D01*
X62508306Y-53596694D01*
X62504187Y-53592150D01*
X62500533Y-53587223D01*
X62497380Y-53581962D01*
X62494758Y-53576418D01*
X62492691Y-53570643D01*
X62491201Y-53564693D01*
X62490301Y-53558626D01*
X62490000Y-53552500D01*
X62490000Y-53427500D01*
X62490301Y-53421374D01*
X62491201Y-53415307D01*
X62492691Y-53409357D01*
X62494758Y-53403582D01*
X62497380Y-53398038D01*
X62500533Y-53392777D01*
X62504187Y-53387850D01*
X62508306Y-53383306D01*
X62512850Y-53379187D01*
X62517777Y-53375533D01*
X62523038Y-53372380D01*
X62528582Y-53369758D01*
X62534357Y-53367691D01*
X62540307Y-53366201D01*
X62546374Y-53365301D01*
X62552500Y-53365000D01*
X63302500Y-53365000D01*
X63308626Y-53365301D01*
X63308626Y-53365301D01*
G37*
D34*
X62927500Y-53490000D03*
D11*
G36*
X63308626Y-53865301D02*
G01*
X63314693Y-53866201D01*
X63320643Y-53867691D01*
X63326418Y-53869758D01*
X63331962Y-53872380D01*
X63337223Y-53875533D01*
X63342150Y-53879187D01*
X63346694Y-53883306D01*
X63350813Y-53887850D01*
X63354467Y-53892777D01*
X63357620Y-53898038D01*
X63360242Y-53903582D01*
X63362309Y-53909357D01*
X63363799Y-53915307D01*
X63364699Y-53921374D01*
X63365000Y-53927500D01*
X63365000Y-54052500D01*
X63364699Y-54058626D01*
X63363799Y-54064693D01*
X63362309Y-54070643D01*
X63360242Y-54076418D01*
X63357620Y-54081962D01*
X63354467Y-54087223D01*
X63350813Y-54092150D01*
X63346694Y-54096694D01*
X63342150Y-54100813D01*
X63337223Y-54104467D01*
X63331962Y-54107620D01*
X63326418Y-54110242D01*
X63320643Y-54112309D01*
X63314693Y-54113799D01*
X63308626Y-54114699D01*
X63302500Y-54115000D01*
X62552500Y-54115000D01*
X62546374Y-54114699D01*
X62540307Y-54113799D01*
X62534357Y-54112309D01*
X62528582Y-54110242D01*
X62523038Y-54107620D01*
X62517777Y-54104467D01*
X62512850Y-54100813D01*
X62508306Y-54096694D01*
X62504187Y-54092150D01*
X62500533Y-54087223D01*
X62497380Y-54081962D01*
X62494758Y-54076418D01*
X62492691Y-54070643D01*
X62491201Y-54064693D01*
X62490301Y-54058626D01*
X62490000Y-54052500D01*
X62490000Y-53927500D01*
X62490301Y-53921374D01*
X62491201Y-53915307D01*
X62492691Y-53909357D01*
X62494758Y-53903582D01*
X62497380Y-53898038D01*
X62500533Y-53892777D01*
X62504187Y-53887850D01*
X62508306Y-53883306D01*
X62512850Y-53879187D01*
X62517777Y-53875533D01*
X62523038Y-53872380D01*
X62528582Y-53869758D01*
X62534357Y-53867691D01*
X62540307Y-53866201D01*
X62546374Y-53865301D01*
X62552500Y-53865000D01*
X63302500Y-53865000D01*
X63308626Y-53865301D01*
X63308626Y-53865301D01*
G37*
D34*
X62927500Y-53990000D03*
D35*
X35500000Y-78760000D03*
X35500000Y-79710000D03*
X35500000Y-80660000D03*
X33300000Y-80660000D03*
X33300000Y-78760000D03*
D36*
X73580000Y-56925000D03*
X72630000Y-56925000D03*
X71680000Y-56925000D03*
X71680000Y-54555000D03*
X72630000Y-54555000D03*
X73580000Y-54555000D03*
X17000000Y-60225000D03*
X16050000Y-60225000D03*
X15100000Y-60225000D03*
X15100000Y-62595000D03*
X16050000Y-62595000D03*
X17000000Y-62595000D03*
D37*
X33854999Y-65004999D03*
X35154999Y-65004999D03*
X34504999Y-63104999D03*
X34504999Y-65004999D03*
X35154999Y-63104999D03*
X33854999Y-63104999D03*
X35154999Y-60754999D03*
X33854999Y-60754999D03*
X34504999Y-58854999D03*
X34504999Y-60754999D03*
X33854999Y-58854999D03*
X35154999Y-58854999D03*
D11*
G36*
X37039504Y-73656204D02*
G01*
X37063773Y-73659804D01*
X37087571Y-73665765D01*
X37110671Y-73674030D01*
X37132849Y-73684520D01*
X37153893Y-73697133D01*
X37173598Y-73711747D01*
X37191777Y-73728223D01*
X37208253Y-73746402D01*
X37222867Y-73766107D01*
X37235480Y-73787151D01*
X37245970Y-73809329D01*
X37254235Y-73832429D01*
X37260196Y-73856227D01*
X37263796Y-73880496D01*
X37265000Y-73905000D01*
X37265000Y-74655000D01*
X37263796Y-74679504D01*
X37260196Y-74703773D01*
X37254235Y-74727571D01*
X37245970Y-74750671D01*
X37235480Y-74772849D01*
X37222867Y-74793893D01*
X37208253Y-74813598D01*
X37191777Y-74831777D01*
X37173598Y-74848253D01*
X37153893Y-74862867D01*
X37132849Y-74875480D01*
X37110671Y-74885970D01*
X37087571Y-74894235D01*
X37063773Y-74900196D01*
X37039504Y-74903796D01*
X37015000Y-74905000D01*
X35765000Y-74905000D01*
X35740496Y-74903796D01*
X35716227Y-74900196D01*
X35692429Y-74894235D01*
X35669329Y-74885970D01*
X35647151Y-74875480D01*
X35626107Y-74862867D01*
X35606402Y-74848253D01*
X35588223Y-74831777D01*
X35571747Y-74813598D01*
X35557133Y-74793893D01*
X35544520Y-74772849D01*
X35534030Y-74750671D01*
X35525765Y-74727571D01*
X35519804Y-74703773D01*
X35516204Y-74679504D01*
X35515000Y-74655000D01*
X35515000Y-73905000D01*
X35516204Y-73880496D01*
X35519804Y-73856227D01*
X35525765Y-73832429D01*
X35534030Y-73809329D01*
X35544520Y-73787151D01*
X35557133Y-73766107D01*
X35571747Y-73746402D01*
X35588223Y-73728223D01*
X35606402Y-73711747D01*
X35626107Y-73697133D01*
X35647151Y-73684520D01*
X35669329Y-73674030D01*
X35692429Y-73665765D01*
X35716227Y-73659804D01*
X35740496Y-73656204D01*
X35765000Y-73655000D01*
X37015000Y-73655000D01*
X37039504Y-73656204D01*
X37039504Y-73656204D01*
G37*
D38*
X36390000Y-74280000D03*
D11*
G36*
X37039504Y-70856204D02*
G01*
X37063773Y-70859804D01*
X37087571Y-70865765D01*
X37110671Y-70874030D01*
X37132849Y-70884520D01*
X37153893Y-70897133D01*
X37173598Y-70911747D01*
X37191777Y-70928223D01*
X37208253Y-70946402D01*
X37222867Y-70966107D01*
X37235480Y-70987151D01*
X37245970Y-71009329D01*
X37254235Y-71032429D01*
X37260196Y-71056227D01*
X37263796Y-71080496D01*
X37265000Y-71105000D01*
X37265000Y-71855000D01*
X37263796Y-71879504D01*
X37260196Y-71903773D01*
X37254235Y-71927571D01*
X37245970Y-71950671D01*
X37235480Y-71972849D01*
X37222867Y-71993893D01*
X37208253Y-72013598D01*
X37191777Y-72031777D01*
X37173598Y-72048253D01*
X37153893Y-72062867D01*
X37132849Y-72075480D01*
X37110671Y-72085970D01*
X37087571Y-72094235D01*
X37063773Y-72100196D01*
X37039504Y-72103796D01*
X37015000Y-72105000D01*
X35765000Y-72105000D01*
X35740496Y-72103796D01*
X35716227Y-72100196D01*
X35692429Y-72094235D01*
X35669329Y-72085970D01*
X35647151Y-72075480D01*
X35626107Y-72062867D01*
X35606402Y-72048253D01*
X35588223Y-72031777D01*
X35571747Y-72013598D01*
X35557133Y-71993893D01*
X35544520Y-71972849D01*
X35534030Y-71950671D01*
X35525765Y-71927571D01*
X35519804Y-71903773D01*
X35516204Y-71879504D01*
X35515000Y-71855000D01*
X35515000Y-71105000D01*
X35516204Y-71080496D01*
X35519804Y-71056227D01*
X35525765Y-71032429D01*
X35534030Y-71009329D01*
X35544520Y-70987151D01*
X35557133Y-70966107D01*
X35571747Y-70946402D01*
X35588223Y-70928223D01*
X35606402Y-70911747D01*
X35626107Y-70897133D01*
X35647151Y-70884520D01*
X35669329Y-70874030D01*
X35692429Y-70865765D01*
X35716227Y-70859804D01*
X35740496Y-70856204D01*
X35765000Y-70855000D01*
X37015000Y-70855000D01*
X37039504Y-70856204D01*
X37039504Y-70856204D01*
G37*
D38*
X36390000Y-71480000D03*
D11*
G36*
X59077642Y-47021174D02*
G01*
X59101303Y-47024684D01*
X59124507Y-47030496D01*
X59147029Y-47038554D01*
X59168653Y-47048782D01*
X59189170Y-47061079D01*
X59208383Y-47075329D01*
X59226107Y-47091393D01*
X59242171Y-47109117D01*
X59256421Y-47128330D01*
X59268718Y-47148847D01*
X59278946Y-47170471D01*
X59287004Y-47192993D01*
X59292816Y-47216197D01*
X59296326Y-47239858D01*
X59297500Y-47263750D01*
X59297500Y-48176250D01*
X59296326Y-48200142D01*
X59292816Y-48223803D01*
X59287004Y-48247007D01*
X59278946Y-48269529D01*
X59268718Y-48291153D01*
X59256421Y-48311670D01*
X59242171Y-48330883D01*
X59226107Y-48348607D01*
X59208383Y-48364671D01*
X59189170Y-48378921D01*
X59168653Y-48391218D01*
X59147029Y-48401446D01*
X59124507Y-48409504D01*
X59101303Y-48415316D01*
X59077642Y-48418826D01*
X59053750Y-48420000D01*
X58566250Y-48420000D01*
X58542358Y-48418826D01*
X58518697Y-48415316D01*
X58495493Y-48409504D01*
X58472971Y-48401446D01*
X58451347Y-48391218D01*
X58430830Y-48378921D01*
X58411617Y-48364671D01*
X58393893Y-48348607D01*
X58377829Y-48330883D01*
X58363579Y-48311670D01*
X58351282Y-48291153D01*
X58341054Y-48269529D01*
X58332996Y-48247007D01*
X58327184Y-48223803D01*
X58323674Y-48200142D01*
X58322500Y-48176250D01*
X58322500Y-47263750D01*
X58323674Y-47239858D01*
X58327184Y-47216197D01*
X58332996Y-47192993D01*
X58341054Y-47170471D01*
X58351282Y-47148847D01*
X58363579Y-47128330D01*
X58377829Y-47109117D01*
X58393893Y-47091393D01*
X58411617Y-47075329D01*
X58430830Y-47061079D01*
X58451347Y-47048782D01*
X58472971Y-47038554D01*
X58495493Y-47030496D01*
X58518697Y-47024684D01*
X58542358Y-47021174D01*
X58566250Y-47020000D01*
X59053750Y-47020000D01*
X59077642Y-47021174D01*
X59077642Y-47021174D01*
G37*
D39*
X58810000Y-47720000D03*
D11*
G36*
X60952642Y-47021174D02*
G01*
X60976303Y-47024684D01*
X60999507Y-47030496D01*
X61022029Y-47038554D01*
X61043653Y-47048782D01*
X61064170Y-47061079D01*
X61083383Y-47075329D01*
X61101107Y-47091393D01*
X61117171Y-47109117D01*
X61131421Y-47128330D01*
X61143718Y-47148847D01*
X61153946Y-47170471D01*
X61162004Y-47192993D01*
X61167816Y-47216197D01*
X61171326Y-47239858D01*
X61172500Y-47263750D01*
X61172500Y-48176250D01*
X61171326Y-48200142D01*
X61167816Y-48223803D01*
X61162004Y-48247007D01*
X61153946Y-48269529D01*
X61143718Y-48291153D01*
X61131421Y-48311670D01*
X61117171Y-48330883D01*
X61101107Y-48348607D01*
X61083383Y-48364671D01*
X61064170Y-48378921D01*
X61043653Y-48391218D01*
X61022029Y-48401446D01*
X60999507Y-48409504D01*
X60976303Y-48415316D01*
X60952642Y-48418826D01*
X60928750Y-48420000D01*
X60441250Y-48420000D01*
X60417358Y-48418826D01*
X60393697Y-48415316D01*
X60370493Y-48409504D01*
X60347971Y-48401446D01*
X60326347Y-48391218D01*
X60305830Y-48378921D01*
X60286617Y-48364671D01*
X60268893Y-48348607D01*
X60252829Y-48330883D01*
X60238579Y-48311670D01*
X60226282Y-48291153D01*
X60216054Y-48269529D01*
X60207996Y-48247007D01*
X60202184Y-48223803D01*
X60198674Y-48200142D01*
X60197500Y-48176250D01*
X60197500Y-47263750D01*
X60198674Y-47239858D01*
X60202184Y-47216197D01*
X60207996Y-47192993D01*
X60216054Y-47170471D01*
X60226282Y-47148847D01*
X60238579Y-47128330D01*
X60252829Y-47109117D01*
X60268893Y-47091393D01*
X60286617Y-47075329D01*
X60305830Y-47061079D01*
X60326347Y-47048782D01*
X60347971Y-47038554D01*
X60370493Y-47030496D01*
X60393697Y-47024684D01*
X60417358Y-47021174D01*
X60441250Y-47020000D01*
X60928750Y-47020000D01*
X60952642Y-47021174D01*
X60952642Y-47021174D01*
G37*
D39*
X60685000Y-47720000D03*
D11*
G36*
X76480142Y-36171174D02*
G01*
X76503803Y-36174684D01*
X76527007Y-36180496D01*
X76549529Y-36188554D01*
X76571153Y-36198782D01*
X76591670Y-36211079D01*
X76610883Y-36225329D01*
X76628607Y-36241393D01*
X76644671Y-36259117D01*
X76658921Y-36278330D01*
X76671218Y-36298847D01*
X76681446Y-36320471D01*
X76689504Y-36342993D01*
X76695316Y-36366197D01*
X76698826Y-36389858D01*
X76700000Y-36413750D01*
X76700000Y-36901250D01*
X76698826Y-36925142D01*
X76695316Y-36948803D01*
X76689504Y-36972007D01*
X76681446Y-36994529D01*
X76671218Y-37016153D01*
X76658921Y-37036670D01*
X76644671Y-37055883D01*
X76628607Y-37073607D01*
X76610883Y-37089671D01*
X76591670Y-37103921D01*
X76571153Y-37116218D01*
X76549529Y-37126446D01*
X76527007Y-37134504D01*
X76503803Y-37140316D01*
X76480142Y-37143826D01*
X76456250Y-37145000D01*
X75543750Y-37145000D01*
X75519858Y-37143826D01*
X75496197Y-37140316D01*
X75472993Y-37134504D01*
X75450471Y-37126446D01*
X75428847Y-37116218D01*
X75408330Y-37103921D01*
X75389117Y-37089671D01*
X75371393Y-37073607D01*
X75355329Y-37055883D01*
X75341079Y-37036670D01*
X75328782Y-37016153D01*
X75318554Y-36994529D01*
X75310496Y-36972007D01*
X75304684Y-36948803D01*
X75301174Y-36925142D01*
X75300000Y-36901250D01*
X75300000Y-36413750D01*
X75301174Y-36389858D01*
X75304684Y-36366197D01*
X75310496Y-36342993D01*
X75318554Y-36320471D01*
X75328782Y-36298847D01*
X75341079Y-36278330D01*
X75355329Y-36259117D01*
X75371393Y-36241393D01*
X75389117Y-36225329D01*
X75408330Y-36211079D01*
X75428847Y-36198782D01*
X75450471Y-36188554D01*
X75472993Y-36180496D01*
X75496197Y-36174684D01*
X75519858Y-36171174D01*
X75543750Y-36170000D01*
X76456250Y-36170000D01*
X76480142Y-36171174D01*
X76480142Y-36171174D01*
G37*
D39*
X76000000Y-36657500D03*
D11*
G36*
X76480142Y-34296174D02*
G01*
X76503803Y-34299684D01*
X76527007Y-34305496D01*
X76549529Y-34313554D01*
X76571153Y-34323782D01*
X76591670Y-34336079D01*
X76610883Y-34350329D01*
X76628607Y-34366393D01*
X76644671Y-34384117D01*
X76658921Y-34403330D01*
X76671218Y-34423847D01*
X76681446Y-34445471D01*
X76689504Y-34467993D01*
X76695316Y-34491197D01*
X76698826Y-34514858D01*
X76700000Y-34538750D01*
X76700000Y-35026250D01*
X76698826Y-35050142D01*
X76695316Y-35073803D01*
X76689504Y-35097007D01*
X76681446Y-35119529D01*
X76671218Y-35141153D01*
X76658921Y-35161670D01*
X76644671Y-35180883D01*
X76628607Y-35198607D01*
X76610883Y-35214671D01*
X76591670Y-35228921D01*
X76571153Y-35241218D01*
X76549529Y-35251446D01*
X76527007Y-35259504D01*
X76503803Y-35265316D01*
X76480142Y-35268826D01*
X76456250Y-35270000D01*
X75543750Y-35270000D01*
X75519858Y-35268826D01*
X75496197Y-35265316D01*
X75472993Y-35259504D01*
X75450471Y-35251446D01*
X75428847Y-35241218D01*
X75408330Y-35228921D01*
X75389117Y-35214671D01*
X75371393Y-35198607D01*
X75355329Y-35180883D01*
X75341079Y-35161670D01*
X75328782Y-35141153D01*
X75318554Y-35119529D01*
X75310496Y-35097007D01*
X75304684Y-35073803D01*
X75301174Y-35050142D01*
X75300000Y-35026250D01*
X75300000Y-34538750D01*
X75301174Y-34514858D01*
X75304684Y-34491197D01*
X75310496Y-34467993D01*
X75318554Y-34445471D01*
X75328782Y-34423847D01*
X75341079Y-34403330D01*
X75355329Y-34384117D01*
X75371393Y-34366393D01*
X75389117Y-34350329D01*
X75408330Y-34336079D01*
X75428847Y-34323782D01*
X75450471Y-34313554D01*
X75472993Y-34305496D01*
X75496197Y-34299684D01*
X75519858Y-34296174D01*
X75543750Y-34295000D01*
X76456250Y-34295000D01*
X76480142Y-34296174D01*
X76480142Y-34296174D01*
G37*
D39*
X76000000Y-34782500D03*
D11*
G36*
X29530142Y-56011174D02*
G01*
X29553803Y-56014684D01*
X29577007Y-56020496D01*
X29599529Y-56028554D01*
X29621153Y-56038782D01*
X29641670Y-56051079D01*
X29660883Y-56065329D01*
X29678607Y-56081393D01*
X29694671Y-56099117D01*
X29708921Y-56118330D01*
X29721218Y-56138847D01*
X29731446Y-56160471D01*
X29739504Y-56182993D01*
X29745316Y-56206197D01*
X29748826Y-56229858D01*
X29750000Y-56253750D01*
X29750000Y-57166250D01*
X29748826Y-57190142D01*
X29745316Y-57213803D01*
X29739504Y-57237007D01*
X29731446Y-57259529D01*
X29721218Y-57281153D01*
X29708921Y-57301670D01*
X29694671Y-57320883D01*
X29678607Y-57338607D01*
X29660883Y-57354671D01*
X29641670Y-57368921D01*
X29621153Y-57381218D01*
X29599529Y-57391446D01*
X29577007Y-57399504D01*
X29553803Y-57405316D01*
X29530142Y-57408826D01*
X29506250Y-57410000D01*
X29018750Y-57410000D01*
X28994858Y-57408826D01*
X28971197Y-57405316D01*
X28947993Y-57399504D01*
X28925471Y-57391446D01*
X28903847Y-57381218D01*
X28883330Y-57368921D01*
X28864117Y-57354671D01*
X28846393Y-57338607D01*
X28830329Y-57320883D01*
X28816079Y-57301670D01*
X28803782Y-57281153D01*
X28793554Y-57259529D01*
X28785496Y-57237007D01*
X28779684Y-57213803D01*
X28776174Y-57190142D01*
X28775000Y-57166250D01*
X28775000Y-56253750D01*
X28776174Y-56229858D01*
X28779684Y-56206197D01*
X28785496Y-56182993D01*
X28793554Y-56160471D01*
X28803782Y-56138847D01*
X28816079Y-56118330D01*
X28830329Y-56099117D01*
X28846393Y-56081393D01*
X28864117Y-56065329D01*
X28883330Y-56051079D01*
X28903847Y-56038782D01*
X28925471Y-56028554D01*
X28947993Y-56020496D01*
X28971197Y-56014684D01*
X28994858Y-56011174D01*
X29018750Y-56010000D01*
X29506250Y-56010000D01*
X29530142Y-56011174D01*
X29530142Y-56011174D01*
G37*
D39*
X29262500Y-56710000D03*
D11*
G36*
X31405142Y-56011174D02*
G01*
X31428803Y-56014684D01*
X31452007Y-56020496D01*
X31474529Y-56028554D01*
X31496153Y-56038782D01*
X31516670Y-56051079D01*
X31535883Y-56065329D01*
X31553607Y-56081393D01*
X31569671Y-56099117D01*
X31583921Y-56118330D01*
X31596218Y-56138847D01*
X31606446Y-56160471D01*
X31614504Y-56182993D01*
X31620316Y-56206197D01*
X31623826Y-56229858D01*
X31625000Y-56253750D01*
X31625000Y-57166250D01*
X31623826Y-57190142D01*
X31620316Y-57213803D01*
X31614504Y-57237007D01*
X31606446Y-57259529D01*
X31596218Y-57281153D01*
X31583921Y-57301670D01*
X31569671Y-57320883D01*
X31553607Y-57338607D01*
X31535883Y-57354671D01*
X31516670Y-57368921D01*
X31496153Y-57381218D01*
X31474529Y-57391446D01*
X31452007Y-57399504D01*
X31428803Y-57405316D01*
X31405142Y-57408826D01*
X31381250Y-57410000D01*
X30893750Y-57410000D01*
X30869858Y-57408826D01*
X30846197Y-57405316D01*
X30822993Y-57399504D01*
X30800471Y-57391446D01*
X30778847Y-57381218D01*
X30758330Y-57368921D01*
X30739117Y-57354671D01*
X30721393Y-57338607D01*
X30705329Y-57320883D01*
X30691079Y-57301670D01*
X30678782Y-57281153D01*
X30668554Y-57259529D01*
X30660496Y-57237007D01*
X30654684Y-57213803D01*
X30651174Y-57190142D01*
X30650000Y-57166250D01*
X30650000Y-56253750D01*
X30651174Y-56229858D01*
X30654684Y-56206197D01*
X30660496Y-56182993D01*
X30668554Y-56160471D01*
X30678782Y-56138847D01*
X30691079Y-56118330D01*
X30705329Y-56099117D01*
X30721393Y-56081393D01*
X30739117Y-56065329D01*
X30758330Y-56051079D01*
X30778847Y-56038782D01*
X30800471Y-56028554D01*
X30822993Y-56020496D01*
X30846197Y-56014684D01*
X30869858Y-56011174D01*
X30893750Y-56010000D01*
X31381250Y-56010000D01*
X31405142Y-56011174D01*
X31405142Y-56011174D01*
G37*
D39*
X31137500Y-56710000D03*
D11*
G36*
X10355142Y-53381174D02*
G01*
X10378803Y-53384684D01*
X10402007Y-53390496D01*
X10424529Y-53398554D01*
X10446153Y-53408782D01*
X10466670Y-53421079D01*
X10485883Y-53435329D01*
X10503607Y-53451393D01*
X10519671Y-53469117D01*
X10533921Y-53488330D01*
X10546218Y-53508847D01*
X10556446Y-53530471D01*
X10564504Y-53552993D01*
X10570316Y-53576197D01*
X10573826Y-53599858D01*
X10575000Y-53623750D01*
X10575000Y-54536250D01*
X10573826Y-54560142D01*
X10570316Y-54583803D01*
X10564504Y-54607007D01*
X10556446Y-54629529D01*
X10546218Y-54651153D01*
X10533921Y-54671670D01*
X10519671Y-54690883D01*
X10503607Y-54708607D01*
X10485883Y-54724671D01*
X10466670Y-54738921D01*
X10446153Y-54751218D01*
X10424529Y-54761446D01*
X10402007Y-54769504D01*
X10378803Y-54775316D01*
X10355142Y-54778826D01*
X10331250Y-54780000D01*
X9843750Y-54780000D01*
X9819858Y-54778826D01*
X9796197Y-54775316D01*
X9772993Y-54769504D01*
X9750471Y-54761446D01*
X9728847Y-54751218D01*
X9708330Y-54738921D01*
X9689117Y-54724671D01*
X9671393Y-54708607D01*
X9655329Y-54690883D01*
X9641079Y-54671670D01*
X9628782Y-54651153D01*
X9618554Y-54629529D01*
X9610496Y-54607007D01*
X9604684Y-54583803D01*
X9601174Y-54560142D01*
X9600000Y-54536250D01*
X9600000Y-53623750D01*
X9601174Y-53599858D01*
X9604684Y-53576197D01*
X9610496Y-53552993D01*
X9618554Y-53530471D01*
X9628782Y-53508847D01*
X9641079Y-53488330D01*
X9655329Y-53469117D01*
X9671393Y-53451393D01*
X9689117Y-53435329D01*
X9708330Y-53421079D01*
X9728847Y-53408782D01*
X9750471Y-53398554D01*
X9772993Y-53390496D01*
X9796197Y-53384684D01*
X9819858Y-53381174D01*
X9843750Y-53380000D01*
X10331250Y-53380000D01*
X10355142Y-53381174D01*
X10355142Y-53381174D01*
G37*
D39*
X10087500Y-54080000D03*
D11*
G36*
X8480142Y-53381174D02*
G01*
X8503803Y-53384684D01*
X8527007Y-53390496D01*
X8549529Y-53398554D01*
X8571153Y-53408782D01*
X8591670Y-53421079D01*
X8610883Y-53435329D01*
X8628607Y-53451393D01*
X8644671Y-53469117D01*
X8658921Y-53488330D01*
X8671218Y-53508847D01*
X8681446Y-53530471D01*
X8689504Y-53552993D01*
X8695316Y-53576197D01*
X8698826Y-53599858D01*
X8700000Y-53623750D01*
X8700000Y-54536250D01*
X8698826Y-54560142D01*
X8695316Y-54583803D01*
X8689504Y-54607007D01*
X8681446Y-54629529D01*
X8671218Y-54651153D01*
X8658921Y-54671670D01*
X8644671Y-54690883D01*
X8628607Y-54708607D01*
X8610883Y-54724671D01*
X8591670Y-54738921D01*
X8571153Y-54751218D01*
X8549529Y-54761446D01*
X8527007Y-54769504D01*
X8503803Y-54775316D01*
X8480142Y-54778826D01*
X8456250Y-54780000D01*
X7968750Y-54780000D01*
X7944858Y-54778826D01*
X7921197Y-54775316D01*
X7897993Y-54769504D01*
X7875471Y-54761446D01*
X7853847Y-54751218D01*
X7833330Y-54738921D01*
X7814117Y-54724671D01*
X7796393Y-54708607D01*
X7780329Y-54690883D01*
X7766079Y-54671670D01*
X7753782Y-54651153D01*
X7743554Y-54629529D01*
X7735496Y-54607007D01*
X7729684Y-54583803D01*
X7726174Y-54560142D01*
X7725000Y-54536250D01*
X7725000Y-53623750D01*
X7726174Y-53599858D01*
X7729684Y-53576197D01*
X7735496Y-53552993D01*
X7743554Y-53530471D01*
X7753782Y-53508847D01*
X7766079Y-53488330D01*
X7780329Y-53469117D01*
X7796393Y-53451393D01*
X7814117Y-53435329D01*
X7833330Y-53421079D01*
X7853847Y-53408782D01*
X7875471Y-53398554D01*
X7897993Y-53390496D01*
X7921197Y-53384684D01*
X7944858Y-53381174D01*
X7968750Y-53380000D01*
X8456250Y-53380000D01*
X8480142Y-53381174D01*
X8480142Y-53381174D01*
G37*
D39*
X8212500Y-54080000D03*
D11*
G36*
X83470142Y-25676174D02*
G01*
X83493803Y-25679684D01*
X83517007Y-25685496D01*
X83539529Y-25693554D01*
X83561153Y-25703782D01*
X83581670Y-25716079D01*
X83600883Y-25730329D01*
X83618607Y-25746393D01*
X83634671Y-25764117D01*
X83648921Y-25783330D01*
X83661218Y-25803847D01*
X83671446Y-25825471D01*
X83679504Y-25847993D01*
X83685316Y-25871197D01*
X83688826Y-25894858D01*
X83690000Y-25918750D01*
X83690000Y-26406250D01*
X83688826Y-26430142D01*
X83685316Y-26453803D01*
X83679504Y-26477007D01*
X83671446Y-26499529D01*
X83661218Y-26521153D01*
X83648921Y-26541670D01*
X83634671Y-26560883D01*
X83618607Y-26578607D01*
X83600883Y-26594671D01*
X83581670Y-26608921D01*
X83561153Y-26621218D01*
X83539529Y-26631446D01*
X83517007Y-26639504D01*
X83493803Y-26645316D01*
X83470142Y-26648826D01*
X83446250Y-26650000D01*
X82533750Y-26650000D01*
X82509858Y-26648826D01*
X82486197Y-26645316D01*
X82462993Y-26639504D01*
X82440471Y-26631446D01*
X82418847Y-26621218D01*
X82398330Y-26608921D01*
X82379117Y-26594671D01*
X82361393Y-26578607D01*
X82345329Y-26560883D01*
X82331079Y-26541670D01*
X82318782Y-26521153D01*
X82308554Y-26499529D01*
X82300496Y-26477007D01*
X82294684Y-26453803D01*
X82291174Y-26430142D01*
X82290000Y-26406250D01*
X82290000Y-25918750D01*
X82291174Y-25894858D01*
X82294684Y-25871197D01*
X82300496Y-25847993D01*
X82308554Y-25825471D01*
X82318782Y-25803847D01*
X82331079Y-25783330D01*
X82345329Y-25764117D01*
X82361393Y-25746393D01*
X82379117Y-25730329D01*
X82398330Y-25716079D01*
X82418847Y-25703782D01*
X82440471Y-25693554D01*
X82462993Y-25685496D01*
X82486197Y-25679684D01*
X82509858Y-25676174D01*
X82533750Y-25675000D01*
X83446250Y-25675000D01*
X83470142Y-25676174D01*
X83470142Y-25676174D01*
G37*
D39*
X82990000Y-26162500D03*
D11*
G36*
X83470142Y-27551174D02*
G01*
X83493803Y-27554684D01*
X83517007Y-27560496D01*
X83539529Y-27568554D01*
X83561153Y-27578782D01*
X83581670Y-27591079D01*
X83600883Y-27605329D01*
X83618607Y-27621393D01*
X83634671Y-27639117D01*
X83648921Y-27658330D01*
X83661218Y-27678847D01*
X83671446Y-27700471D01*
X83679504Y-27722993D01*
X83685316Y-27746197D01*
X83688826Y-27769858D01*
X83690000Y-27793750D01*
X83690000Y-28281250D01*
X83688826Y-28305142D01*
X83685316Y-28328803D01*
X83679504Y-28352007D01*
X83671446Y-28374529D01*
X83661218Y-28396153D01*
X83648921Y-28416670D01*
X83634671Y-28435883D01*
X83618607Y-28453607D01*
X83600883Y-28469671D01*
X83581670Y-28483921D01*
X83561153Y-28496218D01*
X83539529Y-28506446D01*
X83517007Y-28514504D01*
X83493803Y-28520316D01*
X83470142Y-28523826D01*
X83446250Y-28525000D01*
X82533750Y-28525000D01*
X82509858Y-28523826D01*
X82486197Y-28520316D01*
X82462993Y-28514504D01*
X82440471Y-28506446D01*
X82418847Y-28496218D01*
X82398330Y-28483921D01*
X82379117Y-28469671D01*
X82361393Y-28453607D01*
X82345329Y-28435883D01*
X82331079Y-28416670D01*
X82318782Y-28396153D01*
X82308554Y-28374529D01*
X82300496Y-28352007D01*
X82294684Y-28328803D01*
X82291174Y-28305142D01*
X82290000Y-28281250D01*
X82290000Y-27793750D01*
X82291174Y-27769858D01*
X82294684Y-27746197D01*
X82300496Y-27722993D01*
X82308554Y-27700471D01*
X82318782Y-27678847D01*
X82331079Y-27658330D01*
X82345329Y-27639117D01*
X82361393Y-27621393D01*
X82379117Y-27605329D01*
X82398330Y-27591079D01*
X82418847Y-27578782D01*
X82440471Y-27568554D01*
X82462993Y-27560496D01*
X82486197Y-27554684D01*
X82509858Y-27551174D01*
X82533750Y-27550000D01*
X83446250Y-27550000D01*
X83470142Y-27551174D01*
X83470142Y-27551174D01*
G37*
D39*
X82990000Y-28037500D03*
D11*
G36*
X54860142Y-27571174D02*
G01*
X54883803Y-27574684D01*
X54907007Y-27580496D01*
X54929529Y-27588554D01*
X54951153Y-27598782D01*
X54971670Y-27611079D01*
X54990883Y-27625329D01*
X55008607Y-27641393D01*
X55024671Y-27659117D01*
X55038921Y-27678330D01*
X55051218Y-27698847D01*
X55061446Y-27720471D01*
X55069504Y-27742993D01*
X55075316Y-27766197D01*
X55078826Y-27789858D01*
X55080000Y-27813750D01*
X55080000Y-28301250D01*
X55078826Y-28325142D01*
X55075316Y-28348803D01*
X55069504Y-28372007D01*
X55061446Y-28394529D01*
X55051218Y-28416153D01*
X55038921Y-28436670D01*
X55024671Y-28455883D01*
X55008607Y-28473607D01*
X54990883Y-28489671D01*
X54971670Y-28503921D01*
X54951153Y-28516218D01*
X54929529Y-28526446D01*
X54907007Y-28534504D01*
X54883803Y-28540316D01*
X54860142Y-28543826D01*
X54836250Y-28545000D01*
X53923750Y-28545000D01*
X53899858Y-28543826D01*
X53876197Y-28540316D01*
X53852993Y-28534504D01*
X53830471Y-28526446D01*
X53808847Y-28516218D01*
X53788330Y-28503921D01*
X53769117Y-28489671D01*
X53751393Y-28473607D01*
X53735329Y-28455883D01*
X53721079Y-28436670D01*
X53708782Y-28416153D01*
X53698554Y-28394529D01*
X53690496Y-28372007D01*
X53684684Y-28348803D01*
X53681174Y-28325142D01*
X53680000Y-28301250D01*
X53680000Y-27813750D01*
X53681174Y-27789858D01*
X53684684Y-27766197D01*
X53690496Y-27742993D01*
X53698554Y-27720471D01*
X53708782Y-27698847D01*
X53721079Y-27678330D01*
X53735329Y-27659117D01*
X53751393Y-27641393D01*
X53769117Y-27625329D01*
X53788330Y-27611079D01*
X53808847Y-27598782D01*
X53830471Y-27588554D01*
X53852993Y-27580496D01*
X53876197Y-27574684D01*
X53899858Y-27571174D01*
X53923750Y-27570000D01*
X54836250Y-27570000D01*
X54860142Y-27571174D01*
X54860142Y-27571174D01*
G37*
D39*
X54380000Y-28057500D03*
D11*
G36*
X54860142Y-25696174D02*
G01*
X54883803Y-25699684D01*
X54907007Y-25705496D01*
X54929529Y-25713554D01*
X54951153Y-25723782D01*
X54971670Y-25736079D01*
X54990883Y-25750329D01*
X55008607Y-25766393D01*
X55024671Y-25784117D01*
X55038921Y-25803330D01*
X55051218Y-25823847D01*
X55061446Y-25845471D01*
X55069504Y-25867993D01*
X55075316Y-25891197D01*
X55078826Y-25914858D01*
X55080000Y-25938750D01*
X55080000Y-26426250D01*
X55078826Y-26450142D01*
X55075316Y-26473803D01*
X55069504Y-26497007D01*
X55061446Y-26519529D01*
X55051218Y-26541153D01*
X55038921Y-26561670D01*
X55024671Y-26580883D01*
X55008607Y-26598607D01*
X54990883Y-26614671D01*
X54971670Y-26628921D01*
X54951153Y-26641218D01*
X54929529Y-26651446D01*
X54907007Y-26659504D01*
X54883803Y-26665316D01*
X54860142Y-26668826D01*
X54836250Y-26670000D01*
X53923750Y-26670000D01*
X53899858Y-26668826D01*
X53876197Y-26665316D01*
X53852993Y-26659504D01*
X53830471Y-26651446D01*
X53808847Y-26641218D01*
X53788330Y-26628921D01*
X53769117Y-26614671D01*
X53751393Y-26598607D01*
X53735329Y-26580883D01*
X53721079Y-26561670D01*
X53708782Y-26541153D01*
X53698554Y-26519529D01*
X53690496Y-26497007D01*
X53684684Y-26473803D01*
X53681174Y-26450142D01*
X53680000Y-26426250D01*
X53680000Y-25938750D01*
X53681174Y-25914858D01*
X53684684Y-25891197D01*
X53690496Y-25867993D01*
X53698554Y-25845471D01*
X53708782Y-25823847D01*
X53721079Y-25803330D01*
X53735329Y-25784117D01*
X53751393Y-25766393D01*
X53769117Y-25750329D01*
X53788330Y-25736079D01*
X53808847Y-25723782D01*
X53830471Y-25713554D01*
X53852993Y-25705496D01*
X53876197Y-25699684D01*
X53899858Y-25696174D01*
X53923750Y-25695000D01*
X54836250Y-25695000D01*
X54860142Y-25696174D01*
X54860142Y-25696174D01*
G37*
D39*
X54380000Y-26182500D03*
D11*
G36*
X81360142Y-33513674D02*
G01*
X81383803Y-33517184D01*
X81407007Y-33522996D01*
X81429529Y-33531054D01*
X81451153Y-33541282D01*
X81471670Y-33553579D01*
X81490883Y-33567829D01*
X81508607Y-33583893D01*
X81524671Y-33601617D01*
X81538921Y-33620830D01*
X81551218Y-33641347D01*
X81561446Y-33662971D01*
X81569504Y-33685493D01*
X81575316Y-33708697D01*
X81578826Y-33732358D01*
X81580000Y-33756250D01*
X81580000Y-34243750D01*
X81578826Y-34267642D01*
X81575316Y-34291303D01*
X81569504Y-34314507D01*
X81561446Y-34337029D01*
X81551218Y-34358653D01*
X81538921Y-34379170D01*
X81524671Y-34398383D01*
X81508607Y-34416107D01*
X81490883Y-34432171D01*
X81471670Y-34446421D01*
X81451153Y-34458718D01*
X81429529Y-34468946D01*
X81407007Y-34477004D01*
X81383803Y-34482816D01*
X81360142Y-34486326D01*
X81336250Y-34487500D01*
X80423750Y-34487500D01*
X80399858Y-34486326D01*
X80376197Y-34482816D01*
X80352993Y-34477004D01*
X80330471Y-34468946D01*
X80308847Y-34458718D01*
X80288330Y-34446421D01*
X80269117Y-34432171D01*
X80251393Y-34416107D01*
X80235329Y-34398383D01*
X80221079Y-34379170D01*
X80208782Y-34358653D01*
X80198554Y-34337029D01*
X80190496Y-34314507D01*
X80184684Y-34291303D01*
X80181174Y-34267642D01*
X80180000Y-34243750D01*
X80180000Y-33756250D01*
X80181174Y-33732358D01*
X80184684Y-33708697D01*
X80190496Y-33685493D01*
X80198554Y-33662971D01*
X80208782Y-33641347D01*
X80221079Y-33620830D01*
X80235329Y-33601617D01*
X80251393Y-33583893D01*
X80269117Y-33567829D01*
X80288330Y-33553579D01*
X80308847Y-33541282D01*
X80330471Y-33531054D01*
X80352993Y-33522996D01*
X80376197Y-33517184D01*
X80399858Y-33513674D01*
X80423750Y-33512500D01*
X81336250Y-33512500D01*
X81360142Y-33513674D01*
X81360142Y-33513674D01*
G37*
D39*
X80880000Y-34000000D03*
D11*
G36*
X81360142Y-31638674D02*
G01*
X81383803Y-31642184D01*
X81407007Y-31647996D01*
X81429529Y-31656054D01*
X81451153Y-31666282D01*
X81471670Y-31678579D01*
X81490883Y-31692829D01*
X81508607Y-31708893D01*
X81524671Y-31726617D01*
X81538921Y-31745830D01*
X81551218Y-31766347D01*
X81561446Y-31787971D01*
X81569504Y-31810493D01*
X81575316Y-31833697D01*
X81578826Y-31857358D01*
X81580000Y-31881250D01*
X81580000Y-32368750D01*
X81578826Y-32392642D01*
X81575316Y-32416303D01*
X81569504Y-32439507D01*
X81561446Y-32462029D01*
X81551218Y-32483653D01*
X81538921Y-32504170D01*
X81524671Y-32523383D01*
X81508607Y-32541107D01*
X81490883Y-32557171D01*
X81471670Y-32571421D01*
X81451153Y-32583718D01*
X81429529Y-32593946D01*
X81407007Y-32602004D01*
X81383803Y-32607816D01*
X81360142Y-32611326D01*
X81336250Y-32612500D01*
X80423750Y-32612500D01*
X80399858Y-32611326D01*
X80376197Y-32607816D01*
X80352993Y-32602004D01*
X80330471Y-32593946D01*
X80308847Y-32583718D01*
X80288330Y-32571421D01*
X80269117Y-32557171D01*
X80251393Y-32541107D01*
X80235329Y-32523383D01*
X80221079Y-32504170D01*
X80208782Y-32483653D01*
X80198554Y-32462029D01*
X80190496Y-32439507D01*
X80184684Y-32416303D01*
X80181174Y-32392642D01*
X80180000Y-32368750D01*
X80180000Y-31881250D01*
X80181174Y-31857358D01*
X80184684Y-31833697D01*
X80190496Y-31810493D01*
X80198554Y-31787971D01*
X80208782Y-31766347D01*
X80221079Y-31745830D01*
X80235329Y-31726617D01*
X80251393Y-31708893D01*
X80269117Y-31692829D01*
X80288330Y-31678579D01*
X80308847Y-31666282D01*
X80330471Y-31656054D01*
X80352993Y-31647996D01*
X80376197Y-31642184D01*
X80399858Y-31638674D01*
X80423750Y-31637500D01*
X81336250Y-31637500D01*
X81360142Y-31638674D01*
X81360142Y-31638674D01*
G37*
D39*
X80880000Y-32125000D03*
M02*
