M48
; DRILL file {KiCad 5.1.3-ffb9f22~84~ubuntu18.04.1} date lun 02 sep 2019 17:53:33 CEST
; FORMAT={-:-/ absolute / inch / decimal}
; #@! TF.CreationDate,2019-09-02T17:53:33+02:00
; #@! TF.GenerationSoftware,Kicad,Pcbnew,5.1.3-ffb9f22~84~ubuntu18.04.1
; #@! TF.FileFunction,Plated,1,2,PTH
FMAT,2
INCH
T1C0.0157
%
G90
G05
T1
X0.2138Y-2.076
X0.4654Y-2.1181
X0.5264Y-2.1752
X0.5346Y-2.1122
X0.5909Y-2.0323
X0.7248Y-2.7323
X0.748Y-2.5409
X0.7547Y-2.472
X0.8423Y-2.3778
X0.8496Y-2.3028
X0.9177Y-2.5559
X0.9755Y-1.9117
X1.037Y-3.4327
X1.0937Y-2.277
X1.1578Y-2.2996
X1.1579Y-2.5134
X1.1894Y-1.9508
X1.1894Y-1.9508
X1.2181Y-1.6311
X1.2337Y-2.0371
X1.2337Y-2.0869
X1.2337Y-2.1811
X1.2337Y-2.2996
X1.2379Y-1.9964
X1.2634Y-1.6614
X1.2724Y-2.7492
X1.2882Y-3.0469
X1.2978Y-2.2213
X1.304Y-2.1606
X1.3078Y-1.9613
X1.3358Y-2.4331
X1.3474Y-2.263
X1.3559Y-2.6181
X1.3831Y-1.6925
X1.3848Y-2.4394
X1.413Y-1.8606
X1.4327Y-2.9244
X1.4514Y-1.8241
X1.4518Y-2.326
X1.4551Y-2.5004
X1.461Y-2.2512
X1.462Y-2.198
X1.4833Y-1.7928
X1.4902Y-2.5638
X1.5051Y-2.9209
X1.515Y-1.4899
X1.5159Y-2.2546
X1.5209Y-3.0654
X1.526Y-1.348
X1.5378Y-2.0819
X1.5597Y-1.4881
X1.5598Y-2.585
X1.5614Y-2.2291
X1.5622Y-1.2083
X1.5827Y-1.7579
X1.5831Y-1.4441
X1.5929Y-2.28
X1.6197Y-2.6886
X1.6221Y-1.685
X1.636Y-1.6474
X1.6406Y-2.5681
X1.6567Y-1.5626
X1.661Y-2.0209
X1.6929Y-1.7697
X1.7091Y-2.1299
X1.7094Y-1.5413
X1.7217Y-2.0768
X1.7472Y-1.7496
X1.7744Y-1.9252
X1.7784Y-2.395
X1.8087Y-1.8146
X1.826Y-1.7776
X1.911Y-1.926
X1.9382Y-2.2024
X1.9524Y-2.0256
X1.9768Y-1.2878
X2.0051Y-2.4882
X2.0815Y-1.9163
X2.0926Y-2.1887
X2.0965Y-2.1004
X2.1287Y-2.1289
X2.1374Y-1.2492
X2.1457Y-2.052
X2.1971Y-2.0936
X2.2248Y-2.1217
X2.2331Y-1.4571
X2.2349Y-1.8809
X2.2382Y-1.7429
X2.2386Y-1.3051
X2.2656Y-1.3146
X2.2669Y-1.4547
X2.2693Y-2.3154
X2.2776Y-2.528
X2.3098Y-2.2638
X2.3815Y-2.0567
X2.4618Y-1.9173
X2.4717Y-2.2549
X2.5083Y-1.9028
X2.5169Y-1.4268
X2.528Y-1.3598
X2.5488Y-2.062
X2.5547Y-1.8579
X2.5571Y-2.2224
X2.5957Y-1.6433
X2.6297Y-2.0657
X2.6555Y-1.9724
X2.6705Y-1.6685
X2.6745Y-2.0119
X2.6882Y-1.8543
X2.7045Y-2.0373
X2.7045Y-2.0767
X2.728Y-1.8722
X2.7656Y-1.8608
X2.7911Y-2.2681
X2.7933Y-1.8016
X2.8096Y-2.0121
X2.8472Y-2.0268
X2.8717Y-2.0886
X2.8803Y-1.773
X2.9429Y-1.837
X2.965Y-1.7043
X2.9709Y-1.915
X2.9717Y-2.0089
X3.0106Y-2.0201
X3.0189Y-1.9177
X3.5Y-1.2988
X3.5673Y-1.3634
T0
M30
