G04 #@! TF.GenerationSoftware,KiCad,Pcbnew,5.1.3-ffb9f22~84~ubuntu18.04.1*
G04 #@! TF.CreationDate,2019-09-02T17:53:29+02:00*
G04 #@! TF.ProjectId,drac_badge,64726163-5f62-4616-9467-652e6b696361,rev?*
G04 #@! TF.SameCoordinates,Original*
G04 #@! TF.FileFunction,Soldermask,Bot*
G04 #@! TF.FilePolarity,Negative*
%FSLAX46Y46*%
G04 Gerber Fmt 4.6, Leading zero omitted, Abs format (unit mm)*
G04 Created by KiCad (PCBNEW 5.1.3-ffb9f22~84~ubuntu18.04.1) date 2019-09-02 17:53:29*
%MOMM*%
%LPD*%
G04 APERTURE LIST*
%ADD10C,0.010000*%
%ADD11C,0.100000*%
G04 APERTURE END LIST*
D10*
G36*
X71693438Y-33550626D02*
G01*
X73105415Y-34118107D01*
X74198284Y-35000850D01*
X74909065Y-36147259D01*
X75174780Y-37505741D01*
X75175263Y-37568930D01*
X75126329Y-38309794D01*
X74914444Y-38881998D01*
X74441979Y-39485893D01*
X74038948Y-39900874D01*
X73120518Y-40686502D01*
X72190121Y-41147421D01*
X71485787Y-41336220D01*
X70434284Y-41540716D01*
X69669283Y-41602432D01*
X68958390Y-41507771D01*
X68069210Y-41243139D01*
X67691354Y-41114228D01*
X66253604Y-40428360D01*
X65285606Y-39533172D01*
X64802808Y-38445652D01*
X64747895Y-37877768D01*
X64993505Y-36446374D01*
X65686453Y-35221818D01*
X66760915Y-34260571D01*
X68151069Y-33619107D01*
X69791091Y-33353899D01*
X70025333Y-33350000D01*
X71693438Y-33550626D01*
X71693438Y-33550626D01*
G37*
X71693438Y-33550626D02*
X73105415Y-34118107D01*
X74198284Y-35000850D01*
X74909065Y-36147259D01*
X75174780Y-37505741D01*
X75175263Y-37568930D01*
X75126329Y-38309794D01*
X74914444Y-38881998D01*
X74441979Y-39485893D01*
X74038948Y-39900874D01*
X73120518Y-40686502D01*
X72190121Y-41147421D01*
X71485787Y-41336220D01*
X70434284Y-41540716D01*
X69669283Y-41602432D01*
X68958390Y-41507771D01*
X68069210Y-41243139D01*
X67691354Y-41114228D01*
X66253604Y-40428360D01*
X65285606Y-39533172D01*
X64802808Y-38445652D01*
X64747895Y-37877768D01*
X64993505Y-36446374D01*
X65686453Y-35221818D01*
X66760915Y-34260571D01*
X68151069Y-33619107D01*
X69791091Y-33353899D01*
X70025333Y-33350000D01*
X71693438Y-33550626D01*
G36*
X27649348Y-49703023D02*
G01*
X28507640Y-50040413D01*
X29046128Y-50674382D01*
X29187895Y-51365923D01*
X28945842Y-52294185D01*
X28303073Y-53063730D01*
X27384671Y-53613194D01*
X26315720Y-53881215D01*
X25221303Y-53806430D01*
X24647072Y-53593534D01*
X23940700Y-53001704D01*
X23669921Y-52242280D01*
X23813689Y-51425921D01*
X24350957Y-50663286D01*
X25260679Y-50065033D01*
X25323261Y-50038194D01*
X26558730Y-49692266D01*
X27649348Y-49703023D01*
X27649348Y-49703023D01*
G37*
X27649348Y-49703023D02*
X28507640Y-50040413D01*
X29046128Y-50674382D01*
X29187895Y-51365923D01*
X28945842Y-52294185D01*
X28303073Y-53063730D01*
X27384671Y-53613194D01*
X26315720Y-53881215D01*
X25221303Y-53806430D01*
X24647072Y-53593534D01*
X23940700Y-53001704D01*
X23669921Y-52242280D01*
X23813689Y-51425921D01*
X24350957Y-50663286D01*
X25260679Y-50065033D01*
X25323261Y-50038194D01*
X26558730Y-49692266D01*
X27649348Y-49703023D01*
G36*
X19556912Y-52751781D02*
G01*
X19841450Y-52874022D01*
X20546319Y-53502694D01*
X20780824Y-54329993D01*
X20636424Y-54996417D01*
X20062370Y-55746734D01*
X19179011Y-56206430D01*
X18144216Y-56345059D01*
X17115855Y-56132173D01*
X16523952Y-55789542D01*
X15988405Y-55098274D01*
X15806585Y-54264949D01*
X16024094Y-53509500D01*
X16634867Y-53010396D01*
X17559766Y-52695683D01*
X18600034Y-52598449D01*
X19556912Y-52751781D01*
X19556912Y-52751781D01*
G37*
X19556912Y-52751781D02*
X19841450Y-52874022D01*
X20546319Y-53502694D01*
X20780824Y-54329993D01*
X20636424Y-54996417D01*
X20062370Y-55746734D01*
X19179011Y-56206430D01*
X18144216Y-56345059D01*
X17115855Y-56132173D01*
X16523952Y-55789542D01*
X15988405Y-55098274D01*
X15806585Y-54264949D01*
X16024094Y-53509500D01*
X16634867Y-53010396D01*
X17559766Y-52695683D01*
X18600034Y-52598449D01*
X19556912Y-52751781D01*
G36*
X25501150Y-55026800D02*
G01*
X25999032Y-55578124D01*
X26149166Y-56080719D01*
X25952931Y-56595885D01*
X25779320Y-56844967D01*
X25286542Y-57325663D01*
X24609454Y-57562841D01*
X24015075Y-57628296D01*
X23231143Y-57644710D01*
X22796055Y-57514565D01*
X22529611Y-57169124D01*
X22466683Y-57037669D01*
X22349623Y-56276374D01*
X22643357Y-55618737D01*
X23226631Y-55114859D01*
X23978190Y-54814843D01*
X24776782Y-54768790D01*
X25501150Y-55026800D01*
X25501150Y-55026800D01*
G37*
X25501150Y-55026800D02*
X25999032Y-55578124D01*
X26149166Y-56080719D01*
X25952931Y-56595885D01*
X25779320Y-56844967D01*
X25286542Y-57325663D01*
X24609454Y-57562841D01*
X24015075Y-57628296D01*
X23231143Y-57644710D01*
X22796055Y-57514565D01*
X22529611Y-57169124D01*
X22466683Y-57037669D01*
X22349623Y-56276374D01*
X22643357Y-55618737D01*
X23226631Y-55114859D01*
X23978190Y-54814843D01*
X24776782Y-54768790D01*
X25501150Y-55026800D01*
D11*
G36*
X31751000Y-88799001D02*
G01*
X31753402Y-88823387D01*
X31760515Y-88846836D01*
X31761000Y-88847743D01*
X31761000Y-91401000D01*
X29759000Y-91401000D01*
X29759000Y-88850999D01*
X29756598Y-88826613D01*
X29749485Y-88803164D01*
X29737934Y-88781553D01*
X29722389Y-88762611D01*
X29703447Y-88747066D01*
X29681836Y-88735515D01*
X29658387Y-88728402D01*
X29634001Y-88726000D01*
X28849000Y-88726000D01*
X28849000Y-87449000D01*
X31751000Y-87449000D01*
X31751000Y-88799001D01*
X31751000Y-88799001D01*
G37*
G36*
X45311000Y-90531000D02*
G01*
X44009000Y-90531000D01*
X44009000Y-86529000D01*
X45311000Y-86529000D01*
X45311000Y-90531000D01*
X45311000Y-90531000D01*
G37*
G36*
X40311000Y-90531000D02*
G01*
X39009000Y-90531000D01*
X39009000Y-86529000D01*
X40311000Y-86529000D01*
X40311000Y-90531000D01*
X40311000Y-90531000D01*
G37*
G36*
X42811000Y-90531000D02*
G01*
X41509000Y-90531000D01*
X41509000Y-86529000D01*
X42811000Y-86529000D01*
X42811000Y-90531000D01*
X42811000Y-90531000D01*
G37*
G36*
X34491000Y-90501000D02*
G01*
X32289000Y-90501000D01*
X32289000Y-88924000D01*
X32884001Y-88924000D01*
X32908387Y-88921598D01*
X32931836Y-88914485D01*
X32953447Y-88902934D01*
X32972389Y-88887389D01*
X32987934Y-88868447D01*
X32999485Y-88846836D01*
X33006598Y-88823387D01*
X33009000Y-88799001D01*
X33009000Y-85700999D01*
X33006598Y-85676613D01*
X32999485Y-85653164D01*
X32987934Y-85631553D01*
X32972389Y-85612611D01*
X32953447Y-85597066D01*
X32931836Y-85585515D01*
X32908387Y-85578402D01*
X32884001Y-85576000D01*
X32289000Y-85576000D01*
X32289000Y-83999000D01*
X34491000Y-83999000D01*
X34491000Y-90501000D01*
X34491000Y-90501000D01*
G37*
G36*
X31761000Y-85652257D02*
G01*
X31760515Y-85653164D01*
X31753402Y-85676613D01*
X31751000Y-85700999D01*
X31751000Y-87051000D01*
X28849000Y-87051000D01*
X28849000Y-85774000D01*
X29634001Y-85774000D01*
X29658387Y-85771598D01*
X29681836Y-85764485D01*
X29703447Y-85752934D01*
X29722389Y-85737389D01*
X29737934Y-85718447D01*
X29749485Y-85696836D01*
X29756598Y-85673387D01*
X29759000Y-85649001D01*
X29759000Y-83099000D01*
X31761000Y-83099000D01*
X31761000Y-85652257D01*
X31761000Y-85652257D01*
G37*
G36*
X38159999Y-81954737D02*
G01*
X38169608Y-81957652D01*
X38178472Y-81962390D01*
X38186237Y-81968763D01*
X38192610Y-81976528D01*
X38197348Y-81985392D01*
X38200263Y-81995001D01*
X38201852Y-82011140D01*
X38201852Y-82998860D01*
X38200263Y-83014999D01*
X38197348Y-83024608D01*
X38192610Y-83033472D01*
X38186258Y-83041212D01*
X38186237Y-83041237D01*
X38178427Y-83047640D01*
X38178372Y-83047677D01*
X38168853Y-83055480D01*
X38168878Y-83055511D01*
X38155028Y-83066853D01*
X38139463Y-83085779D01*
X38127889Y-83107377D01*
X38120751Y-83130819D01*
X38118324Y-83155202D01*
X38120700Y-83179591D01*
X38127789Y-83203047D01*
X38139318Y-83224670D01*
X38154843Y-83243628D01*
X38173769Y-83259193D01*
X38176825Y-83261029D01*
X38178514Y-83262418D01*
X38178516Y-83262419D01*
X38184712Y-83267515D01*
X38186274Y-83268800D01*
X38192642Y-83276575D01*
X38195791Y-83282483D01*
X38197367Y-83285438D01*
X38200257Y-83295001D01*
X38200282Y-83295085D01*
X38201852Y-83311113D01*
X38201852Y-84448860D01*
X38200263Y-84464999D01*
X38197348Y-84474608D01*
X38192610Y-84483472D01*
X38186237Y-84491237D01*
X38178472Y-84497610D01*
X38169608Y-84502348D01*
X38159999Y-84505263D01*
X38143860Y-84506852D01*
X36656140Y-84506852D01*
X36640001Y-84505263D01*
X36630392Y-84502348D01*
X36621528Y-84497610D01*
X36613763Y-84491237D01*
X36607390Y-84483472D01*
X36602652Y-84474608D01*
X36599737Y-84464999D01*
X36598148Y-84448860D01*
X36598148Y-83311140D01*
X36599737Y-83295001D01*
X36602652Y-83285392D01*
X36607390Y-83276528D01*
X36613763Y-83268763D01*
X36626737Y-83258116D01*
X36635968Y-83251947D01*
X36653294Y-83234619D01*
X36666907Y-83214244D01*
X36676283Y-83191605D01*
X36681063Y-83167572D01*
X36681062Y-83143068D01*
X36676280Y-83119035D01*
X36666902Y-83096396D01*
X36653287Y-83076022D01*
X36635959Y-83058696D01*
X36626683Y-83051825D01*
X36613800Y-83041274D01*
X36612668Y-83039897D01*
X36607419Y-83033516D01*
X36602674Y-83024661D01*
X36601749Y-83021623D01*
X36599758Y-83015085D01*
X36599758Y-83015082D01*
X36599748Y-83015050D01*
X36598753Y-83005000D01*
X36598753Y-83004935D01*
X36598148Y-82998825D01*
X36598148Y-82011140D01*
X36599737Y-81995001D01*
X36602652Y-81985392D01*
X36607390Y-81976528D01*
X36613763Y-81968763D01*
X36621528Y-81962390D01*
X36630392Y-81957652D01*
X36640001Y-81954737D01*
X36656140Y-81953148D01*
X38143860Y-81953148D01*
X38159999Y-81954737D01*
X38159999Y-81954737D01*
G37*
G36*
X40311000Y-82931000D02*
G01*
X39009000Y-82931000D01*
X39009000Y-78929000D01*
X40311000Y-78929000D01*
X40311000Y-82931000D01*
X40311000Y-82931000D01*
G37*
G36*
X45311000Y-82931000D02*
G01*
X44009000Y-82931000D01*
X44009000Y-78929000D01*
X45311000Y-78929000D01*
X45311000Y-82931000D01*
X45311000Y-82931000D01*
G37*
G36*
X42811000Y-82931000D02*
G01*
X41509000Y-82931000D01*
X41509000Y-78929000D01*
X42811000Y-78929000D01*
X42811000Y-82931000D01*
X42811000Y-82931000D01*
G37*
G36*
X36081000Y-81036000D02*
G01*
X34919000Y-81036000D01*
X34919000Y-78384000D01*
X36081000Y-78384000D01*
X36081000Y-81036000D01*
X36081000Y-81036000D01*
G37*
G36*
X33881000Y-81036000D02*
G01*
X32719000Y-81036000D01*
X32719000Y-80284000D01*
X33881000Y-80284000D01*
X33881000Y-81036000D01*
X33881000Y-81036000D01*
G37*
G36*
X37479591Y-78223085D02*
G01*
X37513569Y-78233393D01*
X37544890Y-78250134D01*
X37572339Y-78272661D01*
X37594866Y-78300110D01*
X37611607Y-78331431D01*
X37621915Y-78365409D01*
X37626000Y-78406890D01*
X37626000Y-79008110D01*
X37621915Y-79049591D01*
X37611607Y-79083569D01*
X37594866Y-79114890D01*
X37572339Y-79142339D01*
X37544890Y-79164866D01*
X37513569Y-79181607D01*
X37479591Y-79191915D01*
X37438110Y-79196000D01*
X36761890Y-79196000D01*
X36720409Y-79191915D01*
X36686431Y-79181607D01*
X36655110Y-79164866D01*
X36627661Y-79142339D01*
X36605134Y-79114890D01*
X36588393Y-79083569D01*
X36578085Y-79049591D01*
X36574000Y-79008110D01*
X36574000Y-78406890D01*
X36578085Y-78365409D01*
X36588393Y-78331431D01*
X36605134Y-78300110D01*
X36627661Y-78272661D01*
X36655110Y-78250134D01*
X36686431Y-78233393D01*
X36720409Y-78223085D01*
X36761890Y-78219000D01*
X37438110Y-78219000D01*
X37479591Y-78223085D01*
X37479591Y-78223085D01*
G37*
G36*
X33881000Y-79136000D02*
G01*
X32719000Y-79136000D01*
X32719000Y-78384000D01*
X33881000Y-78384000D01*
X33881000Y-79136000D01*
X33881000Y-79136000D01*
G37*
G36*
X37479591Y-76648085D02*
G01*
X37513569Y-76658393D01*
X37544890Y-76675134D01*
X37572339Y-76697661D01*
X37594866Y-76725110D01*
X37611607Y-76756431D01*
X37621915Y-76790409D01*
X37626000Y-76831890D01*
X37626000Y-77433110D01*
X37621915Y-77474591D01*
X37611607Y-77508569D01*
X37594866Y-77539890D01*
X37572339Y-77567339D01*
X37544890Y-77589866D01*
X37513569Y-77606607D01*
X37479591Y-77616915D01*
X37438110Y-77621000D01*
X36761890Y-77621000D01*
X36720409Y-77616915D01*
X36686431Y-77606607D01*
X36655110Y-77589866D01*
X36627661Y-77567339D01*
X36605134Y-77539890D01*
X36588393Y-77508569D01*
X36578085Y-77474591D01*
X36574000Y-77433110D01*
X36574000Y-76831890D01*
X36578085Y-76790409D01*
X36588393Y-76756431D01*
X36605134Y-76725110D01*
X36627661Y-76697661D01*
X36655110Y-76675134D01*
X36686431Y-76658393D01*
X36720409Y-76648085D01*
X36761890Y-76644000D01*
X37438110Y-76644000D01*
X37479591Y-76648085D01*
X37479591Y-76648085D01*
G37*
G36*
X35919591Y-76568085D02*
G01*
X35953569Y-76578393D01*
X35984890Y-76595134D01*
X36012339Y-76617661D01*
X36034866Y-76645110D01*
X36051607Y-76676431D01*
X36061915Y-76710409D01*
X36066000Y-76751890D01*
X36066000Y-77428110D01*
X36061915Y-77469591D01*
X36051607Y-77503569D01*
X36034866Y-77534890D01*
X36012339Y-77562339D01*
X35984890Y-77584866D01*
X35953569Y-77601607D01*
X35919591Y-77611915D01*
X35878110Y-77616000D01*
X35276890Y-77616000D01*
X35235409Y-77611915D01*
X35201431Y-77601607D01*
X35170110Y-77584866D01*
X35142661Y-77562339D01*
X35120134Y-77534890D01*
X35103393Y-77503569D01*
X35093085Y-77469591D01*
X35089000Y-77428110D01*
X35089000Y-76751890D01*
X35093085Y-76710409D01*
X35103393Y-76676431D01*
X35120134Y-76645110D01*
X35142661Y-76617661D01*
X35170110Y-76595134D01*
X35201431Y-76578393D01*
X35235409Y-76568085D01*
X35276890Y-76564000D01*
X35878110Y-76564000D01*
X35919591Y-76568085D01*
X35919591Y-76568085D01*
G37*
G36*
X34344591Y-76568085D02*
G01*
X34378569Y-76578393D01*
X34409890Y-76595134D01*
X34437339Y-76617661D01*
X34459866Y-76645110D01*
X34476607Y-76676431D01*
X34486915Y-76710409D01*
X34491000Y-76751890D01*
X34491000Y-77428110D01*
X34486915Y-77469591D01*
X34476607Y-77503569D01*
X34459866Y-77534890D01*
X34437339Y-77562339D01*
X34409890Y-77584866D01*
X34378569Y-77601607D01*
X34344591Y-77611915D01*
X34303110Y-77616000D01*
X33701890Y-77616000D01*
X33660409Y-77611915D01*
X33626431Y-77601607D01*
X33595110Y-77584866D01*
X33567661Y-77562339D01*
X33545134Y-77534890D01*
X33528393Y-77503569D01*
X33518085Y-77469591D01*
X33514000Y-77428110D01*
X33514000Y-76751890D01*
X33518085Y-76710409D01*
X33528393Y-76676431D01*
X33545134Y-76645110D01*
X33567661Y-76617661D01*
X33595110Y-76595134D01*
X33626431Y-76578393D01*
X33660409Y-76568085D01*
X33701890Y-76564000D01*
X34303110Y-76564000D01*
X34344591Y-76568085D01*
X34344591Y-76568085D01*
G37*
G36*
X26641000Y-77461000D02*
G01*
X24539000Y-77461000D01*
X24539000Y-71959000D01*
X26641000Y-71959000D01*
X26641000Y-77461000D01*
X26641000Y-77461000D01*
G37*
G36*
X37158604Y-73608347D02*
G01*
X37195144Y-73619432D01*
X37228821Y-73637433D01*
X37258341Y-73661659D01*
X37282567Y-73691179D01*
X37300568Y-73724856D01*
X37311653Y-73761396D01*
X37316000Y-73805538D01*
X37316000Y-74754462D01*
X37311653Y-74798604D01*
X37300568Y-74835144D01*
X37282567Y-74868821D01*
X37258341Y-74898341D01*
X37228821Y-74922567D01*
X37195144Y-74940568D01*
X37158604Y-74951653D01*
X37114462Y-74956000D01*
X35665538Y-74956000D01*
X35621396Y-74951653D01*
X35584856Y-74940568D01*
X35551179Y-74922567D01*
X35521659Y-74898341D01*
X35497433Y-74868821D01*
X35479432Y-74835144D01*
X35468347Y-74798604D01*
X35464000Y-74754462D01*
X35464000Y-73805538D01*
X35468347Y-73761396D01*
X35479432Y-73724856D01*
X35497433Y-73691179D01*
X35521659Y-73661659D01*
X35551179Y-73637433D01*
X35584856Y-73619432D01*
X35621396Y-73608347D01*
X35665538Y-73604000D01*
X37114462Y-73604000D01*
X37158604Y-73608347D01*
X37158604Y-73608347D01*
G37*
G36*
X34681000Y-74941000D02*
G01*
X32879000Y-74941000D01*
X32879000Y-73539000D01*
X34681000Y-73539000D01*
X34681000Y-74941000D01*
X34681000Y-74941000D01*
G37*
G36*
X37158604Y-70808347D02*
G01*
X37195144Y-70819432D01*
X37228821Y-70837433D01*
X37258341Y-70861659D01*
X37282567Y-70891179D01*
X37300568Y-70924856D01*
X37311653Y-70961396D01*
X37316000Y-71005538D01*
X37316000Y-71954462D01*
X37311653Y-71998604D01*
X37300568Y-72035144D01*
X37282567Y-72068821D01*
X37258341Y-72098341D01*
X37228821Y-72122567D01*
X37195144Y-72140568D01*
X37158604Y-72151653D01*
X37114462Y-72156000D01*
X35665538Y-72156000D01*
X35621396Y-72151653D01*
X35584856Y-72140568D01*
X35551179Y-72122567D01*
X35521659Y-72098341D01*
X35497433Y-72068821D01*
X35479432Y-72035144D01*
X35468347Y-71998604D01*
X35464000Y-71954462D01*
X35464000Y-71005538D01*
X35468347Y-70961396D01*
X35479432Y-70924856D01*
X35497433Y-70891179D01*
X35521659Y-70861659D01*
X35551179Y-70837433D01*
X35584856Y-70819432D01*
X35621396Y-70808347D01*
X35665538Y-70804000D01*
X37114462Y-70804000D01*
X37158604Y-70808347D01*
X37158604Y-70808347D01*
G37*
G36*
X34681000Y-71441000D02*
G01*
X32879000Y-71441000D01*
X32879000Y-70039000D01*
X34681000Y-70039000D01*
X34681000Y-71441000D01*
X34681000Y-71441000D01*
G37*
G36*
X15241000Y-70771000D02*
G01*
X12639000Y-70771000D01*
X12639000Y-68169000D01*
X15241000Y-68169000D01*
X15241000Y-70771000D01*
X15241000Y-70771000D01*
G37*
G36*
X37291000Y-70271000D02*
G01*
X36389000Y-70271000D01*
X36389000Y-69269000D01*
X37291000Y-69269000D01*
X37291000Y-70271000D01*
X37291000Y-70271000D01*
G37*
G36*
X71791000Y-70141000D02*
G01*
X69089000Y-70141000D01*
X69089000Y-66439000D01*
X71791000Y-66439000D01*
X71791000Y-70141000D01*
X71791000Y-70141000D01*
G37*
G36*
X42491000Y-70141000D02*
G01*
X39789000Y-70141000D01*
X39789000Y-66439000D01*
X42491000Y-66439000D01*
X42491000Y-70141000D01*
X42491000Y-70141000D01*
G37*
G36*
X38241000Y-68271000D02*
G01*
X37339000Y-68271000D01*
X37339000Y-67269000D01*
X38241000Y-67269000D01*
X38241000Y-68271000D01*
X38241000Y-68271000D01*
G37*
G36*
X36341000Y-68271000D02*
G01*
X35439000Y-68271000D01*
X35439000Y-67269000D01*
X36341000Y-67269000D01*
X36341000Y-68271000D01*
X36341000Y-68271000D01*
G37*
G36*
X10989487Y-65288996D02*
G01*
X11211601Y-65380999D01*
X11226255Y-65387069D01*
X11439339Y-65529447D01*
X11620553Y-65710661D01*
X11762932Y-65923747D01*
X11861004Y-66160513D01*
X11911000Y-66411861D01*
X11911000Y-66668139D01*
X11861004Y-66919487D01*
X11762932Y-67156253D01*
X11762931Y-67156255D01*
X11620553Y-67369339D01*
X11439339Y-67550553D01*
X11226255Y-67692931D01*
X11226254Y-67692932D01*
X11226253Y-67692932D01*
X10989487Y-67791004D01*
X10738139Y-67841000D01*
X10481861Y-67841000D01*
X10230513Y-67791004D01*
X9993747Y-67692932D01*
X9993746Y-67692932D01*
X9993745Y-67692931D01*
X9780661Y-67550553D01*
X9599447Y-67369339D01*
X9457069Y-67156255D01*
X9457068Y-67156253D01*
X9358996Y-66919487D01*
X9309000Y-66668139D01*
X9309000Y-66411861D01*
X9358996Y-66160513D01*
X9457068Y-65923747D01*
X9599447Y-65710661D01*
X9780661Y-65529447D01*
X9993745Y-65387069D01*
X10008399Y-65380999D01*
X10230513Y-65288996D01*
X10481861Y-65239000D01*
X10738139Y-65239000D01*
X10989487Y-65288996D01*
X10989487Y-65288996D01*
G37*
G36*
X26641000Y-66461000D02*
G01*
X24539000Y-66461000D01*
X24539000Y-60959000D01*
X26641000Y-60959000D01*
X26641000Y-66461000D01*
X26641000Y-66461000D01*
G37*
G36*
X35405999Y-65380999D02*
G01*
X33603999Y-65380999D01*
X33603999Y-64628999D01*
X35405999Y-64628999D01*
X35405999Y-65380999D01*
X35405999Y-65380999D01*
G37*
G36*
X16479591Y-63868085D02*
G01*
X16513569Y-63878393D01*
X16544890Y-63895134D01*
X16572339Y-63917661D01*
X16594866Y-63945110D01*
X16611607Y-63976431D01*
X16621915Y-64010409D01*
X16626000Y-64051890D01*
X16626000Y-64728110D01*
X16621915Y-64769591D01*
X16611607Y-64803569D01*
X16594866Y-64834890D01*
X16572339Y-64862339D01*
X16544890Y-64884866D01*
X16513569Y-64901607D01*
X16479591Y-64911915D01*
X16438110Y-64916000D01*
X15836890Y-64916000D01*
X15795409Y-64911915D01*
X15761431Y-64901607D01*
X15730110Y-64884866D01*
X15702661Y-64862339D01*
X15680134Y-64834890D01*
X15663393Y-64803569D01*
X15653085Y-64769591D01*
X15649000Y-64728110D01*
X15649000Y-64051890D01*
X15653085Y-64010409D01*
X15663393Y-63976431D01*
X15680134Y-63945110D01*
X15702661Y-63917661D01*
X15730110Y-63895134D01*
X15761431Y-63878393D01*
X15795409Y-63868085D01*
X15836890Y-63864000D01*
X16438110Y-63864000D01*
X16479591Y-63868085D01*
X16479591Y-63868085D01*
G37*
G36*
X14904591Y-63868085D02*
G01*
X14938569Y-63878393D01*
X14969890Y-63895134D01*
X14997339Y-63917661D01*
X15019866Y-63945110D01*
X15036607Y-63976431D01*
X15046915Y-64010409D01*
X15051000Y-64051890D01*
X15051000Y-64728110D01*
X15046915Y-64769591D01*
X15036607Y-64803569D01*
X15019866Y-64834890D01*
X14997339Y-64862339D01*
X14969890Y-64884866D01*
X14938569Y-64901607D01*
X14904591Y-64911915D01*
X14863110Y-64916000D01*
X14261890Y-64916000D01*
X14220409Y-64911915D01*
X14186431Y-64901607D01*
X14155110Y-64884866D01*
X14127661Y-64862339D01*
X14105134Y-64834890D01*
X14088393Y-64803569D01*
X14078085Y-64769591D01*
X14074000Y-64728110D01*
X14074000Y-64051890D01*
X14078085Y-64010409D01*
X14088393Y-63976431D01*
X14105134Y-63945110D01*
X14127661Y-63917661D01*
X14155110Y-63895134D01*
X14186431Y-63878393D01*
X14220409Y-63868085D01*
X14261890Y-63864000D01*
X14863110Y-63864000D01*
X14904591Y-63868085D01*
X14904591Y-63868085D01*
G37*
G36*
X42889591Y-62843085D02*
G01*
X42923569Y-62853393D01*
X42954890Y-62870134D01*
X42982339Y-62892661D01*
X43004866Y-62920110D01*
X43021607Y-62951431D01*
X43031915Y-62985409D01*
X43036000Y-63026890D01*
X43036000Y-63628110D01*
X43031915Y-63669591D01*
X43021607Y-63703569D01*
X43004866Y-63734890D01*
X42982339Y-63762339D01*
X42954890Y-63784866D01*
X42923569Y-63801607D01*
X42889591Y-63811915D01*
X42848110Y-63816000D01*
X42171890Y-63816000D01*
X42130409Y-63811915D01*
X42096431Y-63801607D01*
X42065110Y-63784866D01*
X42037661Y-63762339D01*
X42015134Y-63734890D01*
X41998393Y-63703569D01*
X41988085Y-63669591D01*
X41984000Y-63628110D01*
X41984000Y-63026890D01*
X41988085Y-62985409D01*
X41998393Y-62951431D01*
X42015134Y-62920110D01*
X42037661Y-62892661D01*
X42065110Y-62870134D01*
X42096431Y-62853393D01*
X42130409Y-62843085D01*
X42171890Y-62839000D01*
X42848110Y-62839000D01*
X42889591Y-62843085D01*
X42889591Y-62843085D01*
G37*
G36*
X41339591Y-62823085D02*
G01*
X41373569Y-62833393D01*
X41404890Y-62850134D01*
X41432339Y-62872661D01*
X41454866Y-62900110D01*
X41471607Y-62931431D01*
X41481915Y-62965409D01*
X41486000Y-63006890D01*
X41486000Y-63608110D01*
X41481915Y-63649591D01*
X41471607Y-63683569D01*
X41454866Y-63714890D01*
X41432339Y-63742339D01*
X41404890Y-63764866D01*
X41373569Y-63781607D01*
X41339591Y-63791915D01*
X41298110Y-63796000D01*
X40621890Y-63796000D01*
X40580409Y-63791915D01*
X40546431Y-63781607D01*
X40515110Y-63764866D01*
X40487661Y-63742339D01*
X40465134Y-63714890D01*
X40448393Y-63683569D01*
X40438085Y-63649591D01*
X40434000Y-63608110D01*
X40434000Y-63006890D01*
X40438085Y-62965409D01*
X40448393Y-62931431D01*
X40465134Y-62900110D01*
X40487661Y-62872661D01*
X40515110Y-62850134D01*
X40546431Y-62833393D01*
X40580409Y-62823085D01*
X40621890Y-62819000D01*
X41298110Y-62819000D01*
X41339591Y-62823085D01*
X41339591Y-62823085D01*
G37*
G36*
X35405999Y-63480999D02*
G01*
X33603999Y-63480999D01*
X33603999Y-62728999D01*
X35405999Y-62728999D01*
X35405999Y-63480999D01*
X35405999Y-63480999D01*
G37*
G36*
X39221000Y-63381000D02*
G01*
X38219000Y-63381000D01*
X38219000Y-62479000D01*
X39221000Y-62479000D01*
X39221000Y-63381000D01*
X39221000Y-63381000D01*
G37*
G36*
X19971000Y-63341000D02*
G01*
X18369000Y-63341000D01*
X18369000Y-59639000D01*
X19971000Y-59639000D01*
X19971000Y-63341000D01*
X19971000Y-63341000D01*
G37*
G36*
X15436000Y-63321000D02*
G01*
X14764000Y-63321000D01*
X14764000Y-61869000D01*
X15436000Y-61869000D01*
X15436000Y-63321000D01*
X15436000Y-63321000D01*
G37*
G36*
X16386000Y-63321000D02*
G01*
X15714000Y-63321000D01*
X15714000Y-61869000D01*
X16386000Y-61869000D01*
X16386000Y-63321000D01*
X16386000Y-63321000D01*
G37*
G36*
X17336000Y-63321000D02*
G01*
X16664000Y-63321000D01*
X16664000Y-61869000D01*
X17336000Y-61869000D01*
X17336000Y-63321000D01*
X17336000Y-63321000D01*
G37*
G36*
X9311000Y-63021000D02*
G01*
X6709000Y-63021000D01*
X6709000Y-60419000D01*
X9311000Y-60419000D01*
X9311000Y-63021000D01*
X9311000Y-63021000D01*
G37*
G36*
X37221000Y-62431000D02*
G01*
X36219000Y-62431000D01*
X36219000Y-61529000D01*
X37221000Y-61529000D01*
X37221000Y-62431000D01*
X37221000Y-62431000D01*
G37*
G36*
X42889591Y-61268085D02*
G01*
X42923569Y-61278393D01*
X42954890Y-61295134D01*
X42982339Y-61317661D01*
X43004866Y-61345110D01*
X43021607Y-61376431D01*
X43031915Y-61410409D01*
X43036000Y-61451890D01*
X43036000Y-62053110D01*
X43031915Y-62094591D01*
X43021607Y-62128569D01*
X43004866Y-62159890D01*
X42982339Y-62187339D01*
X42954890Y-62209866D01*
X42923569Y-62226607D01*
X42889591Y-62236915D01*
X42848110Y-62241000D01*
X42171890Y-62241000D01*
X42130409Y-62236915D01*
X42096431Y-62226607D01*
X42065110Y-62209866D01*
X42037661Y-62187339D01*
X42015134Y-62159890D01*
X41998393Y-62128569D01*
X41988085Y-62094591D01*
X41984000Y-62053110D01*
X41984000Y-61451890D01*
X41988085Y-61410409D01*
X41998393Y-61376431D01*
X42015134Y-61345110D01*
X42037661Y-61317661D01*
X42065110Y-61295134D01*
X42096431Y-61278393D01*
X42130409Y-61268085D01*
X42171890Y-61264000D01*
X42848110Y-61264000D01*
X42889591Y-61268085D01*
X42889591Y-61268085D01*
G37*
G36*
X41339591Y-61248085D02*
G01*
X41373569Y-61258393D01*
X41404890Y-61275134D01*
X41432339Y-61297661D01*
X41454866Y-61325110D01*
X41471607Y-61356431D01*
X41481915Y-61390409D01*
X41486000Y-61431890D01*
X41486000Y-62033110D01*
X41481915Y-62074591D01*
X41471607Y-62108569D01*
X41454866Y-62139890D01*
X41432339Y-62167339D01*
X41404890Y-62189866D01*
X41373569Y-62206607D01*
X41339591Y-62216915D01*
X41298110Y-62221000D01*
X40621890Y-62221000D01*
X40580409Y-62216915D01*
X40546431Y-62206607D01*
X40515110Y-62189866D01*
X40487661Y-62167339D01*
X40465134Y-62139890D01*
X40448393Y-62108569D01*
X40438085Y-62074591D01*
X40434000Y-62033110D01*
X40434000Y-61431890D01*
X40438085Y-61390409D01*
X40448393Y-61356431D01*
X40465134Y-61325110D01*
X40487661Y-61297661D01*
X40515110Y-61275134D01*
X40546431Y-61258393D01*
X40580409Y-61248085D01*
X40621890Y-61244000D01*
X41298110Y-61244000D01*
X41339591Y-61248085D01*
X41339591Y-61248085D01*
G37*
G36*
X39221000Y-61481000D02*
G01*
X38219000Y-61481000D01*
X38219000Y-60579000D01*
X39221000Y-60579000D01*
X39221000Y-61481000D01*
X39221000Y-61481000D01*
G37*
G36*
X35405999Y-61130999D02*
G01*
X33603999Y-61130999D01*
X33603999Y-60378999D01*
X35405999Y-60378999D01*
X35405999Y-61130999D01*
X35405999Y-61130999D01*
G37*
G36*
X17336000Y-60951000D02*
G01*
X16664000Y-60951000D01*
X16664000Y-59499000D01*
X17336000Y-59499000D01*
X17336000Y-60951000D01*
X17336000Y-60951000D01*
G37*
G36*
X15436000Y-60951000D02*
G01*
X14764000Y-60951000D01*
X14764000Y-59499000D01*
X15436000Y-59499000D01*
X15436000Y-60951000D01*
X15436000Y-60951000D01*
G37*
G36*
X16386000Y-60951000D02*
G01*
X15714000Y-60951000D01*
X15714000Y-59499000D01*
X16386000Y-59499000D01*
X16386000Y-60951000D01*
X16386000Y-60951000D01*
G37*
G36*
X43261000Y-60721000D02*
G01*
X42359000Y-60721000D01*
X42359000Y-59719000D01*
X43261000Y-59719000D01*
X43261000Y-60721000D01*
X43261000Y-60721000D01*
G37*
G36*
X41361000Y-60721000D02*
G01*
X40459000Y-60721000D01*
X40459000Y-59719000D01*
X41361000Y-59719000D01*
X41361000Y-60721000D01*
X41361000Y-60721000D01*
G37*
G36*
X71454591Y-58338085D02*
G01*
X71488569Y-58348393D01*
X71519890Y-58365134D01*
X71547339Y-58387661D01*
X71569866Y-58415110D01*
X71586607Y-58446431D01*
X71596915Y-58480409D01*
X71601000Y-58521890D01*
X71601000Y-59198110D01*
X71596915Y-59239591D01*
X71586607Y-59273569D01*
X71569866Y-59304890D01*
X71547339Y-59332339D01*
X71519890Y-59354866D01*
X71488569Y-59371607D01*
X71454591Y-59381915D01*
X71413110Y-59386000D01*
X70811890Y-59386000D01*
X70770409Y-59381915D01*
X70736431Y-59371607D01*
X70705110Y-59354866D01*
X70677661Y-59332339D01*
X70655134Y-59304890D01*
X70638393Y-59273569D01*
X70628085Y-59239591D01*
X70624000Y-59198110D01*
X70624000Y-58521890D01*
X70628085Y-58480409D01*
X70638393Y-58446431D01*
X70655134Y-58415110D01*
X70677661Y-58387661D01*
X70705110Y-58365134D01*
X70736431Y-58348393D01*
X70770409Y-58338085D01*
X70811890Y-58334000D01*
X71413110Y-58334000D01*
X71454591Y-58338085D01*
X71454591Y-58338085D01*
G37*
G36*
X73029591Y-58338085D02*
G01*
X73063569Y-58348393D01*
X73094890Y-58365134D01*
X73122339Y-58387661D01*
X73144866Y-58415110D01*
X73161607Y-58446431D01*
X73171915Y-58480409D01*
X73176000Y-58521890D01*
X73176000Y-59198110D01*
X73171915Y-59239591D01*
X73161607Y-59273569D01*
X73144866Y-59304890D01*
X73122339Y-59332339D01*
X73094890Y-59354866D01*
X73063569Y-59371607D01*
X73029591Y-59381915D01*
X72988110Y-59386000D01*
X72386890Y-59386000D01*
X72345409Y-59381915D01*
X72311431Y-59371607D01*
X72280110Y-59354866D01*
X72252661Y-59332339D01*
X72230134Y-59304890D01*
X72213393Y-59273569D01*
X72203085Y-59239591D01*
X72199000Y-59198110D01*
X72199000Y-58521890D01*
X72203085Y-58480409D01*
X72213393Y-58446431D01*
X72230134Y-58415110D01*
X72252661Y-58387661D01*
X72280110Y-58365134D01*
X72311431Y-58348393D01*
X72345409Y-58338085D01*
X72386890Y-58334000D01*
X72988110Y-58334000D01*
X73029591Y-58338085D01*
X73029591Y-58338085D01*
G37*
G36*
X35405999Y-59230999D02*
G01*
X33603999Y-59230999D01*
X33603999Y-58478999D01*
X35405999Y-58478999D01*
X35405999Y-59230999D01*
X35405999Y-59230999D01*
G37*
G36*
X46921000Y-59211000D02*
G01*
X46019000Y-59211000D01*
X46019000Y-58209000D01*
X46921000Y-58209000D01*
X46921000Y-59211000D01*
X46921000Y-59211000D01*
G37*
G36*
X45021000Y-59211000D02*
G01*
X44119000Y-59211000D01*
X44119000Y-58209000D01*
X45021000Y-58209000D01*
X45021000Y-59211000D01*
X45021000Y-59211000D01*
G37*
G36*
X6229487Y-56458996D02*
G01*
X6466253Y-56557068D01*
X6466255Y-56557069D01*
X6679339Y-56699447D01*
X6860553Y-56880661D01*
X6988345Y-57071915D01*
X7002932Y-57093747D01*
X7101004Y-57330513D01*
X7151000Y-57581861D01*
X7151000Y-57838139D01*
X7101004Y-58089487D01*
X7051500Y-58209000D01*
X7002931Y-58326255D01*
X6860553Y-58539339D01*
X6679339Y-58720553D01*
X6466255Y-58862931D01*
X6466254Y-58862932D01*
X6466253Y-58862932D01*
X6229487Y-58961004D01*
X5978139Y-59011000D01*
X5721861Y-59011000D01*
X5470513Y-58961004D01*
X5233747Y-58862932D01*
X5233746Y-58862932D01*
X5233745Y-58862931D01*
X5020661Y-58720553D01*
X4839447Y-58539339D01*
X4697069Y-58326255D01*
X4648500Y-58209000D01*
X4598996Y-58089487D01*
X4549000Y-57838139D01*
X4549000Y-57581861D01*
X4598996Y-57330513D01*
X4697068Y-57093747D01*
X4711656Y-57071915D01*
X4839447Y-56880661D01*
X5020661Y-56699447D01*
X5233745Y-56557069D01*
X5233747Y-56557068D01*
X5470513Y-56458996D01*
X5721861Y-56409000D01*
X5978139Y-56409000D01*
X6229487Y-56458996D01*
X6229487Y-56458996D01*
G37*
G36*
X42311000Y-58721000D02*
G01*
X41409000Y-58721000D01*
X41409000Y-57719000D01*
X42311000Y-57719000D01*
X42311000Y-58721000D01*
X42311000Y-58721000D01*
G37*
G36*
X76601000Y-57771000D02*
G01*
X74999000Y-57771000D01*
X74999000Y-54069000D01*
X76601000Y-54069000D01*
X76601000Y-57771000D01*
X76601000Y-57771000D01*
G37*
G36*
X72016000Y-57651000D02*
G01*
X71344000Y-57651000D01*
X71344000Y-56199000D01*
X72016000Y-56199000D01*
X72016000Y-57651000D01*
X72016000Y-57651000D01*
G37*
G36*
X73916000Y-57651000D02*
G01*
X73244000Y-57651000D01*
X73244000Y-56199000D01*
X73916000Y-56199000D01*
X73916000Y-57651000D01*
X73916000Y-57651000D01*
G37*
G36*
X72966000Y-57651000D02*
G01*
X72294000Y-57651000D01*
X72294000Y-56199000D01*
X72966000Y-56199000D01*
X72966000Y-57651000D01*
X72966000Y-57651000D01*
G37*
G36*
X31509468Y-55963565D02*
G01*
X31548138Y-55975296D01*
X31583777Y-55994346D01*
X31615017Y-56019983D01*
X31640654Y-56051223D01*
X31659704Y-56086862D01*
X31671435Y-56125532D01*
X31676000Y-56171888D01*
X31676000Y-57248112D01*
X31671435Y-57294468D01*
X31659704Y-57333138D01*
X31640654Y-57368777D01*
X31615017Y-57400017D01*
X31583777Y-57425654D01*
X31548138Y-57444704D01*
X31509468Y-57456435D01*
X31463112Y-57461000D01*
X30811888Y-57461000D01*
X30765532Y-57456435D01*
X30726862Y-57444704D01*
X30691223Y-57425654D01*
X30659983Y-57400017D01*
X30634346Y-57368777D01*
X30615296Y-57333138D01*
X30603565Y-57294468D01*
X30599000Y-57248112D01*
X30599000Y-56171888D01*
X30603565Y-56125532D01*
X30615296Y-56086862D01*
X30634346Y-56051223D01*
X30659983Y-56019983D01*
X30691223Y-55994346D01*
X30726862Y-55975296D01*
X30765532Y-55963565D01*
X30811888Y-55959000D01*
X31463112Y-55959000D01*
X31509468Y-55963565D01*
X31509468Y-55963565D01*
G37*
G36*
X29634468Y-55963565D02*
G01*
X29673138Y-55975296D01*
X29708777Y-55994346D01*
X29740017Y-56019983D01*
X29765654Y-56051223D01*
X29784704Y-56086862D01*
X29796435Y-56125532D01*
X29801000Y-56171888D01*
X29801000Y-57248112D01*
X29796435Y-57294468D01*
X29784704Y-57333138D01*
X29765654Y-57368777D01*
X29740017Y-57400017D01*
X29708777Y-57425654D01*
X29673138Y-57444704D01*
X29634468Y-57456435D01*
X29588112Y-57461000D01*
X28936888Y-57461000D01*
X28890532Y-57456435D01*
X28851862Y-57444704D01*
X28816223Y-57425654D01*
X28784983Y-57400017D01*
X28759346Y-57368777D01*
X28740296Y-57333138D01*
X28728565Y-57294468D01*
X28724000Y-57248112D01*
X28724000Y-56171888D01*
X28728565Y-56125532D01*
X28740296Y-56086862D01*
X28759346Y-56051223D01*
X28784983Y-56019983D01*
X28816223Y-55994346D01*
X28851862Y-55975296D01*
X28890532Y-55963565D01*
X28936888Y-55959000D01*
X29588112Y-55959000D01*
X29634468Y-55963565D01*
X29634468Y-55963565D01*
G37*
G36*
X43289591Y-56168085D02*
G01*
X43323569Y-56178393D01*
X43354890Y-56195134D01*
X43382339Y-56217661D01*
X43404866Y-56245110D01*
X43421607Y-56276431D01*
X43431915Y-56310409D01*
X43436000Y-56351890D01*
X43436000Y-57028110D01*
X43431915Y-57069591D01*
X43421607Y-57103569D01*
X43404866Y-57134890D01*
X43382339Y-57162339D01*
X43354890Y-57184866D01*
X43323569Y-57201607D01*
X43289591Y-57211915D01*
X43248110Y-57216000D01*
X42646890Y-57216000D01*
X42605409Y-57211915D01*
X42571431Y-57201607D01*
X42540110Y-57184866D01*
X42512661Y-57162339D01*
X42490134Y-57134890D01*
X42473393Y-57103569D01*
X42463085Y-57069591D01*
X42459000Y-57028110D01*
X42459000Y-56351890D01*
X42463085Y-56310409D01*
X42473393Y-56276431D01*
X42490134Y-56245110D01*
X42512661Y-56217661D01*
X42540110Y-56195134D01*
X42571431Y-56178393D01*
X42605409Y-56168085D01*
X42646890Y-56164000D01*
X43248110Y-56164000D01*
X43289591Y-56168085D01*
X43289591Y-56168085D01*
G37*
G36*
X41714591Y-56168085D02*
G01*
X41748569Y-56178393D01*
X41779890Y-56195134D01*
X41807339Y-56217661D01*
X41829866Y-56245110D01*
X41846607Y-56276431D01*
X41856915Y-56310409D01*
X41861000Y-56351890D01*
X41861000Y-57028110D01*
X41856915Y-57069591D01*
X41846607Y-57103569D01*
X41829866Y-57134890D01*
X41807339Y-57162339D01*
X41779890Y-57184866D01*
X41748569Y-57201607D01*
X41714591Y-57211915D01*
X41673110Y-57216000D01*
X41071890Y-57216000D01*
X41030409Y-57211915D01*
X40996431Y-57201607D01*
X40965110Y-57184866D01*
X40937661Y-57162339D01*
X40915134Y-57134890D01*
X40898393Y-57103569D01*
X40888085Y-57069591D01*
X40884000Y-57028110D01*
X40884000Y-56351890D01*
X40888085Y-56310409D01*
X40898393Y-56276431D01*
X40915134Y-56245110D01*
X40937661Y-56217661D01*
X40965110Y-56195134D01*
X40996431Y-56178393D01*
X41030409Y-56168085D01*
X41071890Y-56164000D01*
X41673110Y-56164000D01*
X41714591Y-56168085D01*
X41714591Y-56168085D01*
G37*
G36*
X45971000Y-57211000D02*
G01*
X45069000Y-57211000D01*
X45069000Y-56209000D01*
X45971000Y-56209000D01*
X45971000Y-57211000D01*
X45971000Y-57211000D01*
G37*
G36*
X61689591Y-56028085D02*
G01*
X61723569Y-56038393D01*
X61754890Y-56055134D01*
X61782339Y-56077661D01*
X61804866Y-56105110D01*
X61821607Y-56136431D01*
X61831915Y-56170409D01*
X61836000Y-56211890D01*
X61836000Y-56888110D01*
X61831915Y-56929591D01*
X61821607Y-56963569D01*
X61804866Y-56994890D01*
X61782339Y-57022339D01*
X61754890Y-57044866D01*
X61723569Y-57061607D01*
X61689591Y-57071915D01*
X61648110Y-57076000D01*
X61046890Y-57076000D01*
X61005409Y-57071915D01*
X60971431Y-57061607D01*
X60940110Y-57044866D01*
X60912661Y-57022339D01*
X60890134Y-56994890D01*
X60873393Y-56963569D01*
X60863085Y-56929591D01*
X60859000Y-56888110D01*
X60859000Y-56211890D01*
X60863085Y-56170409D01*
X60873393Y-56136431D01*
X60890134Y-56105110D01*
X60912661Y-56077661D01*
X60940110Y-56055134D01*
X60971431Y-56038393D01*
X61005409Y-56028085D01*
X61046890Y-56024000D01*
X61648110Y-56024000D01*
X61689591Y-56028085D01*
X61689591Y-56028085D01*
G37*
G36*
X60114591Y-56028085D02*
G01*
X60148569Y-56038393D01*
X60179890Y-56055134D01*
X60207339Y-56077661D01*
X60229866Y-56105110D01*
X60246607Y-56136431D01*
X60256915Y-56170409D01*
X60261000Y-56211890D01*
X60261000Y-56888110D01*
X60256915Y-56929591D01*
X60246607Y-56963569D01*
X60229866Y-56994890D01*
X60207339Y-57022339D01*
X60179890Y-57044866D01*
X60148569Y-57061607D01*
X60114591Y-57071915D01*
X60073110Y-57076000D01*
X59471890Y-57076000D01*
X59430409Y-57071915D01*
X59396431Y-57061607D01*
X59365110Y-57044866D01*
X59337661Y-57022339D01*
X59315134Y-56994890D01*
X59298393Y-56963569D01*
X59288085Y-56929591D01*
X59284000Y-56888110D01*
X59284000Y-56211890D01*
X59288085Y-56170409D01*
X59298393Y-56136431D01*
X59315134Y-56105110D01*
X59337661Y-56077661D01*
X59365110Y-56055134D01*
X59396431Y-56038393D01*
X59430409Y-56028085D01*
X59471890Y-56024000D01*
X60073110Y-56024000D01*
X60114591Y-56028085D01*
X60114591Y-56028085D01*
G37*
G36*
X23988180Y-55994346D02*
G01*
X24046471Y-56211890D01*
X24062508Y-56271743D01*
X22579923Y-56669000D01*
X22032133Y-56815780D01*
X22032132Y-56815780D01*
X21721032Y-55654737D01*
X23570026Y-55159301D01*
X23751407Y-55110700D01*
X23751408Y-55110700D01*
X23988180Y-55994346D01*
X23988180Y-55994346D01*
G37*
G36*
X28698952Y-55029411D02*
G01*
X27097645Y-55458479D01*
X26668577Y-55573448D01*
X26668576Y-55573448D01*
X26357476Y-54412405D01*
X28152710Y-53931374D01*
X28387851Y-53868368D01*
X28387852Y-53868368D01*
X28698952Y-55029411D01*
X28698952Y-55029411D01*
G37*
G36*
X73916000Y-55281000D02*
G01*
X73244000Y-55281000D01*
X73244000Y-53829000D01*
X73916000Y-53829000D01*
X73916000Y-55281000D01*
X73916000Y-55281000D01*
G37*
G36*
X72966000Y-55281000D02*
G01*
X72294000Y-55281000D01*
X72294000Y-53829000D01*
X72966000Y-53829000D01*
X72966000Y-55281000D01*
X72966000Y-55281000D01*
G37*
G36*
X72016000Y-55281000D02*
G01*
X71344000Y-55281000D01*
X71344000Y-53829000D01*
X72016000Y-53829000D01*
X72016000Y-55281000D01*
X72016000Y-55281000D01*
G37*
G36*
X23528019Y-54277000D02*
G01*
X23619420Y-54618112D01*
X23622516Y-54629669D01*
X22130657Y-55029411D01*
X21592141Y-55173706D01*
X21592140Y-55173706D01*
X21331936Y-54202611D01*
X21281040Y-54012664D01*
X21281040Y-54012663D01*
X23211001Y-53495532D01*
X23311415Y-53468626D01*
X23311416Y-53468626D01*
X23528019Y-54277000D01*
X23528019Y-54277000D01*
G37*
G36*
X58895355Y-49315083D02*
G01*
X58900029Y-49316501D01*
X58904330Y-49318800D01*
X58910702Y-49324029D01*
X58931076Y-49337643D01*
X58953715Y-49347020D01*
X58977749Y-49351800D01*
X59002253Y-49351800D01*
X59026286Y-49347019D01*
X59048925Y-49337642D01*
X59069298Y-49324029D01*
X59075670Y-49318800D01*
X59079971Y-49316501D01*
X59084645Y-49315083D01*
X59095641Y-49314000D01*
X59384359Y-49314000D01*
X59395355Y-49315083D01*
X59400029Y-49316501D01*
X59404330Y-49318800D01*
X59410702Y-49324029D01*
X59431076Y-49337643D01*
X59453715Y-49347020D01*
X59477749Y-49351800D01*
X59502253Y-49351800D01*
X59526286Y-49347019D01*
X59548925Y-49337642D01*
X59569298Y-49324029D01*
X59575670Y-49318800D01*
X59579971Y-49316501D01*
X59584645Y-49315083D01*
X59595641Y-49314000D01*
X59884359Y-49314000D01*
X59895355Y-49315083D01*
X59900029Y-49316501D01*
X59904330Y-49318800D01*
X59910702Y-49324029D01*
X59931076Y-49337643D01*
X59953715Y-49347020D01*
X59977749Y-49351800D01*
X60002253Y-49351800D01*
X60026286Y-49347019D01*
X60048925Y-49337642D01*
X60069298Y-49324029D01*
X60075670Y-49318800D01*
X60079971Y-49316501D01*
X60084645Y-49315083D01*
X60095641Y-49314000D01*
X60384359Y-49314000D01*
X60395355Y-49315083D01*
X60400029Y-49316501D01*
X60404330Y-49318800D01*
X60410702Y-49324029D01*
X60431076Y-49337643D01*
X60453715Y-49347020D01*
X60477749Y-49351800D01*
X60502253Y-49351800D01*
X60526286Y-49347019D01*
X60548925Y-49337642D01*
X60569298Y-49324029D01*
X60575670Y-49318800D01*
X60579971Y-49316501D01*
X60584645Y-49315083D01*
X60595641Y-49314000D01*
X60884359Y-49314000D01*
X60895355Y-49315083D01*
X60900029Y-49316501D01*
X60904330Y-49318800D01*
X60910702Y-49324029D01*
X60931076Y-49337643D01*
X60953715Y-49347020D01*
X60977749Y-49351800D01*
X61002253Y-49351800D01*
X61026286Y-49347019D01*
X61048925Y-49337642D01*
X61069298Y-49324029D01*
X61075670Y-49318800D01*
X61079971Y-49316501D01*
X61084645Y-49315083D01*
X61095641Y-49314000D01*
X61384359Y-49314000D01*
X61395355Y-49315083D01*
X61400029Y-49316501D01*
X61404330Y-49318800D01*
X61410702Y-49324029D01*
X61431076Y-49337643D01*
X61453715Y-49347020D01*
X61477749Y-49351800D01*
X61502253Y-49351800D01*
X61526286Y-49347019D01*
X61548925Y-49337642D01*
X61569298Y-49324029D01*
X61575670Y-49318800D01*
X61579971Y-49316501D01*
X61584645Y-49315083D01*
X61595641Y-49314000D01*
X61884359Y-49314000D01*
X61895355Y-49315083D01*
X61900029Y-49316501D01*
X61904330Y-49318800D01*
X61910702Y-49324029D01*
X61931076Y-49337643D01*
X61953715Y-49347020D01*
X61977749Y-49351800D01*
X62002253Y-49351800D01*
X62026286Y-49347019D01*
X62048925Y-49337642D01*
X62069298Y-49324029D01*
X62075670Y-49318800D01*
X62079971Y-49316501D01*
X62084645Y-49315083D01*
X62095641Y-49314000D01*
X62384359Y-49314000D01*
X62395355Y-49315083D01*
X62400029Y-49316501D01*
X62404331Y-49318800D01*
X62408104Y-49321896D01*
X62411200Y-49325669D01*
X62413499Y-49329971D01*
X62414917Y-49334645D01*
X62416000Y-49345641D01*
X62416000Y-50189001D01*
X62418402Y-50213387D01*
X62425515Y-50236836D01*
X62437066Y-50258447D01*
X62452611Y-50277389D01*
X62471553Y-50292934D01*
X62493164Y-50304485D01*
X62516613Y-50311598D01*
X62540999Y-50314000D01*
X63384359Y-50314000D01*
X63395355Y-50315083D01*
X63400029Y-50316501D01*
X63404331Y-50318800D01*
X63408104Y-50321896D01*
X63411200Y-50325669D01*
X63413499Y-50329971D01*
X63414917Y-50334645D01*
X63416000Y-50345641D01*
X63416000Y-50634359D01*
X63414917Y-50645355D01*
X63413499Y-50650029D01*
X63411200Y-50654330D01*
X63405971Y-50660702D01*
X63392357Y-50681076D01*
X63382980Y-50703715D01*
X63378200Y-50727749D01*
X63378200Y-50752253D01*
X63382981Y-50776286D01*
X63392358Y-50798925D01*
X63405971Y-50819298D01*
X63411200Y-50825670D01*
X63413499Y-50829971D01*
X63414917Y-50834645D01*
X63416000Y-50845641D01*
X63416000Y-51134359D01*
X63414917Y-51145355D01*
X63413499Y-51150029D01*
X63411200Y-51154330D01*
X63405971Y-51160702D01*
X63392357Y-51181076D01*
X63382980Y-51203715D01*
X63378200Y-51227749D01*
X63378200Y-51252253D01*
X63382981Y-51276286D01*
X63392358Y-51298925D01*
X63405971Y-51319298D01*
X63411200Y-51325670D01*
X63413499Y-51329971D01*
X63414917Y-51334645D01*
X63416000Y-51345641D01*
X63416000Y-51634359D01*
X63414917Y-51645355D01*
X63413499Y-51650029D01*
X63411200Y-51654330D01*
X63405971Y-51660702D01*
X63392357Y-51681076D01*
X63382980Y-51703715D01*
X63378200Y-51727749D01*
X63378200Y-51752253D01*
X63382981Y-51776286D01*
X63392358Y-51798925D01*
X63405971Y-51819298D01*
X63411200Y-51825670D01*
X63413499Y-51829971D01*
X63414917Y-51834645D01*
X63416000Y-51845641D01*
X63416000Y-52134359D01*
X63414917Y-52145355D01*
X63413499Y-52150029D01*
X63411200Y-52154330D01*
X63405971Y-52160702D01*
X63392357Y-52181076D01*
X63382980Y-52203715D01*
X63378200Y-52227749D01*
X63378200Y-52252253D01*
X63382981Y-52276286D01*
X63392358Y-52298925D01*
X63405971Y-52319298D01*
X63411200Y-52325670D01*
X63413499Y-52329971D01*
X63414917Y-52334645D01*
X63416000Y-52345641D01*
X63416000Y-52634359D01*
X63414917Y-52645355D01*
X63413499Y-52650029D01*
X63411200Y-52654330D01*
X63405971Y-52660702D01*
X63392357Y-52681076D01*
X63382980Y-52703715D01*
X63378200Y-52727749D01*
X63378200Y-52752253D01*
X63382981Y-52776286D01*
X63392358Y-52798925D01*
X63405971Y-52819298D01*
X63411200Y-52825670D01*
X63413499Y-52829971D01*
X63414917Y-52834645D01*
X63416000Y-52845641D01*
X63416000Y-53134359D01*
X63414917Y-53145355D01*
X63413499Y-53150029D01*
X63411200Y-53154330D01*
X63405971Y-53160702D01*
X63392357Y-53181076D01*
X63382980Y-53203715D01*
X63378200Y-53227749D01*
X63378200Y-53252253D01*
X63382981Y-53276286D01*
X63392358Y-53298925D01*
X63405971Y-53319298D01*
X63411200Y-53325670D01*
X63413499Y-53329971D01*
X63414917Y-53334645D01*
X63416000Y-53345641D01*
X63416000Y-53634359D01*
X63414917Y-53645355D01*
X63413499Y-53650029D01*
X63411200Y-53654330D01*
X63405971Y-53660702D01*
X63392357Y-53681076D01*
X63382980Y-53703715D01*
X63378200Y-53727749D01*
X63378200Y-53752253D01*
X63382981Y-53776286D01*
X63392358Y-53798925D01*
X63405971Y-53819298D01*
X63411200Y-53825670D01*
X63413499Y-53829971D01*
X63414917Y-53834645D01*
X63416000Y-53845641D01*
X63416000Y-54134359D01*
X63414917Y-54145355D01*
X63413499Y-54150029D01*
X63411200Y-54154331D01*
X63408104Y-54158104D01*
X63404331Y-54161200D01*
X63400029Y-54163499D01*
X63395355Y-54164917D01*
X63384359Y-54166000D01*
X62540999Y-54166000D01*
X62516613Y-54168402D01*
X62493164Y-54175515D01*
X62471553Y-54187066D01*
X62452611Y-54202611D01*
X62437066Y-54221553D01*
X62425515Y-54243164D01*
X62418402Y-54266613D01*
X62416000Y-54290999D01*
X62416000Y-55134359D01*
X62414917Y-55145355D01*
X62413499Y-55150029D01*
X62411200Y-55154331D01*
X62408104Y-55158104D01*
X62404331Y-55161200D01*
X62400029Y-55163499D01*
X62395355Y-55164917D01*
X62384359Y-55166000D01*
X62095641Y-55166000D01*
X62084645Y-55164917D01*
X62079971Y-55163499D01*
X62075670Y-55161200D01*
X62069298Y-55155971D01*
X62048924Y-55142357D01*
X62026285Y-55132980D01*
X62002251Y-55128200D01*
X61977747Y-55128200D01*
X61953714Y-55132981D01*
X61931075Y-55142358D01*
X61910702Y-55155971D01*
X61904330Y-55161200D01*
X61900029Y-55163499D01*
X61895355Y-55164917D01*
X61884359Y-55166000D01*
X61595641Y-55166000D01*
X61584645Y-55164917D01*
X61579971Y-55163499D01*
X61575670Y-55161200D01*
X61569298Y-55155971D01*
X61548924Y-55142357D01*
X61526285Y-55132980D01*
X61502251Y-55128200D01*
X61477747Y-55128200D01*
X61453714Y-55132981D01*
X61431075Y-55142358D01*
X61410702Y-55155971D01*
X61404330Y-55161200D01*
X61400029Y-55163499D01*
X61395355Y-55164917D01*
X61384359Y-55166000D01*
X61095641Y-55166000D01*
X61084645Y-55164917D01*
X61079971Y-55163499D01*
X61075670Y-55161200D01*
X61069298Y-55155971D01*
X61048924Y-55142357D01*
X61026285Y-55132980D01*
X61002251Y-55128200D01*
X60977747Y-55128200D01*
X60953714Y-55132981D01*
X60931075Y-55142358D01*
X60910702Y-55155971D01*
X60904330Y-55161200D01*
X60900029Y-55163499D01*
X60895355Y-55164917D01*
X60884359Y-55166000D01*
X60595641Y-55166000D01*
X60584645Y-55164917D01*
X60579971Y-55163499D01*
X60575670Y-55161200D01*
X60569298Y-55155971D01*
X60548924Y-55142357D01*
X60526285Y-55132980D01*
X60502251Y-55128200D01*
X60477747Y-55128200D01*
X60453714Y-55132981D01*
X60431075Y-55142358D01*
X60410702Y-55155971D01*
X60404330Y-55161200D01*
X60400029Y-55163499D01*
X60395355Y-55164917D01*
X60384359Y-55166000D01*
X60095641Y-55166000D01*
X60084645Y-55164917D01*
X60079971Y-55163499D01*
X60075670Y-55161200D01*
X60069298Y-55155971D01*
X60048924Y-55142357D01*
X60026285Y-55132980D01*
X60002251Y-55128200D01*
X59977747Y-55128200D01*
X59953714Y-55132981D01*
X59931075Y-55142358D01*
X59910702Y-55155971D01*
X59904330Y-55161200D01*
X59900029Y-55163499D01*
X59895355Y-55164917D01*
X59884359Y-55166000D01*
X59595641Y-55166000D01*
X59584645Y-55164917D01*
X59579971Y-55163499D01*
X59575670Y-55161200D01*
X59569298Y-55155971D01*
X59548924Y-55142357D01*
X59526285Y-55132980D01*
X59502251Y-55128200D01*
X59477747Y-55128200D01*
X59453714Y-55132981D01*
X59431075Y-55142358D01*
X59410702Y-55155971D01*
X59404330Y-55161200D01*
X59400029Y-55163499D01*
X59395355Y-55164917D01*
X59384359Y-55166000D01*
X59095641Y-55166000D01*
X59084645Y-55164917D01*
X59079971Y-55163499D01*
X59075670Y-55161200D01*
X59069298Y-55155971D01*
X59048924Y-55142357D01*
X59026285Y-55132980D01*
X59002251Y-55128200D01*
X58977747Y-55128200D01*
X58953714Y-55132981D01*
X58931075Y-55142358D01*
X58910702Y-55155971D01*
X58904330Y-55161200D01*
X58900029Y-55163499D01*
X58895355Y-55164917D01*
X58884359Y-55166000D01*
X58595641Y-55166000D01*
X58584645Y-55164917D01*
X58579971Y-55163499D01*
X58575669Y-55161200D01*
X58571896Y-55158104D01*
X58568800Y-55154331D01*
X58566501Y-55150029D01*
X58565083Y-55145355D01*
X58564000Y-55134359D01*
X58564000Y-54290999D01*
X58561598Y-54266613D01*
X58554485Y-54243164D01*
X58542934Y-54221553D01*
X58527389Y-54202611D01*
X58508447Y-54187066D01*
X58486836Y-54175515D01*
X58463387Y-54168402D01*
X58439001Y-54166000D01*
X57595641Y-54166000D01*
X57584645Y-54164917D01*
X57579971Y-54163499D01*
X57575669Y-54161200D01*
X57571896Y-54158104D01*
X57568800Y-54154331D01*
X57566501Y-54150029D01*
X57565083Y-54145355D01*
X57564000Y-54134359D01*
X57564000Y-53845641D01*
X57565083Y-53834645D01*
X57566501Y-53829971D01*
X57568800Y-53825670D01*
X57574029Y-53819298D01*
X57587643Y-53798924D01*
X57597020Y-53776285D01*
X57601800Y-53752251D01*
X57601800Y-53727747D01*
X57597019Y-53703714D01*
X57587642Y-53681075D01*
X57574029Y-53660702D01*
X57568800Y-53654330D01*
X57566501Y-53650029D01*
X57565083Y-53645355D01*
X57564000Y-53634359D01*
X57564000Y-53345641D01*
X57565083Y-53334645D01*
X57566501Y-53329971D01*
X57568800Y-53325670D01*
X57574029Y-53319298D01*
X57587643Y-53298924D01*
X57597020Y-53276285D01*
X57601800Y-53252251D01*
X57601800Y-53227747D01*
X57597019Y-53203714D01*
X57587642Y-53181075D01*
X57574029Y-53160702D01*
X57568800Y-53154330D01*
X57566501Y-53150029D01*
X57565083Y-53145355D01*
X57564000Y-53134359D01*
X57564000Y-52845641D01*
X57565083Y-52834645D01*
X57566501Y-52829971D01*
X57568800Y-52825670D01*
X57574029Y-52819298D01*
X57587643Y-52798924D01*
X57597020Y-52776285D01*
X57601800Y-52752251D01*
X57601800Y-52727747D01*
X57597019Y-52703714D01*
X57587642Y-52681075D01*
X57574029Y-52660702D01*
X57568800Y-52654330D01*
X57566501Y-52650029D01*
X57565083Y-52645355D01*
X57564000Y-52634359D01*
X57564000Y-52345641D01*
X57565083Y-52334645D01*
X57566501Y-52329971D01*
X57568800Y-52325670D01*
X57574029Y-52319298D01*
X57587643Y-52298924D01*
X57597020Y-52276285D01*
X57601800Y-52252251D01*
X57601800Y-52227747D01*
X57597019Y-52203714D01*
X57587642Y-52181075D01*
X57574029Y-52160702D01*
X57568800Y-52154330D01*
X57566501Y-52150029D01*
X57565083Y-52145355D01*
X57564000Y-52134359D01*
X57564000Y-51845641D01*
X57565083Y-51834645D01*
X57566501Y-51829971D01*
X57568800Y-51825670D01*
X57574029Y-51819298D01*
X57587643Y-51798924D01*
X57597020Y-51776285D01*
X57601800Y-51752251D01*
X57601800Y-51727747D01*
X57597019Y-51703714D01*
X57587642Y-51681075D01*
X57574029Y-51660702D01*
X57568800Y-51654330D01*
X57566501Y-51650029D01*
X57565083Y-51645355D01*
X57564000Y-51634359D01*
X57564000Y-51345641D01*
X57565083Y-51334645D01*
X57566501Y-51329971D01*
X57568800Y-51325670D01*
X57574029Y-51319298D01*
X57587643Y-51298924D01*
X57597020Y-51276285D01*
X57601800Y-51252251D01*
X57601800Y-51227747D01*
X57597019Y-51203714D01*
X57587642Y-51181075D01*
X57574029Y-51160702D01*
X57568800Y-51154330D01*
X57566501Y-51150029D01*
X57565083Y-51145355D01*
X57564000Y-51134359D01*
X57564000Y-50845641D01*
X57565083Y-50834645D01*
X57566501Y-50829971D01*
X57568800Y-50825670D01*
X57574029Y-50819298D01*
X57587643Y-50798924D01*
X57597020Y-50776285D01*
X57601800Y-50752251D01*
X57601800Y-50727749D01*
X58503200Y-50727749D01*
X58503200Y-50752253D01*
X58507981Y-50776286D01*
X58517358Y-50798925D01*
X58530971Y-50819298D01*
X58536200Y-50825670D01*
X58538499Y-50829971D01*
X58539917Y-50834645D01*
X58541000Y-50845641D01*
X58541000Y-51134359D01*
X58539917Y-51145355D01*
X58538499Y-51150029D01*
X58536200Y-51154330D01*
X58530971Y-51160702D01*
X58517357Y-51181076D01*
X58507980Y-51203715D01*
X58503200Y-51227749D01*
X58503200Y-51252253D01*
X58507981Y-51276286D01*
X58517358Y-51298925D01*
X58530971Y-51319298D01*
X58536200Y-51325670D01*
X58538499Y-51329971D01*
X58539917Y-51334645D01*
X58541000Y-51345641D01*
X58541000Y-51634359D01*
X58539917Y-51645355D01*
X58538499Y-51650029D01*
X58536200Y-51654330D01*
X58530971Y-51660702D01*
X58517357Y-51681076D01*
X58507980Y-51703715D01*
X58503200Y-51727749D01*
X58503200Y-51752253D01*
X58507981Y-51776286D01*
X58517358Y-51798925D01*
X58530971Y-51819298D01*
X58536200Y-51825670D01*
X58538499Y-51829971D01*
X58539917Y-51834645D01*
X58541000Y-51845641D01*
X58541000Y-52134359D01*
X58539917Y-52145355D01*
X58538499Y-52150029D01*
X58536200Y-52154330D01*
X58530971Y-52160702D01*
X58517357Y-52181076D01*
X58507980Y-52203715D01*
X58503200Y-52227749D01*
X58503200Y-52252253D01*
X58507981Y-52276286D01*
X58517358Y-52298925D01*
X58530971Y-52319298D01*
X58536200Y-52325670D01*
X58538499Y-52329971D01*
X58539917Y-52334645D01*
X58541000Y-52345641D01*
X58541000Y-52634359D01*
X58539917Y-52645355D01*
X58538499Y-52650029D01*
X58536200Y-52654330D01*
X58530971Y-52660702D01*
X58517357Y-52681076D01*
X58507980Y-52703715D01*
X58503200Y-52727749D01*
X58503200Y-52752253D01*
X58507981Y-52776286D01*
X58517358Y-52798925D01*
X58530971Y-52819298D01*
X58536200Y-52825670D01*
X58538499Y-52829971D01*
X58539917Y-52834645D01*
X58541000Y-52845641D01*
X58541000Y-53134359D01*
X58539917Y-53145355D01*
X58538499Y-53150029D01*
X58536200Y-53154330D01*
X58530971Y-53160702D01*
X58517357Y-53181076D01*
X58507980Y-53203715D01*
X58503200Y-53227749D01*
X58503200Y-53252253D01*
X58507981Y-53276286D01*
X58517358Y-53298925D01*
X58530971Y-53319298D01*
X58536200Y-53325670D01*
X58538499Y-53329971D01*
X58539917Y-53334645D01*
X58541000Y-53345641D01*
X58541000Y-53634359D01*
X58539917Y-53645355D01*
X58538499Y-53650029D01*
X58536200Y-53654330D01*
X58530971Y-53660702D01*
X58517357Y-53681076D01*
X58507980Y-53703715D01*
X58503200Y-53727749D01*
X58503200Y-53752253D01*
X58507981Y-53776286D01*
X58517358Y-53798925D01*
X58530971Y-53819298D01*
X58536200Y-53825670D01*
X58538499Y-53829971D01*
X58539917Y-53834645D01*
X58541000Y-53845641D01*
X58541000Y-54064001D01*
X58543402Y-54088387D01*
X58550515Y-54111836D01*
X58562066Y-54133447D01*
X58577611Y-54152389D01*
X58596553Y-54167934D01*
X58618164Y-54179485D01*
X58641613Y-54186598D01*
X58665999Y-54189000D01*
X58884359Y-54189000D01*
X58895355Y-54190083D01*
X58900029Y-54191501D01*
X58904330Y-54193800D01*
X58910702Y-54199029D01*
X58931076Y-54212643D01*
X58953715Y-54222020D01*
X58977749Y-54226800D01*
X59002253Y-54226800D01*
X59026286Y-54222019D01*
X59048925Y-54212642D01*
X59069298Y-54199029D01*
X59075670Y-54193800D01*
X59079971Y-54191501D01*
X59084645Y-54190083D01*
X59095641Y-54189000D01*
X59384359Y-54189000D01*
X59395355Y-54190083D01*
X59400029Y-54191501D01*
X59404330Y-54193800D01*
X59410702Y-54199029D01*
X59431076Y-54212643D01*
X59453715Y-54222020D01*
X59477749Y-54226800D01*
X59502253Y-54226800D01*
X59526286Y-54222019D01*
X59548925Y-54212642D01*
X59569298Y-54199029D01*
X59575670Y-54193800D01*
X59579971Y-54191501D01*
X59584645Y-54190083D01*
X59595641Y-54189000D01*
X59884359Y-54189000D01*
X59895355Y-54190083D01*
X59900029Y-54191501D01*
X59904330Y-54193800D01*
X59910702Y-54199029D01*
X59931076Y-54212643D01*
X59953715Y-54222020D01*
X59977749Y-54226800D01*
X60002253Y-54226800D01*
X60026286Y-54222019D01*
X60048925Y-54212642D01*
X60069298Y-54199029D01*
X60075670Y-54193800D01*
X60079971Y-54191501D01*
X60084645Y-54190083D01*
X60095641Y-54189000D01*
X60384359Y-54189000D01*
X60395355Y-54190083D01*
X60400029Y-54191501D01*
X60404330Y-54193800D01*
X60410702Y-54199029D01*
X60431076Y-54212643D01*
X60453715Y-54222020D01*
X60477749Y-54226800D01*
X60502253Y-54226800D01*
X60526286Y-54222019D01*
X60548925Y-54212642D01*
X60569298Y-54199029D01*
X60575670Y-54193800D01*
X60579971Y-54191501D01*
X60584645Y-54190083D01*
X60595641Y-54189000D01*
X60884359Y-54189000D01*
X60895355Y-54190083D01*
X60900029Y-54191501D01*
X60904330Y-54193800D01*
X60910702Y-54199029D01*
X60931076Y-54212643D01*
X60953715Y-54222020D01*
X60977749Y-54226800D01*
X61002253Y-54226800D01*
X61026286Y-54222019D01*
X61048925Y-54212642D01*
X61069298Y-54199029D01*
X61075670Y-54193800D01*
X61079971Y-54191501D01*
X61084645Y-54190083D01*
X61095641Y-54189000D01*
X61384359Y-54189000D01*
X61395355Y-54190083D01*
X61400029Y-54191501D01*
X61404330Y-54193800D01*
X61410702Y-54199029D01*
X61431076Y-54212643D01*
X61453715Y-54222020D01*
X61477749Y-54226800D01*
X61502253Y-54226800D01*
X61526286Y-54222019D01*
X61548925Y-54212642D01*
X61569298Y-54199029D01*
X61575670Y-54193800D01*
X61579971Y-54191501D01*
X61584645Y-54190083D01*
X61595641Y-54189000D01*
X61884359Y-54189000D01*
X61895355Y-54190083D01*
X61900029Y-54191501D01*
X61904330Y-54193800D01*
X61910702Y-54199029D01*
X61931076Y-54212643D01*
X61953715Y-54222020D01*
X61977749Y-54226800D01*
X62002253Y-54226800D01*
X62026286Y-54222019D01*
X62048925Y-54212642D01*
X62069298Y-54199029D01*
X62075670Y-54193800D01*
X62079971Y-54191501D01*
X62084645Y-54190083D01*
X62095641Y-54189000D01*
X62314001Y-54189000D01*
X62338387Y-54186598D01*
X62361836Y-54179485D01*
X62383447Y-54167934D01*
X62402389Y-54152389D01*
X62417934Y-54133447D01*
X62429485Y-54111836D01*
X62436598Y-54088387D01*
X62439000Y-54064001D01*
X62439000Y-53845641D01*
X62440083Y-53834645D01*
X62441501Y-53829971D01*
X62443800Y-53825670D01*
X62449029Y-53819298D01*
X62462643Y-53798924D01*
X62472020Y-53776285D01*
X62476800Y-53752251D01*
X62476800Y-53727747D01*
X62472019Y-53703714D01*
X62462642Y-53681075D01*
X62449029Y-53660702D01*
X62443800Y-53654330D01*
X62441501Y-53650029D01*
X62440083Y-53645355D01*
X62439000Y-53634359D01*
X62439000Y-53345641D01*
X62440083Y-53334645D01*
X62441501Y-53329971D01*
X62443800Y-53325670D01*
X62449029Y-53319298D01*
X62462643Y-53298924D01*
X62472020Y-53276285D01*
X62476800Y-53252251D01*
X62476800Y-53227747D01*
X62472019Y-53203714D01*
X62462642Y-53181075D01*
X62449029Y-53160702D01*
X62443800Y-53154330D01*
X62441501Y-53150029D01*
X62440083Y-53145355D01*
X62439000Y-53134359D01*
X62439000Y-52845641D01*
X62440083Y-52834645D01*
X62441501Y-52829971D01*
X62443800Y-52825670D01*
X62449029Y-52819298D01*
X62462643Y-52798924D01*
X62472020Y-52776285D01*
X62476800Y-52752251D01*
X62476800Y-52727747D01*
X62472019Y-52703714D01*
X62462642Y-52681075D01*
X62449029Y-52660702D01*
X62443800Y-52654330D01*
X62441501Y-52650029D01*
X62440083Y-52645355D01*
X62439000Y-52634359D01*
X62439000Y-52345641D01*
X62440083Y-52334645D01*
X62441501Y-52329971D01*
X62443800Y-52325670D01*
X62449029Y-52319298D01*
X62462643Y-52298924D01*
X62472020Y-52276285D01*
X62476800Y-52252251D01*
X62476800Y-52227747D01*
X62472019Y-52203714D01*
X62462642Y-52181075D01*
X62449029Y-52160702D01*
X62443800Y-52154330D01*
X62441501Y-52150029D01*
X62440083Y-52145355D01*
X62439000Y-52134359D01*
X62439000Y-51845641D01*
X62440083Y-51834645D01*
X62441501Y-51829971D01*
X62443800Y-51825670D01*
X62449029Y-51819298D01*
X62462643Y-51798924D01*
X62472020Y-51776285D01*
X62476800Y-51752251D01*
X62476800Y-51727747D01*
X62472019Y-51703714D01*
X62462642Y-51681075D01*
X62449029Y-51660702D01*
X62443800Y-51654330D01*
X62441501Y-51650029D01*
X62440083Y-51645355D01*
X62439000Y-51634359D01*
X62439000Y-51345641D01*
X62440083Y-51334645D01*
X62441501Y-51329971D01*
X62443800Y-51325670D01*
X62449029Y-51319298D01*
X62462643Y-51298924D01*
X62472020Y-51276285D01*
X62476800Y-51252251D01*
X62476800Y-51227747D01*
X62472019Y-51203714D01*
X62462642Y-51181075D01*
X62449029Y-51160702D01*
X62443800Y-51154330D01*
X62441501Y-51150029D01*
X62440083Y-51145355D01*
X62439000Y-51134359D01*
X62439000Y-50845641D01*
X62440083Y-50834645D01*
X62441501Y-50829971D01*
X62443800Y-50825670D01*
X62449029Y-50819298D01*
X62462643Y-50798924D01*
X62472020Y-50776285D01*
X62476800Y-50752251D01*
X62476800Y-50727747D01*
X62472019Y-50703714D01*
X62462642Y-50681075D01*
X62449029Y-50660702D01*
X62443800Y-50654330D01*
X62441501Y-50650029D01*
X62440083Y-50645355D01*
X62439000Y-50634359D01*
X62439000Y-50415999D01*
X62436598Y-50391613D01*
X62429485Y-50368164D01*
X62417934Y-50346553D01*
X62402389Y-50327611D01*
X62383447Y-50312066D01*
X62361836Y-50300515D01*
X62338387Y-50293402D01*
X62314001Y-50291000D01*
X62095641Y-50291000D01*
X62084645Y-50289917D01*
X62079971Y-50288499D01*
X62075670Y-50286200D01*
X62069298Y-50280971D01*
X62048924Y-50267357D01*
X62026285Y-50257980D01*
X62002251Y-50253200D01*
X61977747Y-50253200D01*
X61953714Y-50257981D01*
X61931075Y-50267358D01*
X61910702Y-50280971D01*
X61904330Y-50286200D01*
X61900029Y-50288499D01*
X61895355Y-50289917D01*
X61884359Y-50291000D01*
X61595641Y-50291000D01*
X61584645Y-50289917D01*
X61579971Y-50288499D01*
X61575670Y-50286200D01*
X61569298Y-50280971D01*
X61548924Y-50267357D01*
X61526285Y-50257980D01*
X61502251Y-50253200D01*
X61477747Y-50253200D01*
X61453714Y-50257981D01*
X61431075Y-50267358D01*
X61410702Y-50280971D01*
X61404330Y-50286200D01*
X61400029Y-50288499D01*
X61395355Y-50289917D01*
X61384359Y-50291000D01*
X61095641Y-50291000D01*
X61084645Y-50289917D01*
X61079971Y-50288499D01*
X61075670Y-50286200D01*
X61069298Y-50280971D01*
X61048924Y-50267357D01*
X61026285Y-50257980D01*
X61002251Y-50253200D01*
X60977747Y-50253200D01*
X60953714Y-50257981D01*
X60931075Y-50267358D01*
X60910702Y-50280971D01*
X60904330Y-50286200D01*
X60900029Y-50288499D01*
X60895355Y-50289917D01*
X60884359Y-50291000D01*
X60595641Y-50291000D01*
X60584645Y-50289917D01*
X60579971Y-50288499D01*
X60575670Y-50286200D01*
X60569298Y-50280971D01*
X60548924Y-50267357D01*
X60526285Y-50257980D01*
X60502251Y-50253200D01*
X60477747Y-50253200D01*
X60453714Y-50257981D01*
X60431075Y-50267358D01*
X60410702Y-50280971D01*
X60404330Y-50286200D01*
X60400029Y-50288499D01*
X60395355Y-50289917D01*
X60384359Y-50291000D01*
X60095641Y-50291000D01*
X60084645Y-50289917D01*
X60079971Y-50288499D01*
X60075670Y-50286200D01*
X60069298Y-50280971D01*
X60048924Y-50267357D01*
X60026285Y-50257980D01*
X60002251Y-50253200D01*
X59977747Y-50253200D01*
X59953714Y-50257981D01*
X59931075Y-50267358D01*
X59910702Y-50280971D01*
X59904330Y-50286200D01*
X59900029Y-50288499D01*
X59895355Y-50289917D01*
X59884359Y-50291000D01*
X59595641Y-50291000D01*
X59584645Y-50289917D01*
X59579971Y-50288499D01*
X59575670Y-50286200D01*
X59569298Y-50280971D01*
X59548924Y-50267357D01*
X59526285Y-50257980D01*
X59502251Y-50253200D01*
X59477747Y-50253200D01*
X59453714Y-50257981D01*
X59431075Y-50267358D01*
X59410702Y-50280971D01*
X59404330Y-50286200D01*
X59400029Y-50288499D01*
X59395355Y-50289917D01*
X59384359Y-50291000D01*
X59095641Y-50291000D01*
X59084645Y-50289917D01*
X59079971Y-50288499D01*
X59075670Y-50286200D01*
X59069298Y-50280971D01*
X59048924Y-50267357D01*
X59026285Y-50257980D01*
X59002251Y-50253200D01*
X58977747Y-50253200D01*
X58953714Y-50257981D01*
X58931075Y-50267358D01*
X58910702Y-50280971D01*
X58904330Y-50286200D01*
X58900029Y-50288499D01*
X58895355Y-50289917D01*
X58884359Y-50291000D01*
X58665999Y-50291000D01*
X58641613Y-50293402D01*
X58618164Y-50300515D01*
X58596553Y-50312066D01*
X58577611Y-50327611D01*
X58562066Y-50346553D01*
X58550515Y-50368164D01*
X58543402Y-50391613D01*
X58541000Y-50415999D01*
X58541000Y-50634359D01*
X58539917Y-50645355D01*
X58538499Y-50650029D01*
X58536200Y-50654330D01*
X58530971Y-50660702D01*
X58517357Y-50681076D01*
X58507980Y-50703715D01*
X58503200Y-50727749D01*
X57601800Y-50727749D01*
X57601800Y-50727747D01*
X57597019Y-50703714D01*
X57587642Y-50681075D01*
X57574029Y-50660702D01*
X57568800Y-50654330D01*
X57566501Y-50650029D01*
X57565083Y-50645355D01*
X57564000Y-50634359D01*
X57564000Y-50345641D01*
X57565083Y-50334645D01*
X57566501Y-50329971D01*
X57568800Y-50325669D01*
X57571896Y-50321896D01*
X57575669Y-50318800D01*
X57579971Y-50316501D01*
X57584645Y-50315083D01*
X57595641Y-50314000D01*
X58439001Y-50314000D01*
X58463387Y-50311598D01*
X58486836Y-50304485D01*
X58508447Y-50292934D01*
X58527389Y-50277389D01*
X58542934Y-50258447D01*
X58554485Y-50236836D01*
X58561598Y-50213387D01*
X58564000Y-50189001D01*
X58564000Y-49345641D01*
X58565083Y-49334645D01*
X58566501Y-49329971D01*
X58568800Y-49325669D01*
X58571896Y-49321896D01*
X58575669Y-49318800D01*
X58579971Y-49316501D01*
X58584645Y-49315083D01*
X58595641Y-49314000D01*
X58884359Y-49314000D01*
X58895355Y-49315083D01*
X58895355Y-49315083D01*
G37*
G36*
X61967417Y-50642540D02*
G01*
X61996081Y-50651235D01*
X62022495Y-50665354D01*
X62045646Y-50684354D01*
X62064646Y-50707505D01*
X62078765Y-50733919D01*
X62087460Y-50762583D01*
X62091000Y-50798527D01*
X62091000Y-53681473D01*
X62087460Y-53717417D01*
X62078765Y-53746081D01*
X62064646Y-53772495D01*
X62045646Y-53795646D01*
X62022495Y-53814646D01*
X61996081Y-53828765D01*
X61967417Y-53837460D01*
X61931473Y-53841000D01*
X59048527Y-53841000D01*
X59012583Y-53837460D01*
X58983919Y-53828765D01*
X58957505Y-53814646D01*
X58934354Y-53795646D01*
X58915354Y-53772495D01*
X58901235Y-53746081D01*
X58892540Y-53717417D01*
X58889000Y-53681473D01*
X58889000Y-50798527D01*
X58892540Y-50762583D01*
X58901235Y-50733919D01*
X58915354Y-50707505D01*
X58934354Y-50684354D01*
X58957505Y-50665354D01*
X58983919Y-50651235D01*
X59012583Y-50642540D01*
X59048527Y-50639000D01*
X61931473Y-50639000D01*
X61967417Y-50642540D01*
X61967417Y-50642540D01*
G37*
G36*
X8584468Y-53333565D02*
G01*
X8623138Y-53345296D01*
X8658777Y-53364346D01*
X8690017Y-53389983D01*
X8715654Y-53421223D01*
X8734704Y-53456862D01*
X8746435Y-53495532D01*
X8751000Y-53541888D01*
X8751000Y-54618112D01*
X8746435Y-54664468D01*
X8734704Y-54703138D01*
X8715654Y-54738777D01*
X8690017Y-54770017D01*
X8658777Y-54795654D01*
X8623138Y-54814704D01*
X8584468Y-54826435D01*
X8538112Y-54831000D01*
X7886888Y-54831000D01*
X7840532Y-54826435D01*
X7801862Y-54814704D01*
X7766223Y-54795654D01*
X7734983Y-54770017D01*
X7709346Y-54738777D01*
X7690296Y-54703138D01*
X7678565Y-54664468D01*
X7674000Y-54618112D01*
X7674000Y-53541888D01*
X7678565Y-53495532D01*
X7690296Y-53456862D01*
X7709346Y-53421223D01*
X7734983Y-53389983D01*
X7766223Y-53364346D01*
X7801862Y-53345296D01*
X7840532Y-53333565D01*
X7886888Y-53329000D01*
X8538112Y-53329000D01*
X8584468Y-53333565D01*
X8584468Y-53333565D01*
G37*
G36*
X10459468Y-53333565D02*
G01*
X10498138Y-53345296D01*
X10533777Y-53364346D01*
X10565017Y-53389983D01*
X10590654Y-53421223D01*
X10609704Y-53456862D01*
X10621435Y-53495532D01*
X10626000Y-53541888D01*
X10626000Y-54618112D01*
X10621435Y-54664468D01*
X10609704Y-54703138D01*
X10590654Y-54738777D01*
X10565017Y-54770017D01*
X10533777Y-54795654D01*
X10498138Y-54814704D01*
X10459468Y-54826435D01*
X10413112Y-54831000D01*
X9761888Y-54831000D01*
X9715532Y-54826435D01*
X9676862Y-54814704D01*
X9641223Y-54795654D01*
X9609983Y-54770017D01*
X9584346Y-54738777D01*
X9565296Y-54703138D01*
X9553565Y-54664468D01*
X9549000Y-54618112D01*
X9549000Y-53541888D01*
X9553565Y-53495532D01*
X9565296Y-53456862D01*
X9584346Y-53421223D01*
X9609983Y-53389983D01*
X9641223Y-53364346D01*
X9676862Y-53345296D01*
X9715532Y-53333565D01*
X9761888Y-53329000D01*
X10413112Y-53329000D01*
X10459468Y-53333565D01*
X10459468Y-53333565D01*
G37*
G36*
X28180674Y-53095168D02*
G01*
X28255488Y-53374377D01*
X28258960Y-53387337D01*
X26807381Y-53776286D01*
X26228585Y-53931374D01*
X26228584Y-53931374D01*
X25975699Y-52987594D01*
X25917484Y-52770332D01*
X25917484Y-52770331D01*
X27676797Y-52298925D01*
X27947859Y-52226294D01*
X27947860Y-52226294D01*
X28180674Y-53095168D01*
X28180674Y-53095168D01*
G37*
G36*
X23087875Y-52634359D02*
G01*
X23150566Y-52868324D01*
X23182524Y-52987595D01*
X21690665Y-53387337D01*
X21152149Y-53531632D01*
X21152148Y-53531632D01*
X20901224Y-52595168D01*
X20841048Y-52370590D01*
X20841048Y-52370589D01*
X22569624Y-51907419D01*
X22871423Y-51826552D01*
X22871424Y-51826552D01*
X23087875Y-52634359D01*
X23087875Y-52634359D01*
G37*
G36*
X51481000Y-53301000D02*
G01*
X48379000Y-53301000D01*
X48379000Y-52199000D01*
X51481000Y-52199000D01*
X51481000Y-53301000D01*
X51481000Y-53301000D01*
G37*
G36*
X45281000Y-53301000D02*
G01*
X42179000Y-53301000D01*
X42179000Y-52199000D01*
X45281000Y-52199000D01*
X45281000Y-53301000D01*
X45281000Y-53301000D01*
G37*
G36*
X27707691Y-51329971D02*
G01*
X27797277Y-51664309D01*
X27818968Y-51745263D01*
X26308359Y-52150029D01*
X25788593Y-52289300D01*
X25788592Y-52289300D01*
X25515324Y-51269450D01*
X25477492Y-51128258D01*
X25477492Y-51128257D01*
X27148221Y-50680587D01*
X27507867Y-50584220D01*
X27507868Y-50584220D01*
X27707691Y-51329971D01*
X27707691Y-51329971D01*
G37*
G36*
X81511000Y-52111000D02*
G01*
X78409000Y-52111000D01*
X78409000Y-51009000D01*
X81511000Y-51009000D01*
X81511000Y-52111000D01*
X81511000Y-52111000D01*
G37*
G36*
X86551000Y-52111000D02*
G01*
X83449000Y-52111000D01*
X83449000Y-51009000D01*
X86551000Y-51009000D01*
X86551000Y-52111000D01*
X86551000Y-52111000D01*
G37*
G36*
X47594656Y-51052581D02*
G01*
X47675548Y-51086088D01*
X47675550Y-51086089D01*
X47738660Y-51128258D01*
X47748352Y-51134734D01*
X47810266Y-51196648D01*
X47858912Y-51269452D01*
X47892419Y-51350344D01*
X47909500Y-51436219D01*
X47909500Y-51523781D01*
X47892419Y-51609656D01*
X47869080Y-51666000D01*
X47858911Y-51690550D01*
X47810266Y-51763352D01*
X47748352Y-51825266D01*
X47675550Y-51873911D01*
X47675549Y-51873912D01*
X47675548Y-51873912D01*
X47594656Y-51907419D01*
X47508781Y-51924500D01*
X47421219Y-51924500D01*
X47335344Y-51907419D01*
X47254452Y-51873912D01*
X47254451Y-51873912D01*
X47254450Y-51873911D01*
X47181648Y-51825266D01*
X47119734Y-51763352D01*
X47071089Y-51690550D01*
X47060920Y-51666000D01*
X47037581Y-51609656D01*
X47020500Y-51523781D01*
X47020500Y-51436219D01*
X47037581Y-51350344D01*
X47071088Y-51269452D01*
X47119734Y-51196648D01*
X47181648Y-51134734D01*
X47191340Y-51128258D01*
X47254450Y-51086089D01*
X47254452Y-51086088D01*
X47335344Y-51052581D01*
X47421219Y-51035500D01*
X47508781Y-51035500D01*
X47594656Y-51052581D01*
X47594656Y-51052581D01*
G37*
G36*
X46324656Y-51052581D02*
G01*
X46405548Y-51086088D01*
X46405550Y-51086089D01*
X46468660Y-51128258D01*
X46478352Y-51134734D01*
X46540266Y-51196648D01*
X46588912Y-51269452D01*
X46622419Y-51350344D01*
X46639500Y-51436219D01*
X46639500Y-51523781D01*
X46622419Y-51609656D01*
X46599080Y-51666000D01*
X46588911Y-51690550D01*
X46540266Y-51763352D01*
X46478352Y-51825266D01*
X46405550Y-51873911D01*
X46405549Y-51873912D01*
X46405548Y-51873912D01*
X46324656Y-51907419D01*
X46238781Y-51924500D01*
X46151219Y-51924500D01*
X46065344Y-51907419D01*
X45984452Y-51873912D01*
X45984451Y-51873912D01*
X45984450Y-51873911D01*
X45911648Y-51825266D01*
X45849734Y-51763352D01*
X45801089Y-51690550D01*
X45790920Y-51666000D01*
X45767581Y-51609656D01*
X45750500Y-51523781D01*
X45750500Y-51436219D01*
X45767581Y-51350344D01*
X45801088Y-51269452D01*
X45849734Y-51196648D01*
X45911648Y-51134734D01*
X45921340Y-51128258D01*
X45984450Y-51086089D01*
X45984452Y-51086088D01*
X46065344Y-51052581D01*
X46151219Y-51035500D01*
X46238781Y-51035500D01*
X46324656Y-51052581D01*
X46324656Y-51052581D01*
G37*
G36*
X51001000Y-50761000D02*
G01*
X47698214Y-50761000D01*
X47696598Y-50744589D01*
X47689485Y-50721140D01*
X47677934Y-50699529D01*
X47662389Y-50680587D01*
X47643447Y-50665042D01*
X47621836Y-50653491D01*
X47598387Y-50646378D01*
X47574001Y-50643976D01*
X47549616Y-50646378D01*
X47508782Y-50654500D01*
X47421219Y-50654500D01*
X47335344Y-50637419D01*
X47254452Y-50603912D01*
X47254451Y-50603912D01*
X47254450Y-50603911D01*
X47181648Y-50555266D01*
X47119734Y-50493352D01*
X47071089Y-50420550D01*
X47056294Y-50384832D01*
X47037581Y-50339656D01*
X47020500Y-50253781D01*
X47020500Y-50166219D01*
X47037581Y-50080344D01*
X47071088Y-49999452D01*
X47119734Y-49926648D01*
X47181648Y-49864734D01*
X47222221Y-49837624D01*
X47254450Y-49816089D01*
X47254452Y-49816088D01*
X47335344Y-49782581D01*
X47421219Y-49765500D01*
X47508782Y-49765500D01*
X47549616Y-49773622D01*
X47574002Y-49776024D01*
X47598388Y-49773622D01*
X47621837Y-49766509D01*
X47643448Y-49754957D01*
X47662389Y-49739412D01*
X47677934Y-49720470D01*
X47689485Y-49698859D01*
X47696598Y-49675410D01*
X47698214Y-49659000D01*
X51001000Y-49659000D01*
X51001000Y-50761000D01*
X51001000Y-50761000D01*
G37*
G36*
X45963402Y-49675411D02*
G01*
X45970515Y-49698860D01*
X45982066Y-49720471D01*
X45997611Y-49739413D01*
X46016553Y-49754958D01*
X46038164Y-49766509D01*
X46061613Y-49773622D01*
X46085999Y-49776024D01*
X46110384Y-49773622D01*
X46151218Y-49765500D01*
X46238781Y-49765500D01*
X46324656Y-49782581D01*
X46405548Y-49816088D01*
X46405550Y-49816089D01*
X46437779Y-49837624D01*
X46478352Y-49864734D01*
X46540266Y-49926648D01*
X46588912Y-49999452D01*
X46622419Y-50080344D01*
X46639500Y-50166219D01*
X46639500Y-50253781D01*
X46622419Y-50339656D01*
X46603706Y-50384832D01*
X46588911Y-50420550D01*
X46540266Y-50493352D01*
X46478352Y-50555266D01*
X46405550Y-50603911D01*
X46405549Y-50603912D01*
X46405548Y-50603912D01*
X46324656Y-50637419D01*
X46238781Y-50654500D01*
X46151218Y-50654500D01*
X46110384Y-50646378D01*
X46085998Y-50643976D01*
X46061612Y-50646378D01*
X46038163Y-50653491D01*
X46016552Y-50665043D01*
X45997611Y-50680588D01*
X45982066Y-50699530D01*
X45970515Y-50721141D01*
X45963402Y-50744590D01*
X45961786Y-50761000D01*
X42659000Y-50761000D01*
X42659000Y-49659000D01*
X45961786Y-49659000D01*
X45963402Y-49675411D01*
X45963402Y-49675411D01*
G37*
G36*
X16430455Y-49353110D02*
G01*
X16564164Y-49720470D01*
X16569584Y-49735363D01*
X15816898Y-50009318D01*
X15534043Y-50112269D01*
X15534042Y-50112269D01*
X15262939Y-49367419D01*
X15191338Y-49170698D01*
X15191338Y-49170697D01*
X15967768Y-48888100D01*
X16226879Y-48793791D01*
X16226880Y-48793791D01*
X16430455Y-49353110D01*
X16430455Y-49353110D01*
G37*
G36*
X17407640Y-49698860D02*
G01*
X17458146Y-49837624D01*
X16986421Y-50009318D01*
X16986420Y-50009318D01*
X16677918Y-49161716D01*
X16930851Y-49069656D01*
X17149643Y-48990022D01*
X17149644Y-48990022D01*
X17407640Y-49698860D01*
X17407640Y-49698860D01*
G37*
G36*
X10572122Y-48512582D02*
G01*
X11418662Y-48820697D01*
X11418662Y-48820698D01*
X11391174Y-48896221D01*
X11075958Y-49762269D01*
X11075957Y-49762269D01*
X10792228Y-49659000D01*
X10040416Y-49385363D01*
X10046618Y-49368324D01*
X10242188Y-48831000D01*
X10383120Y-48443791D01*
X10383121Y-48443791D01*
X10572122Y-48512582D01*
X10572122Y-48512582D01*
G37*
G36*
X18145002Y-49385702D02*
G01*
X18209900Y-49564008D01*
X17738175Y-49735702D01*
X17738174Y-49735702D01*
X17429672Y-48888100D01*
X17586553Y-48831000D01*
X17901397Y-48716406D01*
X17901398Y-48716406D01*
X18145002Y-49385702D01*
X18145002Y-49385702D01*
G37*
G36*
X9928312Y-48810344D02*
G01*
X9932082Y-48811716D01*
X9623580Y-49659318D01*
X9623579Y-49659318D01*
X9151854Y-49487624D01*
X9195605Y-49367419D01*
X9460356Y-48640022D01*
X9460357Y-48640022D01*
X9928312Y-48810344D01*
X9928312Y-48810344D01*
G37*
G36*
X81511000Y-49571000D02*
G01*
X78409000Y-49571000D01*
X78409000Y-48469000D01*
X81511000Y-48469000D01*
X81511000Y-49571000D01*
X81511000Y-49571000D01*
G37*
G36*
X86551000Y-49571000D02*
G01*
X83449000Y-49571000D01*
X83449000Y-48469000D01*
X86551000Y-48469000D01*
X86551000Y-49571000D01*
X86551000Y-49571000D01*
G37*
G36*
X9110215Y-48512581D02*
G01*
X9180328Y-48538100D01*
X8871826Y-49385702D01*
X8871825Y-49385702D01*
X8400100Y-49214008D01*
X8452640Y-49069656D01*
X8708602Y-48366406D01*
X8708603Y-48366406D01*
X9110215Y-48512581D01*
X9110215Y-48512581D01*
G37*
G36*
X47594656Y-48512581D02*
G01*
X47675548Y-48546088D01*
X47675550Y-48546089D01*
X47748352Y-48594734D01*
X47810266Y-48656648D01*
X47858912Y-48729452D01*
X47892419Y-48810344D01*
X47909500Y-48896219D01*
X47909500Y-48983781D01*
X47892419Y-49069656D01*
X47885562Y-49086209D01*
X47858911Y-49150550D01*
X47810266Y-49223352D01*
X47748352Y-49285266D01*
X47675550Y-49333911D01*
X47675549Y-49333912D01*
X47675548Y-49333912D01*
X47594656Y-49367419D01*
X47508781Y-49384500D01*
X47421219Y-49384500D01*
X47335344Y-49367419D01*
X47254452Y-49333912D01*
X47254451Y-49333912D01*
X47254450Y-49333911D01*
X47181648Y-49285266D01*
X47119734Y-49223352D01*
X47071089Y-49150550D01*
X47044438Y-49086209D01*
X47037581Y-49069656D01*
X47020500Y-48983781D01*
X47020500Y-48896219D01*
X47037581Y-48810344D01*
X47071088Y-48729452D01*
X47119734Y-48656648D01*
X47181648Y-48594734D01*
X47254450Y-48546089D01*
X47254452Y-48546088D01*
X47335344Y-48512581D01*
X47421219Y-48495500D01*
X47508781Y-48495500D01*
X47594656Y-48512581D01*
X47594656Y-48512581D01*
G37*
G36*
X46324656Y-48512581D02*
G01*
X46405548Y-48546088D01*
X46405550Y-48546089D01*
X46478352Y-48594734D01*
X46540266Y-48656648D01*
X46588912Y-48729452D01*
X46622419Y-48810344D01*
X46639500Y-48896219D01*
X46639500Y-48983781D01*
X46622419Y-49069656D01*
X46615562Y-49086209D01*
X46588911Y-49150550D01*
X46540266Y-49223352D01*
X46478352Y-49285266D01*
X46405550Y-49333911D01*
X46405549Y-49333912D01*
X46405548Y-49333912D01*
X46324656Y-49367419D01*
X46238781Y-49384500D01*
X46151219Y-49384500D01*
X46065344Y-49367419D01*
X45984452Y-49333912D01*
X45984451Y-49333912D01*
X45984450Y-49333911D01*
X45911648Y-49285266D01*
X45849734Y-49223352D01*
X45801089Y-49150550D01*
X45774438Y-49086209D01*
X45767581Y-49069656D01*
X45750500Y-48983781D01*
X45750500Y-48896219D01*
X45767581Y-48810344D01*
X45801088Y-48729452D01*
X45849734Y-48656648D01*
X45911648Y-48594734D01*
X45984450Y-48546089D01*
X45984452Y-48546088D01*
X46065344Y-48512581D01*
X46151219Y-48495500D01*
X46238781Y-48495500D01*
X46324656Y-48512581D01*
X46324656Y-48512581D01*
G37*
G36*
X19255389Y-48343138D02*
G01*
X19346963Y-48594734D01*
X19388662Y-48709303D01*
X18634544Y-48983779D01*
X18353121Y-49086209D01*
X18353120Y-49086209D01*
X18068590Y-48304468D01*
X18010416Y-48144638D01*
X18010416Y-48144637D01*
X18769627Y-47868307D01*
X19045957Y-47767731D01*
X19045958Y-47767731D01*
X19255389Y-48343138D01*
X19255389Y-48343138D01*
G37*
G36*
X68491000Y-48831000D02*
G01*
X65589000Y-48831000D01*
X65589000Y-47729000D01*
X68491000Y-47729000D01*
X68491000Y-48831000D01*
X68491000Y-48831000D01*
G37*
G36*
X74291000Y-48831000D02*
G01*
X71389000Y-48831000D01*
X71389000Y-47729000D01*
X74291000Y-47729000D01*
X74291000Y-48831000D01*
X74291000Y-48831000D01*
G37*
G36*
X7741359Y-47482269D02*
G01*
X8599584Y-47794637D01*
X8256880Y-48736209D01*
X8256879Y-48736209D01*
X7980549Y-48635633D01*
X7221338Y-48359303D01*
X7227222Y-48343138D01*
X7312787Y-48108047D01*
X7564042Y-47417731D01*
X7564043Y-47417731D01*
X7741359Y-47482269D01*
X7741359Y-47482269D01*
G37*
G36*
X61056968Y-46973565D02*
G01*
X61095638Y-46985296D01*
X61131277Y-47004346D01*
X61162517Y-47029983D01*
X61188154Y-47061223D01*
X61207204Y-47096862D01*
X61218935Y-47135532D01*
X61223500Y-47181888D01*
X61223500Y-48258112D01*
X61218935Y-48304468D01*
X61207204Y-48343138D01*
X61188154Y-48378777D01*
X61162517Y-48410017D01*
X61131277Y-48435654D01*
X61095638Y-48454704D01*
X61056968Y-48466435D01*
X61010612Y-48471000D01*
X60359388Y-48471000D01*
X60313032Y-48466435D01*
X60274362Y-48454704D01*
X60238723Y-48435654D01*
X60207483Y-48410017D01*
X60181846Y-48378777D01*
X60162796Y-48343138D01*
X60151065Y-48304468D01*
X60146500Y-48258112D01*
X60146500Y-47181888D01*
X60151065Y-47135532D01*
X60162796Y-47096862D01*
X60181846Y-47061223D01*
X60207483Y-47029983D01*
X60238723Y-47004346D01*
X60274362Y-46985296D01*
X60313032Y-46973565D01*
X60359388Y-46969000D01*
X61010612Y-46969000D01*
X61056968Y-46973565D01*
X61056968Y-46973565D01*
G37*
G36*
X59181968Y-46973565D02*
G01*
X59220638Y-46985296D01*
X59256277Y-47004346D01*
X59287517Y-47029983D01*
X59313154Y-47061223D01*
X59332204Y-47096862D01*
X59343935Y-47135532D01*
X59348500Y-47181888D01*
X59348500Y-48258112D01*
X59343935Y-48304468D01*
X59332204Y-48343138D01*
X59313154Y-48378777D01*
X59287517Y-48410017D01*
X59256277Y-48435654D01*
X59220638Y-48454704D01*
X59181968Y-48466435D01*
X59135612Y-48471000D01*
X58484388Y-48471000D01*
X58438032Y-48466435D01*
X58399362Y-48454704D01*
X58363723Y-48435654D01*
X58332483Y-48410017D01*
X58306846Y-48378777D01*
X58287796Y-48343138D01*
X58276065Y-48304468D01*
X58271500Y-48258112D01*
X58271500Y-47181888D01*
X58276065Y-47135532D01*
X58287796Y-47096862D01*
X58306846Y-47061223D01*
X58332483Y-47029983D01*
X58363723Y-47004346D01*
X58399362Y-46985296D01*
X58438032Y-46973565D01*
X58484388Y-46969000D01*
X59135612Y-46969000D01*
X59181968Y-46973565D01*
X59181968Y-46973565D01*
G37*
G36*
X50901000Y-48221000D02*
G01*
X47799000Y-48221000D01*
X47799000Y-47119000D01*
X50901000Y-47119000D01*
X50901000Y-48221000D01*
X50901000Y-48221000D01*
G37*
G36*
X45861000Y-48221000D02*
G01*
X42759000Y-48221000D01*
X42759000Y-47119000D01*
X45861000Y-47119000D01*
X45861000Y-48221000D01*
X45861000Y-48221000D01*
G37*
G36*
X25498135Y-46854107D02*
G01*
X25573519Y-47061223D01*
X25589584Y-47105363D01*
X24836898Y-47379318D01*
X24554043Y-47482269D01*
X24554042Y-47482269D01*
X24211338Y-46540697D01*
X24987768Y-46258100D01*
X25246879Y-46163791D01*
X25246880Y-46163791D01*
X25498135Y-46854107D01*
X25498135Y-46854107D01*
G37*
G36*
X26404159Y-47004346D02*
G01*
X26478146Y-47207624D01*
X26006421Y-47379318D01*
X26006420Y-47379318D01*
X25697918Y-46531716D01*
X25905372Y-46456209D01*
X26169643Y-46360022D01*
X26169644Y-46360022D01*
X26404159Y-47004346D01*
X26404159Y-47004346D01*
G37*
G36*
X27229900Y-46934008D02*
G01*
X26758175Y-47105702D01*
X26758174Y-47105702D01*
X26449672Y-46258100D01*
X26708784Y-46163791D01*
X26921397Y-46086406D01*
X26921398Y-46086406D01*
X27229900Y-46934008D01*
X27229900Y-46934008D01*
G37*
G36*
X81511000Y-47031000D02*
G01*
X78409000Y-47031000D01*
X78409000Y-45929000D01*
X81511000Y-45929000D01*
X81511000Y-47031000D01*
X81511000Y-47031000D01*
G37*
G36*
X86551000Y-47031000D02*
G01*
X83449000Y-47031000D01*
X83449000Y-45929000D01*
X86551000Y-45929000D01*
X86551000Y-47031000D01*
X86551000Y-47031000D01*
G37*
G36*
X28408662Y-46079303D02*
G01*
X27649451Y-46355633D01*
X27373121Y-46456209D01*
X27373120Y-46456209D01*
X27030416Y-45514637D01*
X27789627Y-45238307D01*
X28065957Y-45137731D01*
X28065958Y-45137731D01*
X28408662Y-46079303D01*
X28408662Y-46079303D01*
G37*
G36*
X68491000Y-44831000D02*
G01*
X65589000Y-44831000D01*
X65589000Y-43729000D01*
X68491000Y-43729000D01*
X68491000Y-44831000D01*
X68491000Y-44831000D01*
G37*
G36*
X74291000Y-44831000D02*
G01*
X71389000Y-44831000D01*
X71389000Y-43729000D01*
X74291000Y-43729000D01*
X74291000Y-44831000D01*
X74291000Y-44831000D01*
G37*
G36*
X53818674Y-42373465D02*
G01*
X53856367Y-42384899D01*
X53891103Y-42403466D01*
X53921548Y-42428452D01*
X53946534Y-42458897D01*
X53965101Y-42493633D01*
X53976535Y-42531326D01*
X53981000Y-42576661D01*
X53981000Y-43663339D01*
X53976535Y-43708674D01*
X53965101Y-43746367D01*
X53946534Y-43781103D01*
X53921548Y-43811548D01*
X53891103Y-43836534D01*
X53856367Y-43855101D01*
X53818674Y-43866535D01*
X53773339Y-43871000D01*
X52936661Y-43871000D01*
X52891326Y-43866535D01*
X52853633Y-43855101D01*
X52818897Y-43836534D01*
X52788452Y-43811548D01*
X52763466Y-43781103D01*
X52744899Y-43746367D01*
X52733465Y-43708674D01*
X52729000Y-43663339D01*
X52729000Y-42576661D01*
X52733465Y-42531326D01*
X52744899Y-42493633D01*
X52763466Y-42458897D01*
X52788452Y-42428452D01*
X52818897Y-42403466D01*
X52853633Y-42384899D01*
X52891326Y-42373465D01*
X52936661Y-42369000D01*
X53773339Y-42369000D01*
X53818674Y-42373465D01*
X53818674Y-42373465D01*
G37*
G36*
X55868674Y-42373465D02*
G01*
X55906367Y-42384899D01*
X55941103Y-42403466D01*
X55971548Y-42428452D01*
X55996534Y-42458897D01*
X56015101Y-42493633D01*
X56026535Y-42531326D01*
X56031000Y-42576661D01*
X56031000Y-43663339D01*
X56026535Y-43708674D01*
X56015101Y-43746367D01*
X55996534Y-43781103D01*
X55971548Y-43811548D01*
X55941103Y-43836534D01*
X55906367Y-43855101D01*
X55868674Y-43866535D01*
X55823339Y-43871000D01*
X54986661Y-43871000D01*
X54941326Y-43866535D01*
X54903633Y-43855101D01*
X54868897Y-43836534D01*
X54838452Y-43811548D01*
X54813466Y-43781103D01*
X54794899Y-43746367D01*
X54783465Y-43708674D01*
X54779000Y-43663339D01*
X54779000Y-42576661D01*
X54783465Y-42531326D01*
X54794899Y-42493633D01*
X54813466Y-42458897D01*
X54838452Y-42428452D01*
X54868897Y-42403466D01*
X54903633Y-42384899D01*
X54941326Y-42373465D01*
X54986661Y-42369000D01*
X55823339Y-42369000D01*
X55868674Y-42373465D01*
X55868674Y-42373465D01*
G37*
G36*
X55862091Y-40718085D02*
G01*
X55896069Y-40728393D01*
X55927390Y-40745134D01*
X55954839Y-40767661D01*
X55977366Y-40795110D01*
X55994107Y-40826431D01*
X56004415Y-40860409D01*
X56008500Y-40901890D01*
X56008500Y-41578110D01*
X56004415Y-41619591D01*
X55994107Y-41653569D01*
X55977366Y-41684890D01*
X55954839Y-41712339D01*
X55927390Y-41734866D01*
X55896069Y-41751607D01*
X55862091Y-41761915D01*
X55820610Y-41766000D01*
X55219390Y-41766000D01*
X55177909Y-41761915D01*
X55143931Y-41751607D01*
X55112610Y-41734866D01*
X55085161Y-41712339D01*
X55062634Y-41684890D01*
X55045893Y-41653569D01*
X55035585Y-41619591D01*
X55031500Y-41578110D01*
X55031500Y-40901890D01*
X55035585Y-40860409D01*
X55045893Y-40826431D01*
X55062634Y-40795110D01*
X55085161Y-40767661D01*
X55112610Y-40745134D01*
X55143931Y-40728393D01*
X55177909Y-40718085D01*
X55219390Y-40714000D01*
X55820610Y-40714000D01*
X55862091Y-40718085D01*
X55862091Y-40718085D01*
G37*
G36*
X54287091Y-40718085D02*
G01*
X54321069Y-40728393D01*
X54352390Y-40745134D01*
X54379839Y-40767661D01*
X54402366Y-40795110D01*
X54419107Y-40826431D01*
X54429415Y-40860409D01*
X54433500Y-40901890D01*
X54433500Y-41578110D01*
X54429415Y-41619591D01*
X54419107Y-41653569D01*
X54402366Y-41684890D01*
X54379839Y-41712339D01*
X54352390Y-41734866D01*
X54321069Y-41751607D01*
X54287091Y-41761915D01*
X54245610Y-41766000D01*
X53644390Y-41766000D01*
X53602909Y-41761915D01*
X53568931Y-41751607D01*
X53537610Y-41734866D01*
X53510161Y-41712339D01*
X53487634Y-41684890D01*
X53470893Y-41653569D01*
X53460585Y-41619591D01*
X53456500Y-41578110D01*
X53456500Y-40901890D01*
X53460585Y-40860409D01*
X53470893Y-40826431D01*
X53487634Y-40795110D01*
X53510161Y-40767661D01*
X53537610Y-40745134D01*
X53568931Y-40728393D01*
X53602909Y-40718085D01*
X53644390Y-40714000D01*
X54245610Y-40714000D01*
X54287091Y-40718085D01*
X54287091Y-40718085D01*
G37*
G36*
X36389591Y-40553085D02*
G01*
X36423569Y-40563393D01*
X36454890Y-40580134D01*
X36482339Y-40602661D01*
X36504866Y-40630110D01*
X36521607Y-40661431D01*
X36531915Y-40695409D01*
X36536000Y-40736890D01*
X36536000Y-41338110D01*
X36531915Y-41379591D01*
X36521607Y-41413569D01*
X36504866Y-41444890D01*
X36482339Y-41472339D01*
X36454890Y-41494866D01*
X36423569Y-41511607D01*
X36389591Y-41521915D01*
X36348110Y-41526000D01*
X35671890Y-41526000D01*
X35630409Y-41521915D01*
X35596431Y-41511607D01*
X35565110Y-41494866D01*
X35537661Y-41472339D01*
X35515134Y-41444890D01*
X35498393Y-41413569D01*
X35488085Y-41379591D01*
X35484000Y-41338110D01*
X35484000Y-40736890D01*
X35488085Y-40695409D01*
X35498393Y-40661431D01*
X35515134Y-40630110D01*
X35537661Y-40602661D01*
X35565110Y-40580134D01*
X35596431Y-40563393D01*
X35630409Y-40553085D01*
X35671890Y-40549000D01*
X36348110Y-40549000D01*
X36389591Y-40553085D01*
X36389591Y-40553085D01*
G37*
G36*
X33911000Y-41521000D02*
G01*
X33009000Y-41521000D01*
X33009000Y-40519000D01*
X33911000Y-40519000D01*
X33911000Y-41521000D01*
X33911000Y-41521000D01*
G37*
G36*
X68401000Y-40051000D02*
G01*
X66299000Y-40051000D01*
X66299000Y-38849000D01*
X68401000Y-38849000D01*
X68401000Y-40051000D01*
X68401000Y-40051000D01*
G37*
G36*
X73201000Y-40051000D02*
G01*
X71099000Y-40051000D01*
X71099000Y-38849000D01*
X73201000Y-38849000D01*
X73201000Y-40051000D01*
X73201000Y-40051000D01*
G37*
G36*
X87621000Y-39961000D02*
G01*
X82519000Y-39961000D01*
X82519000Y-36859000D01*
X87621000Y-36859000D01*
X87621000Y-39961000D01*
X87621000Y-39961000D01*
G37*
G36*
X36389591Y-38978085D02*
G01*
X36423569Y-38988393D01*
X36454890Y-39005134D01*
X36482339Y-39027661D01*
X36504866Y-39055110D01*
X36521607Y-39086431D01*
X36531915Y-39120409D01*
X36536000Y-39161890D01*
X36536000Y-39763110D01*
X36531915Y-39804591D01*
X36521607Y-39838569D01*
X36504866Y-39869890D01*
X36482339Y-39897339D01*
X36454890Y-39919866D01*
X36423569Y-39936607D01*
X36389591Y-39946915D01*
X36348110Y-39951000D01*
X35671890Y-39951000D01*
X35630409Y-39946915D01*
X35596431Y-39936607D01*
X35565110Y-39919866D01*
X35537661Y-39897339D01*
X35515134Y-39869890D01*
X35498393Y-39838569D01*
X35488085Y-39804591D01*
X35484000Y-39763110D01*
X35484000Y-39161890D01*
X35488085Y-39120409D01*
X35498393Y-39086431D01*
X35515134Y-39055110D01*
X35537661Y-39027661D01*
X35565110Y-39005134D01*
X35596431Y-38988393D01*
X35630409Y-38978085D01*
X35671890Y-38974000D01*
X36348110Y-38974000D01*
X36389591Y-38978085D01*
X36389591Y-38978085D01*
G37*
G36*
X32961000Y-39521000D02*
G01*
X32059000Y-39521000D01*
X32059000Y-38519000D01*
X32961000Y-38519000D01*
X32961000Y-39521000D01*
X32961000Y-39521000D01*
G37*
G36*
X34861000Y-39521000D02*
G01*
X33959000Y-39521000D01*
X33959000Y-38519000D01*
X34861000Y-38519000D01*
X34861000Y-39521000D01*
X34861000Y-39521000D01*
G37*
G36*
X73201000Y-38351000D02*
G01*
X71099000Y-38351000D01*
X71099000Y-37149000D01*
X73201000Y-37149000D01*
X73201000Y-38351000D01*
X73201000Y-38351000D01*
G37*
G36*
X68401000Y-38351000D02*
G01*
X66299000Y-38351000D01*
X66299000Y-37149000D01*
X68401000Y-37149000D01*
X68401000Y-38351000D01*
X68401000Y-38351000D01*
G37*
G36*
X33921000Y-38061000D02*
G01*
X33019000Y-38061000D01*
X33019000Y-37059000D01*
X33921000Y-37059000D01*
X33921000Y-38061000D01*
X33921000Y-38061000D01*
G37*
G36*
X36429591Y-37083085D02*
G01*
X36463569Y-37093393D01*
X36494890Y-37110134D01*
X36522339Y-37132661D01*
X36544866Y-37160110D01*
X36561607Y-37191431D01*
X36571915Y-37225409D01*
X36576000Y-37266890D01*
X36576000Y-37868110D01*
X36571915Y-37909591D01*
X36561607Y-37943569D01*
X36544866Y-37974890D01*
X36522339Y-38002339D01*
X36494890Y-38024866D01*
X36463569Y-38041607D01*
X36429591Y-38051915D01*
X36388110Y-38056000D01*
X35711890Y-38056000D01*
X35670409Y-38051915D01*
X35636431Y-38041607D01*
X35605110Y-38024866D01*
X35577661Y-38002339D01*
X35555134Y-37974890D01*
X35538393Y-37943569D01*
X35528085Y-37909591D01*
X35524000Y-37868110D01*
X35524000Y-37266890D01*
X35528085Y-37225409D01*
X35538393Y-37191431D01*
X35555134Y-37160110D01*
X35577661Y-37132661D01*
X35605110Y-37110134D01*
X35636431Y-37093393D01*
X35670409Y-37083085D01*
X35711890Y-37079000D01*
X36388110Y-37079000D01*
X36429591Y-37083085D01*
X36429591Y-37083085D01*
G37*
G36*
X76584468Y-36123565D02*
G01*
X76623138Y-36135296D01*
X76658777Y-36154346D01*
X76690017Y-36179983D01*
X76715654Y-36211223D01*
X76734704Y-36246862D01*
X76746435Y-36285532D01*
X76751000Y-36331888D01*
X76751000Y-36983112D01*
X76746435Y-37029468D01*
X76734704Y-37068138D01*
X76715654Y-37103777D01*
X76690017Y-37135017D01*
X76658777Y-37160654D01*
X76623138Y-37179704D01*
X76584468Y-37191435D01*
X76538112Y-37196000D01*
X75461888Y-37196000D01*
X75415532Y-37191435D01*
X75376862Y-37179704D01*
X75341223Y-37160654D01*
X75309983Y-37135017D01*
X75284346Y-37103777D01*
X75265296Y-37068138D01*
X75253565Y-37029468D01*
X75249000Y-36983112D01*
X75249000Y-36331888D01*
X75253565Y-36285532D01*
X75265296Y-36246862D01*
X75284346Y-36211223D01*
X75309983Y-36179983D01*
X75341223Y-36154346D01*
X75376862Y-36135296D01*
X75415532Y-36123565D01*
X75461888Y-36119000D01*
X76538112Y-36119000D01*
X76584468Y-36123565D01*
X76584468Y-36123565D01*
G37*
G36*
X73201000Y-36651000D02*
G01*
X71099000Y-36651000D01*
X71099000Y-35449000D01*
X73201000Y-35449000D01*
X73201000Y-36651000D01*
X73201000Y-36651000D01*
G37*
G36*
X68401000Y-36651000D02*
G01*
X66299000Y-36651000D01*
X66299000Y-35449000D01*
X68401000Y-35449000D01*
X68401000Y-36651000D01*
X68401000Y-36651000D01*
G37*
G36*
X36429591Y-35508085D02*
G01*
X36463569Y-35518393D01*
X36494890Y-35535134D01*
X36522339Y-35557661D01*
X36544866Y-35585110D01*
X36561607Y-35616431D01*
X36571915Y-35650409D01*
X36576000Y-35691890D01*
X36576000Y-36293110D01*
X36571915Y-36334591D01*
X36561607Y-36368569D01*
X36544866Y-36399890D01*
X36522339Y-36427339D01*
X36494890Y-36449866D01*
X36463569Y-36466607D01*
X36429591Y-36476915D01*
X36388110Y-36481000D01*
X35711890Y-36481000D01*
X35670409Y-36476915D01*
X35636431Y-36466607D01*
X35605110Y-36449866D01*
X35577661Y-36427339D01*
X35555134Y-36399890D01*
X35538393Y-36368569D01*
X35528085Y-36334591D01*
X35524000Y-36293110D01*
X35524000Y-35691890D01*
X35528085Y-35650409D01*
X35538393Y-35616431D01*
X35555134Y-35585110D01*
X35577661Y-35557661D01*
X35605110Y-35535134D01*
X35636431Y-35518393D01*
X35670409Y-35508085D01*
X35711890Y-35504000D01*
X36388110Y-35504000D01*
X36429591Y-35508085D01*
X36429591Y-35508085D01*
G37*
G36*
X34871000Y-36061000D02*
G01*
X33969000Y-36061000D01*
X33969000Y-35059000D01*
X34871000Y-35059000D01*
X34871000Y-36061000D01*
X34871000Y-36061000D01*
G37*
G36*
X32971000Y-36061000D02*
G01*
X32069000Y-36061000D01*
X32069000Y-35059000D01*
X32971000Y-35059000D01*
X32971000Y-36061000D01*
X32971000Y-36061000D01*
G37*
G36*
X76584468Y-34248565D02*
G01*
X76623138Y-34260296D01*
X76658777Y-34279346D01*
X76690017Y-34304983D01*
X76715654Y-34336223D01*
X76734704Y-34371862D01*
X76746435Y-34410532D01*
X76751000Y-34456888D01*
X76751000Y-35108112D01*
X76746435Y-35154468D01*
X76734704Y-35193138D01*
X76715654Y-35228777D01*
X76690017Y-35260017D01*
X76658777Y-35285654D01*
X76623138Y-35304704D01*
X76584468Y-35316435D01*
X76538112Y-35321000D01*
X75461888Y-35321000D01*
X75415532Y-35316435D01*
X75376862Y-35304704D01*
X75341223Y-35285654D01*
X75309983Y-35260017D01*
X75284346Y-35228777D01*
X75265296Y-35193138D01*
X75253565Y-35154468D01*
X75249000Y-35108112D01*
X75249000Y-34456888D01*
X75253565Y-34410532D01*
X75265296Y-34371862D01*
X75284346Y-34336223D01*
X75309983Y-34304983D01*
X75341223Y-34279346D01*
X75376862Y-34260296D01*
X75415532Y-34248565D01*
X75461888Y-34244000D01*
X76538112Y-34244000D01*
X76584468Y-34248565D01*
X76584468Y-34248565D01*
G37*
G36*
X87621000Y-34881000D02*
G01*
X82519000Y-34881000D01*
X82519000Y-31779000D01*
X87621000Y-31779000D01*
X87621000Y-34881000D01*
X87621000Y-34881000D01*
G37*
G36*
X33921000Y-34561000D02*
G01*
X33019000Y-34561000D01*
X33019000Y-33559000D01*
X33921000Y-33559000D01*
X33921000Y-34561000D01*
X33921000Y-34561000D01*
G37*
G36*
X81464468Y-33466065D02*
G01*
X81503138Y-33477796D01*
X81538777Y-33496846D01*
X81570017Y-33522483D01*
X81595654Y-33553723D01*
X81614704Y-33589362D01*
X81626435Y-33628032D01*
X81631000Y-33674388D01*
X81631000Y-34325612D01*
X81626435Y-34371968D01*
X81614704Y-34410638D01*
X81595654Y-34446277D01*
X81570017Y-34477517D01*
X81538777Y-34503154D01*
X81503138Y-34522204D01*
X81464468Y-34533935D01*
X81418112Y-34538500D01*
X80341888Y-34538500D01*
X80295532Y-34533935D01*
X80256862Y-34522204D01*
X80221223Y-34503154D01*
X80189983Y-34477517D01*
X80164346Y-34446277D01*
X80145296Y-34410638D01*
X80133565Y-34371968D01*
X80129000Y-34325612D01*
X80129000Y-33674388D01*
X80133565Y-33628032D01*
X80145296Y-33589362D01*
X80164346Y-33553723D01*
X80189983Y-33522483D01*
X80221223Y-33496846D01*
X80256862Y-33477796D01*
X80295532Y-33466065D01*
X80341888Y-33461500D01*
X81418112Y-33461500D01*
X81464468Y-33466065D01*
X81464468Y-33466065D01*
G37*
G36*
X36419591Y-33563085D02*
G01*
X36453569Y-33573393D01*
X36484890Y-33590134D01*
X36512339Y-33612661D01*
X36534866Y-33640110D01*
X36551607Y-33671431D01*
X36561915Y-33705409D01*
X36566000Y-33746890D01*
X36566000Y-34348110D01*
X36561915Y-34389591D01*
X36551607Y-34423569D01*
X36534866Y-34454890D01*
X36512339Y-34482339D01*
X36484890Y-34504866D01*
X36453569Y-34521607D01*
X36419591Y-34531915D01*
X36378110Y-34536000D01*
X35701890Y-34536000D01*
X35660409Y-34531915D01*
X35626431Y-34521607D01*
X35595110Y-34504866D01*
X35567661Y-34482339D01*
X35545134Y-34454890D01*
X35528393Y-34423569D01*
X35518085Y-34389591D01*
X35514000Y-34348110D01*
X35514000Y-33746890D01*
X35518085Y-33705409D01*
X35528393Y-33671431D01*
X35545134Y-33640110D01*
X35567661Y-33612661D01*
X35595110Y-33590134D01*
X35626431Y-33573393D01*
X35660409Y-33563085D01*
X35701890Y-33559000D01*
X36378110Y-33559000D01*
X36419591Y-33563085D01*
X36419591Y-33563085D01*
G37*
G36*
X93763194Y-33414569D02*
G01*
X93119121Y-34182145D01*
X92274940Y-33473793D01*
X92919013Y-32706217D01*
X93763194Y-33414569D01*
X93763194Y-33414569D01*
G37*
G36*
X92369337Y-32897689D02*
G01*
X91789543Y-33588661D01*
X91404989Y-33265981D01*
X91984783Y-32575009D01*
X92369337Y-32897689D01*
X92369337Y-32897689D01*
G37*
G36*
X91756502Y-32383459D02*
G01*
X91176708Y-33074431D01*
X90792154Y-32751751D01*
X91371948Y-32060779D01*
X91756502Y-32383459D01*
X91756502Y-32383459D01*
G37*
G36*
X36419591Y-31988085D02*
G01*
X36453569Y-31998393D01*
X36484890Y-32015134D01*
X36512339Y-32037661D01*
X36534866Y-32065110D01*
X36551607Y-32096431D01*
X36561915Y-32130409D01*
X36566000Y-32171890D01*
X36566000Y-32773110D01*
X36561915Y-32814591D01*
X36551607Y-32848569D01*
X36534866Y-32879890D01*
X36512339Y-32907339D01*
X36484890Y-32929866D01*
X36453569Y-32946607D01*
X36419591Y-32956915D01*
X36378110Y-32961000D01*
X35701890Y-32961000D01*
X35660409Y-32956915D01*
X35626431Y-32946607D01*
X35595110Y-32929866D01*
X35567661Y-32907339D01*
X35545134Y-32879890D01*
X35528393Y-32848569D01*
X35518085Y-32814591D01*
X35514000Y-32773110D01*
X35514000Y-32171890D01*
X35518085Y-32130409D01*
X35528393Y-32096431D01*
X35545134Y-32065110D01*
X35567661Y-32037661D01*
X35595110Y-32015134D01*
X35626431Y-31998393D01*
X35660409Y-31988085D01*
X35701890Y-31984000D01*
X36378110Y-31984000D01*
X36419591Y-31988085D01*
X36419591Y-31988085D01*
G37*
G36*
X62204591Y-31668085D02*
G01*
X62238569Y-31678393D01*
X62269890Y-31695134D01*
X62297339Y-31717661D01*
X62319866Y-31745110D01*
X62336607Y-31776431D01*
X62346915Y-31810409D01*
X62351000Y-31851890D01*
X62351000Y-32528110D01*
X62346915Y-32569591D01*
X62336607Y-32603569D01*
X62319866Y-32634890D01*
X62297339Y-32662339D01*
X62269890Y-32684866D01*
X62238569Y-32701607D01*
X62204591Y-32711915D01*
X62163110Y-32716000D01*
X61561890Y-32716000D01*
X61520409Y-32711915D01*
X61486431Y-32701607D01*
X61455110Y-32684866D01*
X61427661Y-32662339D01*
X61405134Y-32634890D01*
X61388393Y-32603569D01*
X61378085Y-32569591D01*
X61374000Y-32528110D01*
X61374000Y-31851890D01*
X61378085Y-31810409D01*
X61388393Y-31776431D01*
X61405134Y-31745110D01*
X61427661Y-31717661D01*
X61455110Y-31695134D01*
X61486431Y-31678393D01*
X61520409Y-31668085D01*
X61561890Y-31664000D01*
X62163110Y-31664000D01*
X62204591Y-31668085D01*
X62204591Y-31668085D01*
G37*
G36*
X63779591Y-31668085D02*
G01*
X63813569Y-31678393D01*
X63844890Y-31695134D01*
X63872339Y-31717661D01*
X63894866Y-31745110D01*
X63911607Y-31776431D01*
X63921915Y-31810409D01*
X63926000Y-31851890D01*
X63926000Y-32528110D01*
X63921915Y-32569591D01*
X63911607Y-32603569D01*
X63894866Y-32634890D01*
X63872339Y-32662339D01*
X63844890Y-32684866D01*
X63813569Y-32701607D01*
X63779591Y-32711915D01*
X63738110Y-32716000D01*
X63136890Y-32716000D01*
X63095409Y-32711915D01*
X63061431Y-32701607D01*
X63030110Y-32684866D01*
X63002661Y-32662339D01*
X62980134Y-32634890D01*
X62963393Y-32603569D01*
X62953085Y-32569591D01*
X62949000Y-32528110D01*
X62949000Y-31851890D01*
X62953085Y-31810409D01*
X62963393Y-31776431D01*
X62980134Y-31745110D01*
X63002661Y-31717661D01*
X63030110Y-31695134D01*
X63061431Y-31678393D01*
X63095409Y-31668085D01*
X63136890Y-31664000D01*
X63738110Y-31664000D01*
X63779591Y-31668085D01*
X63779591Y-31668085D01*
G37*
G36*
X75119591Y-31658085D02*
G01*
X75153569Y-31668393D01*
X75184890Y-31685134D01*
X75212339Y-31707661D01*
X75234866Y-31735110D01*
X75251607Y-31766431D01*
X75261915Y-31800409D01*
X75266000Y-31841890D01*
X75266000Y-32518110D01*
X75261915Y-32559591D01*
X75251607Y-32593569D01*
X75234866Y-32624890D01*
X75212339Y-32652339D01*
X75184890Y-32674866D01*
X75153569Y-32691607D01*
X75119591Y-32701915D01*
X75078110Y-32706000D01*
X74476890Y-32706000D01*
X74435409Y-32701915D01*
X74401431Y-32691607D01*
X74370110Y-32674866D01*
X74342661Y-32652339D01*
X74320134Y-32624890D01*
X74303393Y-32593569D01*
X74293085Y-32559591D01*
X74289000Y-32518110D01*
X74289000Y-31841890D01*
X74293085Y-31800409D01*
X74303393Y-31766431D01*
X74320134Y-31735110D01*
X74342661Y-31707661D01*
X74370110Y-31685134D01*
X74401431Y-31668393D01*
X74435409Y-31658085D01*
X74476890Y-31654000D01*
X75078110Y-31654000D01*
X75119591Y-31658085D01*
X75119591Y-31658085D01*
G37*
G36*
X73544591Y-31658085D02*
G01*
X73578569Y-31668393D01*
X73609890Y-31685134D01*
X73637339Y-31707661D01*
X73659866Y-31735110D01*
X73676607Y-31766431D01*
X73686915Y-31800409D01*
X73691000Y-31841890D01*
X73691000Y-32518110D01*
X73686915Y-32559591D01*
X73676607Y-32593569D01*
X73659866Y-32624890D01*
X73637339Y-32652339D01*
X73609890Y-32674866D01*
X73578569Y-32691607D01*
X73544591Y-32701915D01*
X73503110Y-32706000D01*
X72901890Y-32706000D01*
X72860409Y-32701915D01*
X72826431Y-32691607D01*
X72795110Y-32674866D01*
X72767661Y-32652339D01*
X72745134Y-32624890D01*
X72728393Y-32593569D01*
X72718085Y-32559591D01*
X72714000Y-32518110D01*
X72714000Y-31841890D01*
X72718085Y-31800409D01*
X72728393Y-31766431D01*
X72745134Y-31735110D01*
X72767661Y-31707661D01*
X72795110Y-31685134D01*
X72826431Y-31668393D01*
X72860409Y-31658085D01*
X72901890Y-31654000D01*
X73503110Y-31654000D01*
X73544591Y-31658085D01*
X73544591Y-31658085D01*
G37*
G36*
X81464468Y-31591065D02*
G01*
X81503138Y-31602796D01*
X81538777Y-31621846D01*
X81570017Y-31647483D01*
X81595654Y-31678723D01*
X81614704Y-31714362D01*
X81626435Y-31753032D01*
X81631000Y-31799388D01*
X81631000Y-32450612D01*
X81626435Y-32496968D01*
X81614704Y-32535638D01*
X81595654Y-32571277D01*
X81570017Y-32602517D01*
X81538777Y-32628154D01*
X81503138Y-32647204D01*
X81464468Y-32658935D01*
X81418112Y-32663500D01*
X80341888Y-32663500D01*
X80295532Y-32658935D01*
X80256862Y-32647204D01*
X80221223Y-32628154D01*
X80189983Y-32602517D01*
X80164346Y-32571277D01*
X80145296Y-32535638D01*
X80133565Y-32496968D01*
X80129000Y-32450612D01*
X80129000Y-31799388D01*
X80133565Y-31753032D01*
X80145296Y-31714362D01*
X80164346Y-31678723D01*
X80189983Y-31647483D01*
X80221223Y-31621846D01*
X80256862Y-31602796D01*
X80295532Y-31591065D01*
X80341888Y-31586500D01*
X81418112Y-31586500D01*
X81464468Y-31591065D01*
X81464468Y-31591065D01*
G37*
G36*
X69499591Y-31608085D02*
G01*
X69533569Y-31618393D01*
X69564890Y-31635134D01*
X69592339Y-31657661D01*
X69614866Y-31685110D01*
X69631607Y-31716431D01*
X69641915Y-31750409D01*
X69646000Y-31791890D01*
X69646000Y-32468110D01*
X69641915Y-32509591D01*
X69631607Y-32543569D01*
X69614866Y-32574890D01*
X69592339Y-32602339D01*
X69564890Y-32624866D01*
X69533569Y-32641607D01*
X69499591Y-32651915D01*
X69458110Y-32656000D01*
X68856890Y-32656000D01*
X68815409Y-32651915D01*
X68781431Y-32641607D01*
X68750110Y-32624866D01*
X68722661Y-32602339D01*
X68700134Y-32574890D01*
X68683393Y-32543569D01*
X68673085Y-32509591D01*
X68669000Y-32468110D01*
X68669000Y-31791890D01*
X68673085Y-31750409D01*
X68683393Y-31716431D01*
X68700134Y-31685110D01*
X68722661Y-31657661D01*
X68750110Y-31635134D01*
X68781431Y-31618393D01*
X68815409Y-31608085D01*
X68856890Y-31604000D01*
X69458110Y-31604000D01*
X69499591Y-31608085D01*
X69499591Y-31608085D01*
G37*
G36*
X67924591Y-31608085D02*
G01*
X67958569Y-31618393D01*
X67989890Y-31635134D01*
X68017339Y-31657661D01*
X68039866Y-31685110D01*
X68056607Y-31716431D01*
X68066915Y-31750409D01*
X68071000Y-31791890D01*
X68071000Y-32468110D01*
X68066915Y-32509591D01*
X68056607Y-32543569D01*
X68039866Y-32574890D01*
X68017339Y-32602339D01*
X67989890Y-32624866D01*
X67958569Y-32641607D01*
X67924591Y-32651915D01*
X67883110Y-32656000D01*
X67281890Y-32656000D01*
X67240409Y-32651915D01*
X67206431Y-32641607D01*
X67175110Y-32624866D01*
X67147661Y-32602339D01*
X67125134Y-32574890D01*
X67108393Y-32543569D01*
X67098085Y-32509591D01*
X67094000Y-32468110D01*
X67094000Y-31791890D01*
X67098085Y-31750409D01*
X67108393Y-31716431D01*
X67125134Y-31685110D01*
X67147661Y-31657661D01*
X67175110Y-31635134D01*
X67206431Y-31618393D01*
X67240409Y-31608085D01*
X67281890Y-31604000D01*
X67883110Y-31604000D01*
X67924591Y-31608085D01*
X67924591Y-31608085D01*
G37*
G36*
X34871000Y-32561000D02*
G01*
X33969000Y-32561000D01*
X33969000Y-31559000D01*
X34871000Y-31559000D01*
X34871000Y-32561000D01*
X34871000Y-32561000D01*
G37*
G36*
X32971000Y-32561000D02*
G01*
X32069000Y-32561000D01*
X32069000Y-31559000D01*
X32971000Y-31559000D01*
X32971000Y-32561000D01*
X32971000Y-32561000D01*
G37*
G36*
X91465060Y-31486207D02*
G01*
X90820987Y-32253783D01*
X89976806Y-31545431D01*
X90620879Y-30777855D01*
X91465060Y-31486207D01*
X91465060Y-31486207D01*
G37*
G36*
X62811000Y-31241000D02*
G01*
X61909000Y-31241000D01*
X61909000Y-30239000D01*
X62811000Y-30239000D01*
X62811000Y-31241000D01*
X62811000Y-31241000D01*
G37*
G36*
X74171000Y-31191000D02*
G01*
X73269000Y-31191000D01*
X73269000Y-30189000D01*
X74171000Y-30189000D01*
X74171000Y-31191000D01*
X74171000Y-31191000D01*
G37*
G36*
X68551000Y-31151000D02*
G01*
X67649000Y-31151000D01*
X67649000Y-30149000D01*
X68551000Y-30149000D01*
X68551000Y-31151000D01*
X68551000Y-31151000D01*
G37*
G36*
X63761000Y-29241000D02*
G01*
X62859000Y-29241000D01*
X62859000Y-28239000D01*
X63761000Y-28239000D01*
X63761000Y-29241000D01*
X63761000Y-29241000D01*
G37*
G36*
X61861000Y-29241000D02*
G01*
X60959000Y-29241000D01*
X60959000Y-28239000D01*
X61861000Y-28239000D01*
X61861000Y-29241000D01*
X61861000Y-29241000D01*
G37*
G36*
X73221000Y-29191000D02*
G01*
X72319000Y-29191000D01*
X72319000Y-28189000D01*
X73221000Y-28189000D01*
X73221000Y-29191000D01*
X73221000Y-29191000D01*
G37*
G36*
X75121000Y-29191000D02*
G01*
X74219000Y-29191000D01*
X74219000Y-28189000D01*
X75121000Y-28189000D01*
X75121000Y-29191000D01*
X75121000Y-29191000D01*
G37*
G36*
X69501000Y-29151000D02*
G01*
X68599000Y-29151000D01*
X68599000Y-28149000D01*
X69501000Y-28149000D01*
X69501000Y-29151000D01*
X69501000Y-29151000D01*
G37*
G36*
X67601000Y-29151000D02*
G01*
X66699000Y-29151000D01*
X66699000Y-28149000D01*
X67601000Y-28149000D01*
X67601000Y-29151000D01*
X67601000Y-29151000D01*
G37*
G36*
X54964468Y-27523565D02*
G01*
X55003138Y-27535296D01*
X55038777Y-27554346D01*
X55070017Y-27579983D01*
X55095654Y-27611223D01*
X55114704Y-27646862D01*
X55126435Y-27685532D01*
X55131000Y-27731888D01*
X55131000Y-28383112D01*
X55126435Y-28429468D01*
X55114704Y-28468138D01*
X55095654Y-28503777D01*
X55070017Y-28535017D01*
X55038777Y-28560654D01*
X55003138Y-28579704D01*
X54964468Y-28591435D01*
X54918112Y-28596000D01*
X53841888Y-28596000D01*
X53795532Y-28591435D01*
X53756862Y-28579704D01*
X53721223Y-28560654D01*
X53689983Y-28535017D01*
X53664346Y-28503777D01*
X53645296Y-28468138D01*
X53633565Y-28429468D01*
X53629000Y-28383112D01*
X53629000Y-27731888D01*
X53633565Y-27685532D01*
X53645296Y-27646862D01*
X53664346Y-27611223D01*
X53689983Y-27579983D01*
X53721223Y-27554346D01*
X53756862Y-27535296D01*
X53795532Y-27523565D01*
X53841888Y-27519000D01*
X54918112Y-27519000D01*
X54964468Y-27523565D01*
X54964468Y-27523565D01*
G37*
G36*
X83574468Y-27503565D02*
G01*
X83613138Y-27515296D01*
X83648777Y-27534346D01*
X83680017Y-27559983D01*
X83705654Y-27591223D01*
X83724704Y-27626862D01*
X83736435Y-27665532D01*
X83741000Y-27711888D01*
X83741000Y-28363112D01*
X83736435Y-28409468D01*
X83724704Y-28448138D01*
X83705654Y-28483777D01*
X83680017Y-28515017D01*
X83648777Y-28540654D01*
X83613138Y-28559704D01*
X83574468Y-28571435D01*
X83528112Y-28576000D01*
X82451888Y-28576000D01*
X82405532Y-28571435D01*
X82366862Y-28559704D01*
X82331223Y-28540654D01*
X82299983Y-28515017D01*
X82274346Y-28483777D01*
X82255296Y-28448138D01*
X82243565Y-28409468D01*
X82239000Y-28363112D01*
X82239000Y-27711888D01*
X82243565Y-27665532D01*
X82255296Y-27626862D01*
X82274346Y-27591223D01*
X82299983Y-27559983D01*
X82331223Y-27534346D01*
X82366862Y-27515296D01*
X82405532Y-27503565D01*
X82451888Y-27499000D01*
X83528112Y-27499000D01*
X83574468Y-27503565D01*
X83574468Y-27503565D01*
G37*
G36*
X54964468Y-25648565D02*
G01*
X55003138Y-25660296D01*
X55038777Y-25679346D01*
X55070017Y-25704983D01*
X55095654Y-25736223D01*
X55114704Y-25771862D01*
X55126435Y-25810532D01*
X55131000Y-25856888D01*
X55131000Y-26508112D01*
X55126435Y-26554468D01*
X55114704Y-26593138D01*
X55095654Y-26628777D01*
X55070017Y-26660017D01*
X55038777Y-26685654D01*
X55003138Y-26704704D01*
X54964468Y-26716435D01*
X54918112Y-26721000D01*
X53841888Y-26721000D01*
X53795532Y-26716435D01*
X53756862Y-26704704D01*
X53721223Y-26685654D01*
X53689983Y-26660017D01*
X53664346Y-26628777D01*
X53645296Y-26593138D01*
X53633565Y-26554468D01*
X53629000Y-26508112D01*
X53629000Y-25856888D01*
X53633565Y-25810532D01*
X53645296Y-25771862D01*
X53664346Y-25736223D01*
X53689983Y-25704983D01*
X53721223Y-25679346D01*
X53756862Y-25660296D01*
X53795532Y-25648565D01*
X53841888Y-25644000D01*
X54918112Y-25644000D01*
X54964468Y-25648565D01*
X54964468Y-25648565D01*
G37*
G36*
X83574468Y-25628565D02*
G01*
X83613138Y-25640296D01*
X83648777Y-25659346D01*
X83680017Y-25684983D01*
X83705654Y-25716223D01*
X83724704Y-25751862D01*
X83736435Y-25790532D01*
X83741000Y-25836888D01*
X83741000Y-26488112D01*
X83736435Y-26534468D01*
X83724704Y-26573138D01*
X83705654Y-26608777D01*
X83680017Y-26640017D01*
X83648777Y-26665654D01*
X83613138Y-26684704D01*
X83574468Y-26696435D01*
X83528112Y-26701000D01*
X82451888Y-26701000D01*
X82405532Y-26696435D01*
X82366862Y-26684704D01*
X82331223Y-26665654D01*
X82299983Y-26640017D01*
X82274346Y-26608777D01*
X82255296Y-26573138D01*
X82243565Y-26534468D01*
X82239000Y-26488112D01*
X82239000Y-25836888D01*
X82243565Y-25790532D01*
X82255296Y-25751862D01*
X82274346Y-25716223D01*
X82299983Y-25684983D01*
X82331223Y-25659346D01*
X82366862Y-25640296D01*
X82405532Y-25628565D01*
X82451888Y-25624000D01*
X83528112Y-25624000D01*
X83574468Y-25628565D01*
X83574468Y-25628565D01*
G37*
G36*
X86922145Y-22829121D02*
G01*
X86154569Y-23473194D01*
X85446217Y-22629013D01*
X86213793Y-21984940D01*
X86922145Y-22829121D01*
X86922145Y-22829121D01*
G37*
G36*
X85639221Y-22078052D02*
G01*
X84948249Y-22657846D01*
X84625569Y-22273292D01*
X85316541Y-21693498D01*
X85639221Y-22078052D01*
X85639221Y-22078052D01*
G37*
G36*
X85124991Y-21465217D02*
G01*
X84434019Y-22045011D01*
X84111339Y-21660457D01*
X84802311Y-21080663D01*
X85124991Y-21465217D01*
X85124991Y-21465217D01*
G37*
G36*
X84993783Y-20530987D02*
G01*
X84226207Y-21175060D01*
X83517855Y-20330879D01*
X84285431Y-19686806D01*
X84993783Y-20530987D01*
X84993783Y-20530987D01*
G37*
G36*
X41318433Y-16884893D02*
G01*
X41408657Y-16902839D01*
X41514267Y-16946585D01*
X41663621Y-17008449D01*
X41663622Y-17008450D01*
X41893086Y-17161772D01*
X42088228Y-17356914D01*
X42190675Y-17510237D01*
X42241551Y-17586379D01*
X42347161Y-17841344D01*
X42401000Y-18112012D01*
X42401000Y-18387988D01*
X42347161Y-18658656D01*
X42241551Y-18913621D01*
X42241550Y-18913622D01*
X42088228Y-19143086D01*
X41893086Y-19338228D01*
X41739763Y-19440675D01*
X41663621Y-19491551D01*
X41514267Y-19553415D01*
X41408657Y-19597161D01*
X41318433Y-19615107D01*
X41137988Y-19651000D01*
X40862012Y-19651000D01*
X40681567Y-19615107D01*
X40591343Y-19597161D01*
X40485733Y-19553415D01*
X40336379Y-19491551D01*
X40260237Y-19440675D01*
X40106914Y-19338228D01*
X39911772Y-19143086D01*
X39758450Y-18913622D01*
X39758449Y-18913621D01*
X39652839Y-18658656D01*
X39599000Y-18387988D01*
X39599000Y-18112012D01*
X39652839Y-17841344D01*
X39758449Y-17586379D01*
X39809325Y-17510237D01*
X39911772Y-17356914D01*
X40106914Y-17161772D01*
X40336378Y-17008450D01*
X40336379Y-17008449D01*
X40485733Y-16946585D01*
X40591343Y-16902839D01*
X40681567Y-16884893D01*
X40862012Y-16849000D01*
X41137988Y-16849000D01*
X41318433Y-16884893D01*
X41318433Y-16884893D01*
G37*
G36*
X51895060Y-17173793D02*
G01*
X51050879Y-17882145D01*
X50406806Y-17114569D01*
X51250987Y-16406217D01*
X51895060Y-17173793D01*
X51895060Y-17173793D01*
G37*
G36*
X52765011Y-16965981D02*
G01*
X52380457Y-17288661D01*
X51800663Y-16597689D01*
X52185217Y-16275009D01*
X52765011Y-16965981D01*
X52765011Y-16965981D01*
G37*
G36*
X53377846Y-16451751D02*
G01*
X52993292Y-16774431D01*
X52413498Y-16083459D01*
X52798052Y-15760779D01*
X53377846Y-16451751D01*
X53377846Y-16451751D01*
G37*
G36*
X54193194Y-15245431D02*
G01*
X53349013Y-15953783D01*
X52704940Y-15186207D01*
X53549121Y-14477855D01*
X54193194Y-15245431D01*
X54193194Y-15245431D01*
G37*
G36*
X78092232Y-13508100D02*
G01*
X78868662Y-13790697D01*
X78525958Y-14732269D01*
X78525957Y-14732269D01*
X78243102Y-14629318D01*
X77490416Y-14355363D01*
X77833120Y-13413791D01*
X77833121Y-13413791D01*
X78092232Y-13508100D01*
X78092232Y-13508100D01*
G37*
G36*
X77174628Y-13706209D02*
G01*
X77382082Y-13781716D01*
X77073580Y-14629318D01*
X77073579Y-14629318D01*
X76601854Y-14457624D01*
X76701442Y-14184008D01*
X76910356Y-13610022D01*
X76910357Y-13610022D01*
X77174628Y-13706209D01*
X77174628Y-13706209D01*
G37*
G36*
X76371216Y-13413791D02*
G01*
X76630328Y-13508100D01*
X76321826Y-14355702D01*
X76321825Y-14355702D01*
X75850100Y-14184008D01*
X76158602Y-13336406D01*
X76158603Y-13336406D01*
X76371216Y-13413791D01*
X76371216Y-13413791D01*
G37*
G36*
X75290373Y-12488307D02*
G01*
X76049584Y-12764637D01*
X75706880Y-13706209D01*
X75706879Y-13706209D01*
X75430549Y-13605633D01*
X74671338Y-13329303D01*
X75014042Y-12387731D01*
X75014043Y-12387731D01*
X75290373Y-12488307D01*
X75290373Y-12488307D01*
G37*
G36*
X64409584Y-9445363D02*
G01*
X63656898Y-9719318D01*
X63374043Y-9822269D01*
X63374042Y-9822269D01*
X63031338Y-8880697D01*
X63807768Y-8598100D01*
X64066879Y-8503791D01*
X64066880Y-8503791D01*
X64409584Y-9445363D01*
X64409584Y-9445363D01*
G37*
G36*
X65198558Y-9274008D02*
G01*
X65298146Y-9547624D01*
X64826421Y-9719318D01*
X64826420Y-9719318D01*
X64517918Y-8871716D01*
X64725372Y-8796209D01*
X64989643Y-8700022D01*
X64989644Y-8700022D01*
X65198558Y-9274008D01*
X65198558Y-9274008D01*
G37*
G36*
X66049900Y-9274008D02*
G01*
X65578175Y-9445702D01*
X65578174Y-9445702D01*
X65269672Y-8598100D01*
X65528784Y-8503791D01*
X65741397Y-8426406D01*
X65741398Y-8426406D01*
X66049900Y-9274008D01*
X66049900Y-9274008D01*
G37*
G36*
X67228662Y-8419303D02*
G01*
X66469451Y-8695633D01*
X66193121Y-8796209D01*
X66193120Y-8796209D01*
X65850416Y-7854637D01*
X66609627Y-7578307D01*
X66885957Y-7477731D01*
X66885958Y-7477731D01*
X67228662Y-8419303D01*
X67228662Y-8419303D01*
G37*
M02*
